M48
; DRILL file {KiCad (5.1.10)-1} date 09/20/21 14:50:30
; FORMAT={-:-/ absolute / metric / decimal}
; #@! TF.CreationDate,2021-09-20T14:50:30+01:00
; #@! TF.GenerationSoftware,Kicad,Pcbnew,(5.1.10)-1
; #@! TF.FileFunction,Plated,1,2,PTH
FMAT,2
METRIC
T1C0.400
T2C0.800
T3C1.020
T4C1.470
%
G90
G05
T1
X99.15Y-111.0
X99.6Y-87.5
T2
X72.8Y-133.6
X76.0Y-148.0
X77.2Y-133.6
X77.8Y-119.2
X78.188Y-128.212
X78.8Y-140.8
X80.0Y-126.4
X80.4Y-148.0
X81.388Y-142.612
X81.6Y-133.6
X82.588Y-128.212
X82.8Y-119.2
X83.188Y-113.812
X83.2Y-140.8
X84.188Y-135.412
X84.4Y-126.4
X84.8Y-148.0
X85.388Y-121.012
X85.788Y-142.612
X86.0Y-133.6
X86.988Y-128.212
X87.2Y-119.2
X87.6Y-140.8
X88.188Y-113.812
X88.588Y-135.412
X88.8Y-126.4
X89.788Y-121.012
X90.188Y-142.612
X91.388Y-128.212
X91.6Y-119.2
X92.588Y-113.812
X92.988Y-135.412
X94.188Y-121.012
X96.988Y-113.812
T3
X76.91Y-60.67
X76.91Y-63.21
X76.91Y-65.75
X76.91Y-68.29
X76.91Y-70.83
X76.91Y-73.37
X76.91Y-75.91
X76.91Y-78.45
X76.91Y-80.99
X76.91Y-83.53
X76.91Y-86.07
X76.91Y-88.61
X76.91Y-91.15
X76.91Y-93.69
X76.91Y-96.23
X76.91Y-98.77
X76.91Y-101.31
X76.91Y-103.85
X76.91Y-106.39
X76.91Y-108.93
X83.26Y-108.7
X85.8Y-108.7
X88.34Y-108.7
X94.69Y-60.67
X94.69Y-63.21
X94.69Y-65.75
X94.69Y-68.29
X94.69Y-70.83
X94.69Y-73.37
X94.69Y-75.91
X94.69Y-78.45
X94.69Y-80.99
X94.69Y-83.53
X94.69Y-86.07
X94.69Y-88.61
X94.69Y-91.15
X94.69Y-93.69
X94.69Y-96.23
X94.69Y-98.77
X94.69Y-101.31
X94.69Y-103.85
X94.69Y-106.39
X94.69Y-108.93
T4
X106.69Y-65.46
X106.69Y-84.46
X106.69Y-103.46
X106.69Y-122.46
X113.04Y-62.92
X113.04Y-81.92
X113.04Y-100.92
X113.04Y-119.92
X116.19Y-141.46
X122.54Y-138.92
X125.69Y-65.46
X125.69Y-84.46
X125.69Y-103.46
X125.69Y-122.46
X132.04Y-62.92
X132.04Y-81.92
X132.04Y-100.92
X132.04Y-119.92
X144.69Y-65.46
X144.69Y-84.46
X144.69Y-103.46
X144.69Y-122.46
X144.69Y-141.46
X151.04Y-62.92
X151.04Y-81.92
X151.04Y-100.92
X151.04Y-119.92
X151.04Y-138.92
X162.42Y-93.96
X162.42Y-131.96
X163.69Y-65.46
X164.96Y-100.31
X164.96Y-138.31
X170.04Y-62.92
T0
M30
