G04 #@! TF.GenerationSoftware,KiCad,Pcbnew,(5.1.10)-1*
G04 #@! TF.CreationDate,2021-09-20T14:50:31+01:00*
G04 #@! TF.ProjectId,env-npd,656e762d-6e70-4642-9e6b-696361645f70,rev?*
G04 #@! TF.SameCoordinates,Original*
G04 #@! TF.FileFunction,Other,Fab,Top*
%FSLAX46Y46*%
G04 Gerber Fmt 4.6, Leading zero omitted, Abs format (unit mm)*
G04 Created by KiCad (PCBNEW (5.1.10)-1) date 2021-09-20 14:50:31*
%MOMM*%
%LPD*%
G01*
G04 APERTURE LIST*
%ADD10C,0.100000*%
%ADD11C,0.120000*%
%ADD12C,0.150000*%
%ADD13C,0.125000*%
G04 APERTURE END LIST*
D10*
X78726310Y-116859477D02*
X80140523Y-118273690D01*
X78867731Y-116718055D02*
X80281945Y-118132269D01*
X78797021Y-116788766D02*
X80211234Y-118202979D01*
X83188154Y-113811846D02*
X81908290Y-115091710D01*
X77800000Y-119200000D02*
X79079863Y-117920137D01*
X81201184Y-114384603D02*
X78372756Y-117213030D01*
X82615397Y-115798816D02*
X81201184Y-114384603D01*
X79786970Y-118627244D02*
X82615397Y-115798816D01*
X78372756Y-117213030D02*
X79786970Y-118627244D01*
X76926310Y-145659477D02*
X78340523Y-147073690D01*
X77067731Y-145518055D02*
X78481945Y-146932269D01*
X76997021Y-145588766D02*
X78411234Y-147002979D01*
X81388154Y-142611846D02*
X80108290Y-143891710D01*
X76000000Y-148000000D02*
X77279863Y-146720137D01*
X79401184Y-143184603D02*
X76572756Y-146013030D01*
X80815397Y-144598816D02*
X79401184Y-143184603D01*
X77986970Y-147427244D02*
X80815397Y-144598816D01*
X76572756Y-146013030D02*
X77986970Y-147427244D01*
X81326310Y-145659477D02*
X82740523Y-147073690D01*
X81467731Y-145518055D02*
X82881945Y-146932269D01*
X81397021Y-145588766D02*
X82811234Y-147002979D01*
X85788154Y-142611846D02*
X84508290Y-143891710D01*
X80400000Y-148000000D02*
X81679863Y-146720137D01*
X83801184Y-143184603D02*
X80972756Y-146013030D01*
X85215397Y-144598816D02*
X83801184Y-143184603D01*
X82386970Y-147427244D02*
X85215397Y-144598816D01*
X80972756Y-146013030D02*
X82386970Y-147427244D01*
X85726310Y-145659477D02*
X87140523Y-147073690D01*
X85867731Y-145518055D02*
X87281945Y-146932269D01*
X85797021Y-145588766D02*
X87211234Y-147002979D01*
X90188154Y-142611846D02*
X88908290Y-143891710D01*
X84800000Y-148000000D02*
X86079863Y-146720137D01*
X88201184Y-143184603D02*
X85372756Y-146013030D01*
X89615397Y-144598816D02*
X88201184Y-143184603D01*
X86786970Y-147427244D02*
X89615397Y-144598816D01*
X85372756Y-146013030D02*
X86786970Y-147427244D01*
X79726310Y-138459477D02*
X81140523Y-139873690D01*
X79867731Y-138318055D02*
X81281945Y-139732269D01*
X79797021Y-138388766D02*
X81211234Y-139802979D01*
X84188154Y-135411846D02*
X82908290Y-136691710D01*
X78800000Y-140800000D02*
X80079863Y-139520137D01*
X82201184Y-135984603D02*
X79372756Y-138813030D01*
X83615397Y-137398816D02*
X82201184Y-135984603D01*
X80786970Y-140227244D02*
X83615397Y-137398816D01*
X79372756Y-138813030D02*
X80786970Y-140227244D01*
X84126310Y-138459477D02*
X85540523Y-139873690D01*
X84267731Y-138318055D02*
X85681945Y-139732269D01*
X84197021Y-138388766D02*
X85611234Y-139802979D01*
X88588154Y-135411846D02*
X87308290Y-136691710D01*
X83200000Y-140800000D02*
X84479863Y-139520137D01*
X86601184Y-135984603D02*
X83772756Y-138813030D01*
X88015397Y-137398816D02*
X86601184Y-135984603D01*
X85186970Y-140227244D02*
X88015397Y-137398816D01*
X83772756Y-138813030D02*
X85186970Y-140227244D01*
X88526310Y-138459477D02*
X89940523Y-139873690D01*
X88667731Y-138318055D02*
X90081945Y-139732269D01*
X88597021Y-138388766D02*
X90011234Y-139802979D01*
X92988154Y-135411846D02*
X91708290Y-136691710D01*
X87600000Y-140800000D02*
X88879863Y-139520137D01*
X91001184Y-135984603D02*
X88172756Y-138813030D01*
X92415397Y-137398816D02*
X91001184Y-135984603D01*
X89586970Y-140227244D02*
X92415397Y-137398816D01*
X88172756Y-138813030D02*
X89586970Y-140227244D01*
X73726310Y-131259477D02*
X75140523Y-132673690D01*
X73867731Y-131118055D02*
X75281945Y-132532269D01*
X73797021Y-131188766D02*
X75211234Y-132602979D01*
X78188154Y-128211846D02*
X76908290Y-129491710D01*
X72800000Y-133600000D02*
X74079863Y-132320137D01*
X76201184Y-128784603D02*
X73372756Y-131613030D01*
X77615397Y-130198816D02*
X76201184Y-128784603D01*
X74786970Y-133027244D02*
X77615397Y-130198816D01*
X73372756Y-131613030D02*
X74786970Y-133027244D01*
X78126310Y-131259477D02*
X79540523Y-132673690D01*
X78267731Y-131118055D02*
X79681945Y-132532269D01*
X78197021Y-131188766D02*
X79611234Y-132602979D01*
X82588154Y-128211846D02*
X81308290Y-129491710D01*
X77200000Y-133600000D02*
X78479863Y-132320137D01*
X80601184Y-128784603D02*
X77772756Y-131613030D01*
X82015397Y-130198816D02*
X80601184Y-128784603D01*
X79186970Y-133027244D02*
X82015397Y-130198816D01*
X77772756Y-131613030D02*
X79186970Y-133027244D01*
X82526310Y-131259477D02*
X83940523Y-132673690D01*
X82667731Y-131118055D02*
X84081945Y-132532269D01*
X82597021Y-131188766D02*
X84011234Y-132602979D01*
X86988154Y-128211846D02*
X85708290Y-129491710D01*
X81600000Y-133600000D02*
X82879863Y-132320137D01*
X85001184Y-128784603D02*
X82172756Y-131613030D01*
X86415397Y-130198816D02*
X85001184Y-128784603D01*
X83586970Y-133027244D02*
X86415397Y-130198816D01*
X82172756Y-131613030D02*
X83586970Y-133027244D01*
X86926310Y-131259477D02*
X88340523Y-132673690D01*
X87067731Y-131118055D02*
X88481945Y-132532269D01*
X86997021Y-131188766D02*
X88411234Y-132602979D01*
X91388154Y-128211846D02*
X90108290Y-129491710D01*
X86000000Y-133600000D02*
X87279863Y-132320137D01*
X89401184Y-128784603D02*
X86572756Y-131613030D01*
X90815397Y-130198816D02*
X89401184Y-128784603D01*
X87986970Y-133027244D02*
X90815397Y-130198816D01*
X86572756Y-131613030D02*
X87986970Y-133027244D01*
X80926310Y-124059477D02*
X82340523Y-125473690D01*
X81067731Y-123918055D02*
X82481945Y-125332269D01*
X80997021Y-123988766D02*
X82411234Y-125402979D01*
X85388154Y-121011846D02*
X84108290Y-122291710D01*
X80000000Y-126400000D02*
X81279863Y-125120137D01*
X83401184Y-121584603D02*
X80572756Y-124413030D01*
X84815397Y-122998816D02*
X83401184Y-121584603D01*
X81986970Y-125827244D02*
X84815397Y-122998816D01*
X80572756Y-124413030D02*
X81986970Y-125827244D01*
X85326310Y-124059477D02*
X86740523Y-125473690D01*
X85467731Y-123918055D02*
X86881945Y-125332269D01*
X85397021Y-123988766D02*
X86811234Y-125402979D01*
X89788154Y-121011846D02*
X88508290Y-122291710D01*
X84400000Y-126400000D02*
X85679863Y-125120137D01*
X87801184Y-121584603D02*
X84972756Y-124413030D01*
X89215397Y-122998816D02*
X87801184Y-121584603D01*
X86386970Y-125827244D02*
X89215397Y-122998816D01*
X84972756Y-124413030D02*
X86386970Y-125827244D01*
X89726310Y-124059477D02*
X91140523Y-125473690D01*
X89867731Y-123918055D02*
X91281945Y-125332269D01*
X89797021Y-123988766D02*
X91211234Y-125402979D01*
X94188154Y-121011846D02*
X92908290Y-122291710D01*
X88800000Y-126400000D02*
X90079863Y-125120137D01*
X92201184Y-121584603D02*
X89372756Y-124413030D01*
X93615397Y-122998816D02*
X92201184Y-121584603D01*
X90786970Y-125827244D02*
X93615397Y-122998816D01*
X89372756Y-124413030D02*
X90786970Y-125827244D01*
X83726310Y-116859477D02*
X85140523Y-118273690D01*
X83867731Y-116718055D02*
X85281945Y-118132269D01*
X83797021Y-116788766D02*
X85211234Y-118202979D01*
X88188154Y-113811846D02*
X86908290Y-115091710D01*
X82800000Y-119200000D02*
X84079863Y-117920137D01*
X86201184Y-114384603D02*
X83372756Y-117213030D01*
X87615397Y-115798816D02*
X86201184Y-114384603D01*
X84786970Y-118627244D02*
X87615397Y-115798816D01*
X83372756Y-117213030D02*
X84786970Y-118627244D01*
X88126310Y-116859477D02*
X89540523Y-118273690D01*
X88267731Y-116718055D02*
X89681945Y-118132269D01*
X88197021Y-116788766D02*
X89611234Y-118202979D01*
X92588154Y-113811846D02*
X91308290Y-115091710D01*
X87200000Y-119200000D02*
X88479863Y-117920137D01*
X90601184Y-114384603D02*
X87772756Y-117213030D01*
X92015397Y-115798816D02*
X90601184Y-114384603D01*
X89186970Y-118627244D02*
X92015397Y-115798816D01*
X87772756Y-117213030D02*
X89186970Y-118627244D01*
X92526310Y-116859477D02*
X93940523Y-118273690D01*
X92667731Y-116718055D02*
X94081945Y-118132269D01*
X92597021Y-116788766D02*
X94011234Y-118202979D01*
X96988154Y-113811846D02*
X95708290Y-115091710D01*
X91600000Y-119200000D02*
X92879863Y-117920137D01*
X95001184Y-114384603D02*
X92172756Y-117213030D01*
X96415397Y-115798816D02*
X95001184Y-114384603D01*
X93586970Y-118627244D02*
X96415397Y-115798816D01*
X92172756Y-117213030D02*
X93586970Y-118627244D01*
D11*
X82050000Y-58390000D02*
X89550000Y-58390000D01*
X82050000Y-63340000D02*
X82050000Y-58390000D01*
X89550000Y-58390000D02*
X89550000Y-62590000D01*
X75300000Y-59300000D02*
X96300000Y-59300000D01*
X96300000Y-59300000D02*
X96300000Y-110300000D01*
X96300000Y-110300000D02*
X75300000Y-110300000D01*
X75300000Y-110300000D02*
X75300000Y-59300000D01*
X75300000Y-60600000D02*
X76600000Y-59300000D01*
D12*
X78792979Y-115848650D02*
X78085872Y-115141544D01*
X78254231Y-114973185D01*
X78388918Y-114905841D01*
X78523605Y-114905841D01*
X78624620Y-114939513D01*
X78792979Y-115040528D01*
X78893994Y-115141544D01*
X78995010Y-115309902D01*
X79028681Y-115410918D01*
X79028681Y-115545605D01*
X78961338Y-115680292D01*
X78792979Y-115848650D01*
X79331727Y-114367093D02*
X79803132Y-114838498D01*
X78893994Y-114266078D02*
X79230712Y-114939513D01*
X79668445Y-114501780D01*
D11*
X80544584Y-116967226D02*
X79978899Y-116401540D01*
X80113586Y-116266853D01*
X80221335Y-116212978D01*
X80329085Y-116212978D01*
X80409897Y-116239916D01*
X80544584Y-116320728D01*
X80625396Y-116401540D01*
X80706208Y-116536227D01*
X80733146Y-116617039D01*
X80733146Y-116724789D01*
X80679271Y-116832539D01*
X80544584Y-116967226D01*
X80975583Y-115781980D02*
X81352706Y-116159103D01*
X80625396Y-115701168D02*
X80894770Y-116239916D01*
X81244957Y-115889729D01*
D12*
X76656261Y-144985368D02*
X75949155Y-144278261D01*
X76117513Y-144109902D01*
X76252200Y-144042559D01*
X76386887Y-144042559D01*
X76487903Y-144076231D01*
X76656261Y-144177246D01*
X76757277Y-144278261D01*
X76858292Y-144446620D01*
X76891964Y-144547635D01*
X76891964Y-144682322D01*
X76824620Y-144817009D01*
X76656261Y-144985368D01*
X77733758Y-143907872D02*
X77329697Y-144311933D01*
X77531727Y-144109902D02*
X76824620Y-143402795D01*
X76858292Y-143571154D01*
X76858292Y-143705841D01*
X76824620Y-143806857D01*
X77262353Y-142965063D02*
X77733758Y-142493658D01*
X78137819Y-143503811D01*
D11*
X78475210Y-146036600D02*
X77909525Y-145470914D01*
X78044212Y-145336227D01*
X78151961Y-145282352D01*
X78259711Y-145282352D01*
X78340523Y-145309290D01*
X78475210Y-145390102D01*
X78556022Y-145470914D01*
X78636834Y-145605601D01*
X78663772Y-145686413D01*
X78663772Y-145794163D01*
X78609897Y-145901913D01*
X78475210Y-146036600D01*
X79337207Y-145174603D02*
X79013958Y-145497852D01*
X79175583Y-145336227D02*
X78609897Y-144770542D01*
X78636834Y-144905229D01*
X78636834Y-145012978D01*
X78609897Y-145093791D01*
X78960083Y-144420355D02*
X79337207Y-144043232D01*
X79660456Y-144851354D01*
D12*
X81056261Y-144985368D02*
X80349155Y-144278261D01*
X80517513Y-144109902D01*
X80652200Y-144042559D01*
X80786887Y-144042559D01*
X80887903Y-144076231D01*
X81056261Y-144177246D01*
X81157277Y-144278261D01*
X81258292Y-144446620D01*
X81291964Y-144547635D01*
X81291964Y-144682322D01*
X81224620Y-144817009D01*
X81056261Y-144985368D01*
X82133758Y-143907872D02*
X81729697Y-144311933D01*
X81931727Y-144109902D02*
X81224620Y-143402795D01*
X81258292Y-143571154D01*
X81258292Y-143705841D01*
X81224620Y-143806857D01*
X82032742Y-142594673D02*
X81898055Y-142729360D01*
X81864384Y-142830376D01*
X81864384Y-142897719D01*
X81898055Y-143066078D01*
X81999071Y-143234437D01*
X82268445Y-143503811D01*
X82369460Y-143537482D01*
X82436803Y-143537482D01*
X82537819Y-143503811D01*
X82672506Y-143369124D01*
X82706177Y-143268108D01*
X82706177Y-143200765D01*
X82672506Y-143099750D01*
X82504147Y-142931391D01*
X82403132Y-142897719D01*
X82335788Y-142897719D01*
X82234773Y-142931391D01*
X82100086Y-143066078D01*
X82066414Y-143167093D01*
X82066414Y-143234437D01*
X82100086Y-143335452D01*
D11*
X82875210Y-146036600D02*
X82309525Y-145470914D01*
X82444212Y-145336227D01*
X82551961Y-145282352D01*
X82659711Y-145282352D01*
X82740523Y-145309290D01*
X82875210Y-145390102D01*
X82956022Y-145470914D01*
X83036834Y-145605601D01*
X83063772Y-145686413D01*
X83063772Y-145794163D01*
X83009897Y-145901913D01*
X82875210Y-146036600D01*
X83737207Y-145174603D02*
X83413958Y-145497852D01*
X83575583Y-145336227D02*
X83009897Y-144770542D01*
X83036834Y-144905229D01*
X83036834Y-145012978D01*
X83009897Y-145093791D01*
X83656395Y-144124044D02*
X83548645Y-144231794D01*
X83521708Y-144312606D01*
X83521708Y-144366481D01*
X83548645Y-144501168D01*
X83629457Y-144635855D01*
X83844957Y-144851354D01*
X83925769Y-144878291D01*
X83979644Y-144878291D01*
X84060456Y-144851354D01*
X84168205Y-144743604D01*
X84195143Y-144662792D01*
X84195143Y-144608917D01*
X84168205Y-144528105D01*
X84033518Y-144393418D01*
X83952706Y-144366481D01*
X83898831Y-144366481D01*
X83818019Y-144393418D01*
X83710270Y-144501168D01*
X83683332Y-144581980D01*
X83683332Y-144635855D01*
X83710270Y-144716667D01*
D12*
X85456261Y-144985368D02*
X84749155Y-144278261D01*
X84917513Y-144109902D01*
X85052200Y-144042559D01*
X85186887Y-144042559D01*
X85287903Y-144076231D01*
X85456261Y-144177246D01*
X85557277Y-144278261D01*
X85658292Y-144446620D01*
X85691964Y-144547635D01*
X85691964Y-144682322D01*
X85624620Y-144817009D01*
X85456261Y-144985368D01*
X86533758Y-143907872D02*
X86129697Y-144311933D01*
X86331727Y-144109902D02*
X85624620Y-143402795D01*
X85658292Y-143571154D01*
X85658292Y-143705841D01*
X85624620Y-143806857D01*
X86466414Y-142561002D02*
X86129697Y-142897719D01*
X86432742Y-143268108D01*
X86432742Y-143200765D01*
X86466414Y-143099750D01*
X86634773Y-142931391D01*
X86735788Y-142897719D01*
X86803132Y-142897719D01*
X86904147Y-142931391D01*
X87072506Y-143099750D01*
X87106177Y-143200765D01*
X87106177Y-143268108D01*
X87072506Y-143369124D01*
X86904147Y-143537482D01*
X86803132Y-143571154D01*
X86735788Y-143571154D01*
D11*
X87275210Y-146036600D02*
X86709525Y-145470914D01*
X86844212Y-145336227D01*
X86951961Y-145282352D01*
X87059711Y-145282352D01*
X87140523Y-145309290D01*
X87275210Y-145390102D01*
X87356022Y-145470914D01*
X87436834Y-145605601D01*
X87463772Y-145686413D01*
X87463772Y-145794163D01*
X87409897Y-145901913D01*
X87275210Y-146036600D01*
X88137207Y-145174603D02*
X87813958Y-145497852D01*
X87975583Y-145336227D02*
X87409897Y-144770542D01*
X87436834Y-144905229D01*
X87436834Y-145012978D01*
X87409897Y-145093791D01*
X88083332Y-144097107D02*
X87813958Y-144366481D01*
X88056395Y-144662792D01*
X88056395Y-144608917D01*
X88083332Y-144528105D01*
X88218019Y-144393418D01*
X88298831Y-144366481D01*
X88352706Y-144366481D01*
X88433518Y-144393418D01*
X88568205Y-144528105D01*
X88595143Y-144608917D01*
X88595143Y-144662792D01*
X88568205Y-144743604D01*
X88433518Y-144878291D01*
X88352706Y-144905229D01*
X88298831Y-144905229D01*
D12*
X79456261Y-137785368D02*
X78749155Y-137078261D01*
X78917513Y-136909902D01*
X79052200Y-136842559D01*
X79186887Y-136842559D01*
X79287903Y-136876231D01*
X79456261Y-136977246D01*
X79557277Y-137078261D01*
X79658292Y-137246620D01*
X79691964Y-137347635D01*
X79691964Y-137482322D01*
X79624620Y-137617009D01*
X79456261Y-137785368D01*
X80533758Y-136707872D02*
X80129697Y-137111933D01*
X80331727Y-136909902D02*
X79624620Y-136202795D01*
X79658292Y-136371154D01*
X79658292Y-136505841D01*
X79624620Y-136606857D01*
X80668445Y-135630376D02*
X81139849Y-136101780D01*
X80230712Y-135529360D02*
X80567429Y-136202795D01*
X81005162Y-135765063D01*
D11*
X81275210Y-138836600D02*
X80709525Y-138270914D01*
X80844212Y-138136227D01*
X80951961Y-138082352D01*
X81059711Y-138082352D01*
X81140523Y-138109290D01*
X81275210Y-138190102D01*
X81356022Y-138270914D01*
X81436834Y-138405601D01*
X81463772Y-138486413D01*
X81463772Y-138594163D01*
X81409897Y-138701913D01*
X81275210Y-138836600D01*
X82137207Y-137974603D02*
X81813958Y-138297852D01*
X81975583Y-138136227D02*
X81409897Y-137570542D01*
X81436834Y-137705229D01*
X81436834Y-137812978D01*
X81409897Y-137893791D01*
X82244957Y-137112606D02*
X82622080Y-137489729D01*
X81894770Y-137031794D02*
X82164144Y-137570542D01*
X82514331Y-137220355D01*
D12*
X83856261Y-137785368D02*
X83149155Y-137078261D01*
X83317513Y-136909902D01*
X83452200Y-136842559D01*
X83586887Y-136842559D01*
X83687903Y-136876231D01*
X83856261Y-136977246D01*
X83957277Y-137078261D01*
X84058292Y-137246620D01*
X84091964Y-137347635D01*
X84091964Y-137482322D01*
X84024620Y-137617009D01*
X83856261Y-137785368D01*
X84933758Y-136707872D02*
X84529697Y-137111933D01*
X84731727Y-136909902D02*
X84024620Y-136202795D01*
X84058292Y-136371154D01*
X84058292Y-136505841D01*
X84024620Y-136606857D01*
X84462353Y-135765063D02*
X84900086Y-135327330D01*
X84933758Y-135832406D01*
X85034773Y-135731391D01*
X85135788Y-135697719D01*
X85203132Y-135697719D01*
X85304147Y-135731391D01*
X85472506Y-135899750D01*
X85506177Y-136000765D01*
X85506177Y-136068108D01*
X85472506Y-136169124D01*
X85270475Y-136371154D01*
X85169460Y-136404826D01*
X85102116Y-136404826D01*
D11*
X85675210Y-138836600D02*
X85109525Y-138270914D01*
X85244212Y-138136227D01*
X85351961Y-138082352D01*
X85459711Y-138082352D01*
X85540523Y-138109290D01*
X85675210Y-138190102D01*
X85756022Y-138270914D01*
X85836834Y-138405601D01*
X85863772Y-138486413D01*
X85863772Y-138594163D01*
X85809897Y-138701913D01*
X85675210Y-138836600D01*
X86537207Y-137974603D02*
X86213958Y-138297852D01*
X86375583Y-138136227D02*
X85809897Y-137570542D01*
X85836834Y-137705229D01*
X85836834Y-137812978D01*
X85809897Y-137893791D01*
X86160083Y-137220355D02*
X86510270Y-136870169D01*
X86537207Y-137274230D01*
X86618019Y-137193418D01*
X86698831Y-137166481D01*
X86752706Y-137166481D01*
X86833518Y-137193418D01*
X86968205Y-137328105D01*
X86995143Y-137408917D01*
X86995143Y-137462792D01*
X86968205Y-137543604D01*
X86806581Y-137705229D01*
X86725769Y-137732166D01*
X86671894Y-137732166D01*
D12*
X88256261Y-137785368D02*
X87549155Y-137078261D01*
X87717513Y-136909902D01*
X87852200Y-136842559D01*
X87986887Y-136842559D01*
X88087903Y-136876231D01*
X88256261Y-136977246D01*
X88357277Y-137078261D01*
X88458292Y-137246620D01*
X88491964Y-137347635D01*
X88491964Y-137482322D01*
X88424620Y-137617009D01*
X88256261Y-137785368D01*
X89333758Y-136707872D02*
X88929697Y-137111933D01*
X89131727Y-136909902D02*
X88424620Y-136202795D01*
X88458292Y-136371154D01*
X88458292Y-136505841D01*
X88424620Y-136606857D01*
X88963368Y-135798734D02*
X88963368Y-135731391D01*
X88997040Y-135630376D01*
X89165399Y-135462017D01*
X89266414Y-135428345D01*
X89333758Y-135428345D01*
X89434773Y-135462017D01*
X89502116Y-135529360D01*
X89569460Y-135664047D01*
X89569460Y-136472169D01*
X90007193Y-136034437D01*
D11*
X90075210Y-138836600D02*
X89509525Y-138270914D01*
X89644212Y-138136227D01*
X89751961Y-138082352D01*
X89859711Y-138082352D01*
X89940523Y-138109290D01*
X90075210Y-138190102D01*
X90156022Y-138270914D01*
X90236834Y-138405601D01*
X90263772Y-138486413D01*
X90263772Y-138594163D01*
X90209897Y-138701913D01*
X90075210Y-138836600D01*
X90937207Y-137974603D02*
X90613958Y-138297852D01*
X90775583Y-138136227D02*
X90209897Y-137570542D01*
X90236834Y-137705229D01*
X90236834Y-137812978D01*
X90209897Y-137893791D01*
X90640896Y-137247293D02*
X90640896Y-137193418D01*
X90667833Y-137112606D01*
X90802520Y-136977919D01*
X90883332Y-136950981D01*
X90937207Y-136950981D01*
X91018019Y-136977919D01*
X91071894Y-137031794D01*
X91125769Y-137139543D01*
X91125769Y-137786041D01*
X91475955Y-137435855D01*
D12*
X73456261Y-130585368D02*
X72749155Y-129878261D01*
X72917513Y-129709902D01*
X73052200Y-129642559D01*
X73186887Y-129642559D01*
X73287903Y-129676231D01*
X73456261Y-129777246D01*
X73557277Y-129878261D01*
X73658292Y-130046620D01*
X73691964Y-130147635D01*
X73691964Y-130282322D01*
X73624620Y-130417009D01*
X73456261Y-130585368D01*
X74533758Y-129507872D02*
X74129697Y-129911933D01*
X74331727Y-129709902D02*
X73624620Y-129002795D01*
X73658292Y-129171154D01*
X73658292Y-129305841D01*
X73624620Y-129406857D01*
X75207193Y-128834437D02*
X74803132Y-129238498D01*
X75005162Y-129036467D02*
X74298055Y-128329360D01*
X74331727Y-128497719D01*
X74331727Y-128632406D01*
X74298055Y-128733421D01*
D11*
X75275210Y-131636600D02*
X74709525Y-131070914D01*
X74844212Y-130936227D01*
X74951961Y-130882352D01*
X75059711Y-130882352D01*
X75140523Y-130909290D01*
X75275210Y-130990102D01*
X75356022Y-131070914D01*
X75436834Y-131205601D01*
X75463772Y-131286413D01*
X75463772Y-131394163D01*
X75409897Y-131501913D01*
X75275210Y-131636600D01*
X76137207Y-130774603D02*
X75813958Y-131097852D01*
X75975583Y-130936227D02*
X75409897Y-130370542D01*
X75436834Y-130505229D01*
X75436834Y-130612978D01*
X75409897Y-130693791D01*
X76675955Y-130235855D02*
X76352706Y-130559103D01*
X76514331Y-130397479D02*
X75948645Y-129831794D01*
X75975583Y-129966481D01*
X75975583Y-130074230D01*
X75948645Y-130155042D01*
D12*
X77856261Y-130585368D02*
X77149155Y-129878261D01*
X77317513Y-129709902D01*
X77452200Y-129642559D01*
X77586887Y-129642559D01*
X77687903Y-129676231D01*
X77856261Y-129777246D01*
X77957277Y-129878261D01*
X78058292Y-130046620D01*
X78091964Y-130147635D01*
X78091964Y-130282322D01*
X78024620Y-130417009D01*
X77856261Y-130585368D01*
X78933758Y-129507872D02*
X78529697Y-129911933D01*
X78731727Y-129709902D02*
X78024620Y-129002795D01*
X78058292Y-129171154D01*
X78058292Y-129305841D01*
X78024620Y-129406857D01*
X78664384Y-128363032D02*
X78731727Y-128295689D01*
X78832742Y-128262017D01*
X78900086Y-128262017D01*
X79001101Y-128295689D01*
X79169460Y-128396704D01*
X79337819Y-128565063D01*
X79438834Y-128733421D01*
X79472506Y-128834437D01*
X79472506Y-128901780D01*
X79438834Y-129002795D01*
X79371490Y-129070139D01*
X79270475Y-129103811D01*
X79203132Y-129103811D01*
X79102116Y-129070139D01*
X78933758Y-128969124D01*
X78765399Y-128800765D01*
X78664384Y-128632406D01*
X78630712Y-128531391D01*
X78630712Y-128464047D01*
X78664384Y-128363032D01*
D11*
X79675210Y-131636600D02*
X79109525Y-131070914D01*
X79244212Y-130936227D01*
X79351961Y-130882352D01*
X79459711Y-130882352D01*
X79540523Y-130909290D01*
X79675210Y-130990102D01*
X79756022Y-131070914D01*
X79836834Y-131205601D01*
X79863772Y-131286413D01*
X79863772Y-131394163D01*
X79809897Y-131501913D01*
X79675210Y-131636600D01*
X80537207Y-130774603D02*
X80213958Y-131097852D01*
X80375583Y-130936227D02*
X79809897Y-130370542D01*
X79836834Y-130505229D01*
X79836834Y-130612978D01*
X79809897Y-130693791D01*
X80321708Y-129858731D02*
X80375583Y-129804856D01*
X80456395Y-129777919D01*
X80510270Y-129777919D01*
X80591082Y-129804856D01*
X80725769Y-129885668D01*
X80860456Y-130020355D01*
X80941268Y-130155042D01*
X80968205Y-130235855D01*
X80968205Y-130289729D01*
X80941268Y-130370542D01*
X80887393Y-130424416D01*
X80806581Y-130451354D01*
X80752706Y-130451354D01*
X80671894Y-130424416D01*
X80537207Y-130343604D01*
X80402520Y-130208917D01*
X80321708Y-130074230D01*
X80294770Y-129993418D01*
X80294770Y-129939543D01*
X80321708Y-129858731D01*
D12*
X82592979Y-130248650D02*
X81885872Y-129541544D01*
X82054231Y-129373185D01*
X82188918Y-129305841D01*
X82323605Y-129305841D01*
X82424620Y-129339513D01*
X82592979Y-129440528D01*
X82693994Y-129541544D01*
X82795010Y-129709902D01*
X82828681Y-129810918D01*
X82828681Y-129945605D01*
X82761338Y-130080292D01*
X82592979Y-130248650D01*
X83333758Y-129507872D02*
X83468445Y-129373185D01*
X83502116Y-129272169D01*
X83502116Y-129204826D01*
X83468445Y-129036467D01*
X83367429Y-128868108D01*
X83098055Y-128598734D01*
X82997040Y-128565063D01*
X82929697Y-128565063D01*
X82828681Y-128598734D01*
X82693994Y-128733421D01*
X82660322Y-128834437D01*
X82660322Y-128901780D01*
X82693994Y-129002795D01*
X82862353Y-129171154D01*
X82963368Y-129204826D01*
X83030712Y-129204826D01*
X83131727Y-129171154D01*
X83266414Y-129036467D01*
X83300086Y-128935452D01*
X83300086Y-128868108D01*
X83266414Y-128767093D01*
D11*
X84344584Y-131367226D02*
X83778899Y-130801540D01*
X83913586Y-130666853D01*
X84021335Y-130612978D01*
X84129085Y-130612978D01*
X84209897Y-130639916D01*
X84344584Y-130720728D01*
X84425396Y-130801540D01*
X84506208Y-130936227D01*
X84533146Y-131017039D01*
X84533146Y-131124789D01*
X84479271Y-131232539D01*
X84344584Y-131367226D01*
X84937207Y-130774603D02*
X85044957Y-130666853D01*
X85071894Y-130586041D01*
X85071894Y-130532166D01*
X85044957Y-130397479D01*
X84964144Y-130262792D01*
X84748645Y-130047293D01*
X84667833Y-130020355D01*
X84613958Y-130020355D01*
X84533146Y-130047293D01*
X84425396Y-130155042D01*
X84398459Y-130235855D01*
X84398459Y-130289729D01*
X84425396Y-130370542D01*
X84560083Y-130505229D01*
X84640896Y-130532166D01*
X84694770Y-130532166D01*
X84775583Y-130505229D01*
X84883332Y-130397479D01*
X84910270Y-130316667D01*
X84910270Y-130262792D01*
X84883332Y-130181980D01*
D12*
X86992979Y-130248650D02*
X86285872Y-129541544D01*
X86454231Y-129373185D01*
X86588918Y-129305841D01*
X86723605Y-129305841D01*
X86824620Y-129339513D01*
X86992979Y-129440528D01*
X87093994Y-129541544D01*
X87195010Y-129709902D01*
X87228681Y-129810918D01*
X87228681Y-129945605D01*
X87161338Y-130080292D01*
X86992979Y-130248650D01*
X87397040Y-129036467D02*
X87296025Y-129070139D01*
X87228681Y-129070139D01*
X87127666Y-129036467D01*
X87093994Y-129002795D01*
X87060322Y-128901780D01*
X87060322Y-128834437D01*
X87093994Y-128733421D01*
X87228681Y-128598734D01*
X87329697Y-128565063D01*
X87397040Y-128565063D01*
X87498055Y-128598734D01*
X87531727Y-128632406D01*
X87565399Y-128733421D01*
X87565399Y-128800765D01*
X87531727Y-128901780D01*
X87397040Y-129036467D01*
X87363368Y-129137482D01*
X87363368Y-129204826D01*
X87397040Y-129305841D01*
X87531727Y-129440528D01*
X87632742Y-129474200D01*
X87700086Y-129474200D01*
X87801101Y-129440528D01*
X87935788Y-129305841D01*
X87969460Y-129204826D01*
X87969460Y-129137482D01*
X87935788Y-129036467D01*
X87801101Y-128901780D01*
X87700086Y-128868108D01*
X87632742Y-128868108D01*
X87531727Y-128901780D01*
D11*
X88744584Y-131367226D02*
X88178899Y-130801540D01*
X88313586Y-130666853D01*
X88421335Y-130612978D01*
X88529085Y-130612978D01*
X88609897Y-130639916D01*
X88744584Y-130720728D01*
X88825396Y-130801540D01*
X88906208Y-130936227D01*
X88933146Y-131017039D01*
X88933146Y-131124789D01*
X88879271Y-131232539D01*
X88744584Y-131367226D01*
X89067833Y-130397479D02*
X88987021Y-130424416D01*
X88933146Y-130424416D01*
X88852334Y-130397479D01*
X88825396Y-130370542D01*
X88798459Y-130289729D01*
X88798459Y-130235855D01*
X88825396Y-130155042D01*
X88933146Y-130047293D01*
X89013958Y-130020355D01*
X89067833Y-130020355D01*
X89148645Y-130047293D01*
X89175583Y-130074230D01*
X89202520Y-130155042D01*
X89202520Y-130208917D01*
X89175583Y-130289729D01*
X89067833Y-130397479D01*
X89040896Y-130478291D01*
X89040896Y-130532166D01*
X89067833Y-130612978D01*
X89175583Y-130720728D01*
X89256395Y-130747665D01*
X89310270Y-130747665D01*
X89391082Y-130720728D01*
X89498831Y-130612978D01*
X89525769Y-130532166D01*
X89525769Y-130478291D01*
X89498831Y-130397479D01*
X89391082Y-130289729D01*
X89310270Y-130262792D01*
X89256395Y-130262792D01*
X89175583Y-130289729D01*
D12*
X80992979Y-123048650D02*
X80285872Y-122341544D01*
X80454231Y-122173185D01*
X80588918Y-122105841D01*
X80723605Y-122105841D01*
X80824620Y-122139513D01*
X80992979Y-122240528D01*
X81093994Y-122341544D01*
X81195010Y-122509902D01*
X81228681Y-122610918D01*
X81228681Y-122745605D01*
X81161338Y-122880292D01*
X80992979Y-123048650D01*
X80925635Y-121701780D02*
X81397040Y-121230376D01*
X81801101Y-122240528D01*
D11*
X82744584Y-124167226D02*
X82178899Y-123601540D01*
X82313586Y-123466853D01*
X82421335Y-123412978D01*
X82529085Y-123412978D01*
X82609897Y-123439916D01*
X82744584Y-123520728D01*
X82825396Y-123601540D01*
X82906208Y-123736227D01*
X82933146Y-123817039D01*
X82933146Y-123924789D01*
X82879271Y-124032539D01*
X82744584Y-124167226D01*
X82690709Y-123089729D02*
X83067833Y-122712606D01*
X83391082Y-123520728D01*
D12*
X85392979Y-123048650D02*
X84685872Y-122341544D01*
X84854231Y-122173185D01*
X84988918Y-122105841D01*
X85123605Y-122105841D01*
X85224620Y-122139513D01*
X85392979Y-122240528D01*
X85493994Y-122341544D01*
X85595010Y-122509902D01*
X85628681Y-122610918D01*
X85628681Y-122745605D01*
X85561338Y-122880292D01*
X85392979Y-123048650D01*
X85696025Y-121331391D02*
X85561338Y-121466078D01*
X85527666Y-121567093D01*
X85527666Y-121634437D01*
X85561338Y-121802795D01*
X85662353Y-121971154D01*
X85931727Y-122240528D01*
X86032742Y-122274200D01*
X86100086Y-122274200D01*
X86201101Y-122240528D01*
X86335788Y-122105841D01*
X86369460Y-122004826D01*
X86369460Y-121937482D01*
X86335788Y-121836467D01*
X86167429Y-121668108D01*
X86066414Y-121634437D01*
X85999071Y-121634437D01*
X85898055Y-121668108D01*
X85763368Y-121802795D01*
X85729697Y-121903811D01*
X85729697Y-121971154D01*
X85763368Y-122072169D01*
D11*
X87144584Y-124167226D02*
X86578899Y-123601540D01*
X86713586Y-123466853D01*
X86821335Y-123412978D01*
X86929085Y-123412978D01*
X87009897Y-123439916D01*
X87144584Y-123520728D01*
X87225396Y-123601540D01*
X87306208Y-123736227D01*
X87333146Y-123817039D01*
X87333146Y-123924789D01*
X87279271Y-124032539D01*
X87144584Y-124167226D01*
X87387021Y-122793418D02*
X87279271Y-122901168D01*
X87252334Y-122981980D01*
X87252334Y-123035855D01*
X87279271Y-123170542D01*
X87360083Y-123305229D01*
X87575583Y-123520728D01*
X87656395Y-123547665D01*
X87710270Y-123547665D01*
X87791082Y-123520728D01*
X87898831Y-123412978D01*
X87925769Y-123332166D01*
X87925769Y-123278291D01*
X87898831Y-123197479D01*
X87764144Y-123062792D01*
X87683332Y-123035855D01*
X87629457Y-123035855D01*
X87548645Y-123062792D01*
X87440896Y-123170542D01*
X87413958Y-123251354D01*
X87413958Y-123305229D01*
X87440896Y-123386041D01*
D12*
X89792979Y-123048650D02*
X89085872Y-122341544D01*
X89254231Y-122173185D01*
X89388918Y-122105841D01*
X89523605Y-122105841D01*
X89624620Y-122139513D01*
X89792979Y-122240528D01*
X89893994Y-122341544D01*
X89995010Y-122509902D01*
X90028681Y-122610918D01*
X90028681Y-122745605D01*
X89961338Y-122880292D01*
X89792979Y-123048650D01*
X90129697Y-121297719D02*
X89792979Y-121634437D01*
X90096025Y-122004826D01*
X90096025Y-121937482D01*
X90129697Y-121836467D01*
X90298055Y-121668108D01*
X90399071Y-121634437D01*
X90466414Y-121634437D01*
X90567429Y-121668108D01*
X90735788Y-121836467D01*
X90769460Y-121937482D01*
X90769460Y-122004826D01*
X90735788Y-122105841D01*
X90567429Y-122274200D01*
X90466414Y-122307872D01*
X90399071Y-122307872D01*
D11*
X91544584Y-124167226D02*
X90978899Y-123601540D01*
X91113586Y-123466853D01*
X91221335Y-123412978D01*
X91329085Y-123412978D01*
X91409897Y-123439916D01*
X91544584Y-123520728D01*
X91625396Y-123601540D01*
X91706208Y-123736227D01*
X91733146Y-123817039D01*
X91733146Y-123924789D01*
X91679271Y-124032539D01*
X91544584Y-124167226D01*
X91813958Y-122766481D02*
X91544584Y-123035855D01*
X91787021Y-123332166D01*
X91787021Y-123278291D01*
X91813958Y-123197479D01*
X91948645Y-123062792D01*
X92029457Y-123035855D01*
X92083332Y-123035855D01*
X92164144Y-123062792D01*
X92298831Y-123197479D01*
X92325769Y-123278291D01*
X92325769Y-123332166D01*
X92298831Y-123412978D01*
X92164144Y-123547665D01*
X92083332Y-123574603D01*
X92029457Y-123574603D01*
D12*
X83792979Y-115848650D02*
X83085872Y-115141544D01*
X83254231Y-114973185D01*
X83388918Y-114905841D01*
X83523605Y-114905841D01*
X83624620Y-114939513D01*
X83792979Y-115040528D01*
X83893994Y-115141544D01*
X83995010Y-115309902D01*
X84028681Y-115410918D01*
X84028681Y-115545605D01*
X83961338Y-115680292D01*
X83792979Y-115848650D01*
X83725635Y-114501780D02*
X84163368Y-114064047D01*
X84197040Y-114569124D01*
X84298055Y-114468108D01*
X84399071Y-114434437D01*
X84466414Y-114434437D01*
X84567429Y-114468108D01*
X84735788Y-114636467D01*
X84769460Y-114737482D01*
X84769460Y-114804826D01*
X84735788Y-114905841D01*
X84533758Y-115107872D01*
X84432742Y-115141544D01*
X84365399Y-115141544D01*
D11*
X85544584Y-116967226D02*
X84978899Y-116401540D01*
X85113586Y-116266853D01*
X85221335Y-116212978D01*
X85329085Y-116212978D01*
X85409897Y-116239916D01*
X85544584Y-116320728D01*
X85625396Y-116401540D01*
X85706208Y-116536227D01*
X85733146Y-116617039D01*
X85733146Y-116724789D01*
X85679271Y-116832539D01*
X85544584Y-116967226D01*
X85490709Y-115889729D02*
X85840896Y-115539543D01*
X85867833Y-115943604D01*
X85948645Y-115862792D01*
X86029457Y-115835855D01*
X86083332Y-115835855D01*
X86164144Y-115862792D01*
X86298831Y-115997479D01*
X86325769Y-116078291D01*
X86325769Y-116132166D01*
X86298831Y-116212978D01*
X86137207Y-116374603D01*
X86056395Y-116401540D01*
X86002520Y-116401540D01*
D12*
X88192979Y-115848650D02*
X87485872Y-115141544D01*
X87654231Y-114973185D01*
X87788918Y-114905841D01*
X87923605Y-114905841D01*
X88024620Y-114939513D01*
X88192979Y-115040528D01*
X88293994Y-115141544D01*
X88395010Y-115309902D01*
X88428681Y-115410918D01*
X88428681Y-115545605D01*
X88361338Y-115680292D01*
X88192979Y-115848650D01*
X88226651Y-114535452D02*
X88226651Y-114468108D01*
X88260322Y-114367093D01*
X88428681Y-114198734D01*
X88529697Y-114165063D01*
X88597040Y-114165063D01*
X88698055Y-114198734D01*
X88765399Y-114266078D01*
X88832742Y-114400765D01*
X88832742Y-115208887D01*
X89270475Y-114771154D01*
D11*
X89944584Y-116967226D02*
X89378899Y-116401540D01*
X89513586Y-116266853D01*
X89621335Y-116212978D01*
X89729085Y-116212978D01*
X89809897Y-116239916D01*
X89944584Y-116320728D01*
X90025396Y-116401540D01*
X90106208Y-116536227D01*
X90133146Y-116617039D01*
X90133146Y-116724789D01*
X90079271Y-116832539D01*
X89944584Y-116967226D01*
X89971521Y-115916667D02*
X89971521Y-115862792D01*
X89998459Y-115781980D01*
X90133146Y-115647293D01*
X90213958Y-115620355D01*
X90267833Y-115620355D01*
X90348645Y-115647293D01*
X90402520Y-115701168D01*
X90456395Y-115808917D01*
X90456395Y-116455415D01*
X90806581Y-116105229D01*
D12*
X92592979Y-115848650D02*
X91885872Y-115141544D01*
X92054231Y-114973185D01*
X92188918Y-114905841D01*
X92323605Y-114905841D01*
X92424620Y-114939513D01*
X92592979Y-115040528D01*
X92693994Y-115141544D01*
X92795010Y-115309902D01*
X92828681Y-115410918D01*
X92828681Y-115545605D01*
X92761338Y-115680292D01*
X92592979Y-115848650D01*
X93670475Y-114771154D02*
X93266414Y-115175215D01*
X93468445Y-114973185D02*
X92761338Y-114266078D01*
X92795010Y-114434437D01*
X92795010Y-114569124D01*
X92761338Y-114670139D01*
D11*
X94344584Y-116967226D02*
X93778899Y-116401540D01*
X93913586Y-116266853D01*
X94021335Y-116212978D01*
X94129085Y-116212978D01*
X94209897Y-116239916D01*
X94344584Y-116320728D01*
X94425396Y-116401540D01*
X94506208Y-116536227D01*
X94533146Y-116617039D01*
X94533146Y-116724789D01*
X94479271Y-116832539D01*
X94344584Y-116967226D01*
X95206581Y-116105229D02*
X94883332Y-116428478D01*
X95044957Y-116266853D02*
X94479271Y-115701168D01*
X94506209Y-115835855D01*
X94506209Y-115943604D01*
X94479271Y-116024416D01*
D12*
X83966666Y-85252380D02*
X83966666Y-84252380D01*
X84300000Y-84966666D01*
X84633333Y-84252380D01*
X84633333Y-85252380D01*
X85680952Y-85157142D02*
X85633333Y-85204761D01*
X85490476Y-85252380D01*
X85395238Y-85252380D01*
X85252380Y-85204761D01*
X85157142Y-85109523D01*
X85109523Y-85014285D01*
X85061904Y-84823809D01*
X85061904Y-84680952D01*
X85109523Y-84490476D01*
X85157142Y-84395238D01*
X85252380Y-84300000D01*
X85395238Y-84252380D01*
X85490476Y-84252380D01*
X85633333Y-84300000D01*
X85680952Y-84347619D01*
X86109523Y-84252380D02*
X86109523Y-85061904D01*
X86157142Y-85157142D01*
X86204761Y-85204761D01*
X86300000Y-85252380D01*
X86490476Y-85252380D01*
X86585714Y-85204761D01*
X86633333Y-85157142D01*
X86680952Y-85061904D01*
X86680952Y-84252380D01*
X87680952Y-85252380D02*
X87109523Y-85252380D01*
X87395238Y-85252380D02*
X87395238Y-84252380D01*
X87300000Y-84395238D01*
X87204761Y-84490476D01*
X87109523Y-84538095D01*
D13*
X84883333Y-65896190D02*
X84883333Y-65396190D01*
X85050000Y-65753333D01*
X85216666Y-65396190D01*
X85216666Y-65896190D01*
X85740476Y-65848571D02*
X85716666Y-65872380D01*
X85645238Y-65896190D01*
X85597619Y-65896190D01*
X85526190Y-65872380D01*
X85478571Y-65824761D01*
X85454761Y-65777142D01*
X85430952Y-65681904D01*
X85430952Y-65610476D01*
X85454761Y-65515238D01*
X85478571Y-65467619D01*
X85526190Y-65420000D01*
X85597619Y-65396190D01*
X85645238Y-65396190D01*
X85716666Y-65420000D01*
X85740476Y-65443809D01*
X85954761Y-65396190D02*
X85954761Y-65800952D01*
X85978571Y-65848571D01*
X86002380Y-65872380D01*
X86050000Y-65896190D01*
X86145238Y-65896190D01*
X86192857Y-65872380D01*
X86216666Y-65848571D01*
X86240476Y-65800952D01*
X86240476Y-65396190D01*
X86740476Y-65896190D02*
X86454761Y-65896190D01*
X86597619Y-65896190D02*
X86597619Y-65396190D01*
X86550000Y-65467619D01*
X86502380Y-65515238D01*
X86454761Y-65539047D01*
D12*
X70038095Y-149502380D02*
X70038095Y-148502380D01*
X70038095Y-148978571D02*
X70609523Y-148978571D01*
X70609523Y-149502380D02*
X70609523Y-148502380D01*
X71514285Y-148835714D02*
X71514285Y-149502380D01*
X71276190Y-148454761D02*
X71038095Y-149169047D01*
X71657142Y-149169047D01*
X70338095Y-152702380D02*
X70338095Y-151702380D01*
X70338095Y-152178571D02*
X70909523Y-152178571D01*
X70909523Y-152702380D02*
X70909523Y-151702380D01*
X71814285Y-152035714D02*
X71814285Y-152702380D01*
X71576190Y-151654761D02*
X71338095Y-152369047D01*
X71957142Y-152369047D01*
X70038095Y-58652380D02*
X70038095Y-57652380D01*
X70038095Y-58128571D02*
X70609523Y-58128571D01*
X70609523Y-58652380D02*
X70609523Y-57652380D01*
X70990476Y-57652380D02*
X71609523Y-57652380D01*
X71276190Y-58033333D01*
X71419047Y-58033333D01*
X71514285Y-58080952D01*
X71561904Y-58128571D01*
X71609523Y-58223809D01*
X71609523Y-58461904D01*
X71561904Y-58557142D01*
X71514285Y-58604761D01*
X71419047Y-58652380D01*
X71133333Y-58652380D01*
X71038095Y-58604761D01*
X70990476Y-58557142D01*
X70338095Y-61852380D02*
X70338095Y-60852380D01*
X70338095Y-61328571D02*
X70909523Y-61328571D01*
X70909523Y-61852380D02*
X70909523Y-60852380D01*
X71290476Y-60852380D02*
X71909523Y-60852380D01*
X71576190Y-61233333D01*
X71719047Y-61233333D01*
X71814285Y-61280952D01*
X71861904Y-61328571D01*
X71909523Y-61423809D01*
X71909523Y-61661904D01*
X71861904Y-61757142D01*
X71814285Y-61804761D01*
X71719047Y-61852380D01*
X71433333Y-61852380D01*
X71338095Y-61804761D01*
X71290476Y-61757142D01*
X176638095Y-149252380D02*
X176638095Y-148252380D01*
X176638095Y-148728571D02*
X177209523Y-148728571D01*
X177209523Y-149252380D02*
X177209523Y-148252380D01*
X177638095Y-148347619D02*
X177685714Y-148300000D01*
X177780952Y-148252380D01*
X178019047Y-148252380D01*
X178114285Y-148300000D01*
X178161904Y-148347619D01*
X178209523Y-148442857D01*
X178209523Y-148538095D01*
X178161904Y-148680952D01*
X177590476Y-149252380D01*
X178209523Y-149252380D01*
X176938095Y-152452380D02*
X176938095Y-151452380D01*
X176938095Y-151928571D02*
X177509523Y-151928571D01*
X177509523Y-152452380D02*
X177509523Y-151452380D01*
X177938095Y-151547619D02*
X177985714Y-151500000D01*
X178080952Y-151452380D01*
X178319047Y-151452380D01*
X178414285Y-151500000D01*
X178461904Y-151547619D01*
X178509523Y-151642857D01*
X178509523Y-151738095D01*
X178461904Y-151880952D01*
X177890476Y-152452380D01*
X178509523Y-152452380D01*
X176638095Y-58652380D02*
X176638095Y-57652380D01*
X176638095Y-58128571D02*
X177209523Y-58128571D01*
X177209523Y-58652380D02*
X177209523Y-57652380D01*
X178209523Y-58652380D02*
X177638095Y-58652380D01*
X177923809Y-58652380D02*
X177923809Y-57652380D01*
X177828571Y-57795238D01*
X177733333Y-57890476D01*
X177638095Y-57938095D01*
X118238095Y-147627380D02*
X118238095Y-146627380D01*
X118571428Y-147341666D01*
X118904761Y-146627380D01*
X118904761Y-147627380D01*
X119285714Y-146627380D02*
X119952380Y-147627380D01*
X119952380Y-146627380D02*
X119285714Y-147627380D01*
X120857142Y-147627380D02*
X120285714Y-147627380D01*
X120571428Y-147627380D02*
X120571428Y-146627380D01*
X120476190Y-146770238D01*
X120380952Y-146865476D01*
X120285714Y-146913095D01*
X121761904Y-146627380D02*
X121285714Y-146627380D01*
X121238095Y-147103571D01*
X121285714Y-147055952D01*
X121380952Y-147008333D01*
X121619047Y-147008333D01*
X121714285Y-147055952D01*
X121761904Y-147103571D01*
X121809523Y-147198809D01*
X121809523Y-147436904D01*
X121761904Y-147532142D01*
X121714285Y-147579761D01*
X121619047Y-147627380D01*
X121380952Y-147627380D01*
X121285714Y-147579761D01*
X121238095Y-147532142D01*
X171127380Y-136261904D02*
X170127380Y-136261904D01*
X170841666Y-135928571D01*
X170127380Y-135595238D01*
X171127380Y-135595238D01*
X170127380Y-135214285D02*
X171127380Y-134547619D01*
X170127380Y-134547619D02*
X171127380Y-135214285D01*
X171127380Y-133642857D02*
X171127380Y-134214285D01*
X171127380Y-133928571D02*
X170127380Y-133928571D01*
X170270238Y-134023809D01*
X170365476Y-134119047D01*
X170413095Y-134214285D01*
X170127380Y-133309523D02*
X170127380Y-132642857D01*
X171127380Y-133071428D01*
X146738095Y-147627380D02*
X146738095Y-146627380D01*
X147071428Y-147341666D01*
X147404761Y-146627380D01*
X147404761Y-147627380D01*
X147785714Y-146627380D02*
X148452380Y-147627380D01*
X148452380Y-146627380D02*
X147785714Y-147627380D01*
X149357142Y-147627380D02*
X148785714Y-147627380D01*
X149071428Y-147627380D02*
X149071428Y-146627380D01*
X148976190Y-146770238D01*
X148880952Y-146865476D01*
X148785714Y-146913095D01*
X150214285Y-146627380D02*
X150023809Y-146627380D01*
X149928571Y-146675000D01*
X149880952Y-146722619D01*
X149785714Y-146865476D01*
X149738095Y-147055952D01*
X149738095Y-147436904D01*
X149785714Y-147532142D01*
X149833333Y-147579761D01*
X149928571Y-147627380D01*
X150119047Y-147627380D01*
X150214285Y-147579761D01*
X150261904Y-147532142D01*
X150309523Y-147436904D01*
X150309523Y-147198809D01*
X150261904Y-147103571D01*
X150214285Y-147055952D01*
X150119047Y-147008333D01*
X149928571Y-147008333D01*
X149833333Y-147055952D01*
X149785714Y-147103571D01*
X149738095Y-147198809D01*
X146738095Y-128627380D02*
X146738095Y-127627380D01*
X147071428Y-128341666D01*
X147404761Y-127627380D01*
X147404761Y-128627380D01*
X147785714Y-127627380D02*
X148452380Y-128627380D01*
X148452380Y-127627380D02*
X147785714Y-128627380D01*
X149357142Y-128627380D02*
X148785714Y-128627380D01*
X149071428Y-128627380D02*
X149071428Y-127627380D01*
X148976190Y-127770238D01*
X148880952Y-127865476D01*
X148785714Y-127913095D01*
X150214285Y-127960714D02*
X150214285Y-128627380D01*
X149976190Y-127579761D02*
X149738095Y-128294047D01*
X150357142Y-128294047D01*
X127738095Y-128627380D02*
X127738095Y-127627380D01*
X128071428Y-128341666D01*
X128404761Y-127627380D01*
X128404761Y-128627380D01*
X128785714Y-127627380D02*
X129452380Y-128627380D01*
X129452380Y-127627380D02*
X128785714Y-128627380D01*
X130357142Y-128627380D02*
X129785714Y-128627380D01*
X130071428Y-128627380D02*
X130071428Y-127627380D01*
X129976190Y-127770238D01*
X129880952Y-127865476D01*
X129785714Y-127913095D01*
X130690476Y-127627380D02*
X131309523Y-127627380D01*
X130976190Y-128008333D01*
X131119047Y-128008333D01*
X131214285Y-128055952D01*
X131261904Y-128103571D01*
X131309523Y-128198809D01*
X131309523Y-128436904D01*
X131261904Y-128532142D01*
X131214285Y-128579761D01*
X131119047Y-128627380D01*
X130833333Y-128627380D01*
X130738095Y-128579761D01*
X130690476Y-128532142D01*
X108738095Y-128627380D02*
X108738095Y-127627380D01*
X109071428Y-128341666D01*
X109404761Y-127627380D01*
X109404761Y-128627380D01*
X109785714Y-127627380D02*
X110452380Y-128627380D01*
X110452380Y-127627380D02*
X109785714Y-128627380D01*
X111357142Y-128627380D02*
X110785714Y-128627380D01*
X111071428Y-128627380D02*
X111071428Y-127627380D01*
X110976190Y-127770238D01*
X110880952Y-127865476D01*
X110785714Y-127913095D01*
X111738095Y-127722619D02*
X111785714Y-127675000D01*
X111880952Y-127627380D01*
X112119047Y-127627380D01*
X112214285Y-127675000D01*
X112261904Y-127722619D01*
X112309523Y-127817857D01*
X112309523Y-127913095D01*
X112261904Y-128055952D01*
X111690476Y-128627380D01*
X112309523Y-128627380D01*
X171127380Y-98261904D02*
X170127380Y-98261904D01*
X170841666Y-97928571D01*
X170127380Y-97595238D01*
X171127380Y-97595238D01*
X170127380Y-97214285D02*
X171127380Y-96547619D01*
X170127380Y-96547619D02*
X171127380Y-97214285D01*
X171127380Y-95642857D02*
X171127380Y-96214285D01*
X171127380Y-95928571D02*
X170127380Y-95928571D01*
X170270238Y-96023809D01*
X170365476Y-96119047D01*
X170413095Y-96214285D01*
X171127380Y-94690476D02*
X171127380Y-95261904D01*
X171127380Y-94976190D02*
X170127380Y-94976190D01*
X170270238Y-95071428D01*
X170365476Y-95166666D01*
X170413095Y-95261904D01*
X146738095Y-109627380D02*
X146738095Y-108627380D01*
X147071428Y-109341666D01*
X147404761Y-108627380D01*
X147404761Y-109627380D01*
X147785714Y-108627380D02*
X148452380Y-109627380D01*
X148452380Y-108627380D02*
X147785714Y-109627380D01*
X149357142Y-109627380D02*
X148785714Y-109627380D01*
X149071428Y-109627380D02*
X149071428Y-108627380D01*
X148976190Y-108770238D01*
X148880952Y-108865476D01*
X148785714Y-108913095D01*
X149976190Y-108627380D02*
X150071428Y-108627380D01*
X150166666Y-108675000D01*
X150214285Y-108722619D01*
X150261904Y-108817857D01*
X150309523Y-109008333D01*
X150309523Y-109246428D01*
X150261904Y-109436904D01*
X150214285Y-109532142D01*
X150166666Y-109579761D01*
X150071428Y-109627380D01*
X149976190Y-109627380D01*
X149880952Y-109579761D01*
X149833333Y-109532142D01*
X149785714Y-109436904D01*
X149738095Y-109246428D01*
X149738095Y-109008333D01*
X149785714Y-108817857D01*
X149833333Y-108722619D01*
X149880952Y-108675000D01*
X149976190Y-108627380D01*
X128214285Y-109627380D02*
X128214285Y-108627380D01*
X128547619Y-109341666D01*
X128880952Y-108627380D01*
X128880952Y-109627380D01*
X129261904Y-108627380D02*
X129928571Y-109627380D01*
X129928571Y-108627380D02*
X129261904Y-109627380D01*
X130357142Y-109627380D02*
X130547619Y-109627380D01*
X130642857Y-109579761D01*
X130690476Y-109532142D01*
X130785714Y-109389285D01*
X130833333Y-109198809D01*
X130833333Y-108817857D01*
X130785714Y-108722619D01*
X130738095Y-108675000D01*
X130642857Y-108627380D01*
X130452380Y-108627380D01*
X130357142Y-108675000D01*
X130309523Y-108722619D01*
X130261904Y-108817857D01*
X130261904Y-109055952D01*
X130309523Y-109151190D01*
X130357142Y-109198809D01*
X130452380Y-109246428D01*
X130642857Y-109246428D01*
X130738095Y-109198809D01*
X130785714Y-109151190D01*
X130833333Y-109055952D01*
X109214285Y-109627380D02*
X109214285Y-108627380D01*
X109547619Y-109341666D01*
X109880952Y-108627380D01*
X109880952Y-109627380D01*
X110261904Y-108627380D02*
X110928571Y-109627380D01*
X110928571Y-108627380D02*
X110261904Y-109627380D01*
X111452380Y-109055952D02*
X111357142Y-109008333D01*
X111309523Y-108960714D01*
X111261904Y-108865476D01*
X111261904Y-108817857D01*
X111309523Y-108722619D01*
X111357142Y-108675000D01*
X111452380Y-108627380D01*
X111642857Y-108627380D01*
X111738095Y-108675000D01*
X111785714Y-108722619D01*
X111833333Y-108817857D01*
X111833333Y-108865476D01*
X111785714Y-108960714D01*
X111738095Y-109008333D01*
X111642857Y-109055952D01*
X111452380Y-109055952D01*
X111357142Y-109103571D01*
X111309523Y-109151190D01*
X111261904Y-109246428D01*
X111261904Y-109436904D01*
X111309523Y-109532142D01*
X111357142Y-109579761D01*
X111452380Y-109627380D01*
X111642857Y-109627380D01*
X111738095Y-109579761D01*
X111785714Y-109532142D01*
X111833333Y-109436904D01*
X111833333Y-109246428D01*
X111785714Y-109151190D01*
X111738095Y-109103571D01*
X111642857Y-109055952D01*
X147214285Y-90627380D02*
X147214285Y-89627380D01*
X147547619Y-90341666D01*
X147880952Y-89627380D01*
X147880952Y-90627380D01*
X148261904Y-89627380D02*
X148928571Y-90627380D01*
X148928571Y-89627380D02*
X148261904Y-90627380D01*
X149214285Y-89627380D02*
X149880952Y-89627380D01*
X149452380Y-90627380D01*
X128214285Y-90627380D02*
X128214285Y-89627380D01*
X128547619Y-90341666D01*
X128880952Y-89627380D01*
X128880952Y-90627380D01*
X129261904Y-89627380D02*
X129928571Y-90627380D01*
X129928571Y-89627380D02*
X129261904Y-90627380D01*
X130738095Y-89627380D02*
X130547619Y-89627380D01*
X130452380Y-89675000D01*
X130404761Y-89722619D01*
X130309523Y-89865476D01*
X130261904Y-90055952D01*
X130261904Y-90436904D01*
X130309523Y-90532142D01*
X130357142Y-90579761D01*
X130452380Y-90627380D01*
X130642857Y-90627380D01*
X130738095Y-90579761D01*
X130785714Y-90532142D01*
X130833333Y-90436904D01*
X130833333Y-90198809D01*
X130785714Y-90103571D01*
X130738095Y-90055952D01*
X130642857Y-90008333D01*
X130452380Y-90008333D01*
X130357142Y-90055952D01*
X130309523Y-90103571D01*
X130261904Y-90198809D01*
X109214285Y-90627380D02*
X109214285Y-89627380D01*
X109547619Y-90341666D01*
X109880952Y-89627380D01*
X109880952Y-90627380D01*
X110261904Y-89627380D02*
X110928571Y-90627380D01*
X110928571Y-89627380D02*
X110261904Y-90627380D01*
X111785714Y-89627380D02*
X111309523Y-89627380D01*
X111261904Y-90103571D01*
X111309523Y-90055952D01*
X111404761Y-90008333D01*
X111642857Y-90008333D01*
X111738095Y-90055952D01*
X111785714Y-90103571D01*
X111833333Y-90198809D01*
X111833333Y-90436904D01*
X111785714Y-90532142D01*
X111738095Y-90579761D01*
X111642857Y-90627380D01*
X111404761Y-90627380D01*
X111309523Y-90579761D01*
X111261904Y-90532142D01*
X166214285Y-71627380D02*
X166214285Y-70627380D01*
X166547619Y-71341666D01*
X166880952Y-70627380D01*
X166880952Y-71627380D01*
X167261904Y-70627380D02*
X167928571Y-71627380D01*
X167928571Y-70627380D02*
X167261904Y-71627380D01*
X168738095Y-70960714D02*
X168738095Y-71627380D01*
X168500000Y-70579761D02*
X168261904Y-71294047D01*
X168880952Y-71294047D01*
X147214285Y-71627380D02*
X147214285Y-70627380D01*
X147547619Y-71341666D01*
X147880952Y-70627380D01*
X147880952Y-71627380D01*
X148261904Y-70627380D02*
X148928571Y-71627380D01*
X148928571Y-70627380D02*
X148261904Y-71627380D01*
X149214285Y-70627380D02*
X149833333Y-70627380D01*
X149500000Y-71008333D01*
X149642857Y-71008333D01*
X149738095Y-71055952D01*
X149785714Y-71103571D01*
X149833333Y-71198809D01*
X149833333Y-71436904D01*
X149785714Y-71532142D01*
X149738095Y-71579761D01*
X149642857Y-71627380D01*
X149357142Y-71627380D01*
X149261904Y-71579761D01*
X149214285Y-71532142D01*
X128214285Y-71627380D02*
X128214285Y-70627380D01*
X128547619Y-71341666D01*
X128880952Y-70627380D01*
X128880952Y-71627380D01*
X129261904Y-70627380D02*
X129928571Y-71627380D01*
X129928571Y-70627380D02*
X129261904Y-71627380D01*
X130261904Y-70722619D02*
X130309523Y-70675000D01*
X130404761Y-70627380D01*
X130642857Y-70627380D01*
X130738095Y-70675000D01*
X130785714Y-70722619D01*
X130833333Y-70817857D01*
X130833333Y-70913095D01*
X130785714Y-71055952D01*
X130214285Y-71627380D01*
X130833333Y-71627380D01*
X109214285Y-71627380D02*
X109214285Y-70627380D01*
X109547619Y-71341666D01*
X109880952Y-70627380D01*
X109880952Y-71627380D01*
X110261904Y-70627380D02*
X110928571Y-71627380D01*
X110928571Y-70627380D02*
X110261904Y-71627380D01*
X111833333Y-71627380D02*
X111261904Y-71627380D01*
X111547619Y-71627380D02*
X111547619Y-70627380D01*
X111452380Y-70770238D01*
X111357142Y-70865476D01*
X111261904Y-70913095D01*
M02*
