G04 #@! TF.GenerationSoftware,KiCad,Pcbnew,(5.1.10)-1*
G04 #@! TF.CreationDate,2021-09-20T14:50:31+01:00*
G04 #@! TF.ProjectId,env-npd,656e762d-6e70-4642-9e6b-696361645f70,rev?*
G04 #@! TF.SameCoordinates,Original*
G04 #@! TF.FileFunction,Soldermask,Bot*
G04 #@! TF.FilePolarity,Negative*
%FSLAX46Y46*%
G04 Gerber Fmt 4.6, Leading zero omitted, Abs format (unit mm)*
G04 Created by KiCad (PCBNEW (5.1.10)-1) date 2021-09-20 14:50:31*
%MOMM*%
%LPD*%
G01*
G04 APERTURE LIST*
%ADD10C,0.150000*%
%ADD11C,0.100000*%
%ADD12O,1.700000X1.700000*%
%ADD13R,1.700000X1.700000*%
%ADD14C,2.200000*%
%ADD15C,2.250000*%
%ADD16C,3.987800*%
%ADD17C,1.750000*%
%ADD18C,3.048000*%
G04 APERTURE END LIST*
D10*
X174619047Y-59752380D02*
X174047619Y-59752380D01*
X174333333Y-60752380D02*
X174333333Y-59752380D01*
X173571428Y-60752380D02*
X173666666Y-60704761D01*
X173714285Y-60657142D01*
X173761904Y-60561904D01*
X173761904Y-60276190D01*
X173714285Y-60180952D01*
X173666666Y-60133333D01*
X173571428Y-60085714D01*
X173428571Y-60085714D01*
X173333333Y-60133333D01*
X173285714Y-60180952D01*
X173238095Y-60276190D01*
X173238095Y-60561904D01*
X173285714Y-60657142D01*
X173333333Y-60704761D01*
X173428571Y-60752380D01*
X173571428Y-60752380D01*
X172809523Y-60752380D02*
X172809523Y-59752380D01*
X172380952Y-60752380D02*
X172380952Y-60228571D01*
X172428571Y-60133333D01*
X172523809Y-60085714D01*
X172666666Y-60085714D01*
X172761904Y-60133333D01*
X172809523Y-60180952D01*
X171952380Y-60704761D02*
X171857142Y-60752380D01*
X171666666Y-60752380D01*
X171571428Y-60704761D01*
X171523809Y-60609523D01*
X171523809Y-60561904D01*
X171571428Y-60466666D01*
X171666666Y-60419047D01*
X171809523Y-60419047D01*
X171904761Y-60371428D01*
X171952380Y-60276190D01*
X171952380Y-60228571D01*
X171904761Y-60133333D01*
X171809523Y-60085714D01*
X171666666Y-60085714D01*
X171571428Y-60133333D01*
X171238095Y-60085714D02*
X170857142Y-60085714D01*
X171095238Y-59752380D02*
X171095238Y-60609523D01*
X171047619Y-60704761D01*
X170952380Y-60752380D01*
X170857142Y-60752380D01*
X170142857Y-60704761D02*
X170238095Y-60752380D01*
X170428571Y-60752380D01*
X170523809Y-60704761D01*
X170571428Y-60609523D01*
X170571428Y-60228571D01*
X170523809Y-60133333D01*
X170428571Y-60085714D01*
X170238095Y-60085714D01*
X170142857Y-60133333D01*
X170095238Y-60228571D01*
X170095238Y-60323809D01*
X170571428Y-60419047D01*
X169666666Y-60752380D02*
X169666666Y-60085714D01*
X169666666Y-60276190D02*
X169619047Y-60180952D01*
X169571428Y-60133333D01*
X169476190Y-60085714D01*
X169380952Y-60085714D01*
G36*
G01*
X82622469Y-114377531D02*
X82622469Y-114377531D01*
G75*
G02*
X82622469Y-113246161I565685J565685D01*
G01*
X82622469Y-113246161D01*
G75*
G02*
X83753839Y-113246161I565685J-565685D01*
G01*
X83753839Y-113246161D01*
G75*
G02*
X83753839Y-114377531I-565685J-565685D01*
G01*
X83753839Y-114377531D01*
G75*
G02*
X82622469Y-114377531I-565685J565685D01*
G01*
G37*
D11*
G36*
X77800000Y-120331371D02*
G01*
X76668629Y-119200000D01*
X77800000Y-118068629D01*
X78931371Y-119200000D01*
X77800000Y-120331371D01*
G37*
G36*
G01*
X80822469Y-143177531D02*
X80822469Y-143177531D01*
G75*
G02*
X80822469Y-142046161I565685J565685D01*
G01*
X80822469Y-142046161D01*
G75*
G02*
X81953839Y-142046161I565685J-565685D01*
G01*
X81953839Y-142046161D01*
G75*
G02*
X81953839Y-143177531I-565685J-565685D01*
G01*
X81953839Y-143177531D01*
G75*
G02*
X80822469Y-143177531I-565685J565685D01*
G01*
G37*
G36*
X76000000Y-149131371D02*
G01*
X74868629Y-148000000D01*
X76000000Y-146868629D01*
X77131371Y-148000000D01*
X76000000Y-149131371D01*
G37*
G36*
G01*
X85222469Y-143177531D02*
X85222469Y-143177531D01*
G75*
G02*
X85222469Y-142046161I565685J565685D01*
G01*
X85222469Y-142046161D01*
G75*
G02*
X86353839Y-142046161I565685J-565685D01*
G01*
X86353839Y-142046161D01*
G75*
G02*
X86353839Y-143177531I-565685J-565685D01*
G01*
X86353839Y-143177531D01*
G75*
G02*
X85222469Y-143177531I-565685J565685D01*
G01*
G37*
G36*
X80400000Y-149131371D02*
G01*
X79268629Y-148000000D01*
X80400000Y-146868629D01*
X81531371Y-148000000D01*
X80400000Y-149131371D01*
G37*
G36*
G01*
X89622469Y-143177531D02*
X89622469Y-143177531D01*
G75*
G02*
X89622469Y-142046161I565685J565685D01*
G01*
X89622469Y-142046161D01*
G75*
G02*
X90753839Y-142046161I565685J-565685D01*
G01*
X90753839Y-142046161D01*
G75*
G02*
X90753839Y-143177531I-565685J-565685D01*
G01*
X90753839Y-143177531D01*
G75*
G02*
X89622469Y-143177531I-565685J565685D01*
G01*
G37*
G36*
X84800000Y-149131371D02*
G01*
X83668629Y-148000000D01*
X84800000Y-146868629D01*
X85931371Y-148000000D01*
X84800000Y-149131371D01*
G37*
G36*
G01*
X83622469Y-135977531D02*
X83622469Y-135977531D01*
G75*
G02*
X83622469Y-134846161I565685J565685D01*
G01*
X83622469Y-134846161D01*
G75*
G02*
X84753839Y-134846161I565685J-565685D01*
G01*
X84753839Y-134846161D01*
G75*
G02*
X84753839Y-135977531I-565685J-565685D01*
G01*
X84753839Y-135977531D01*
G75*
G02*
X83622469Y-135977531I-565685J565685D01*
G01*
G37*
G36*
X78800000Y-141931371D02*
G01*
X77668629Y-140800000D01*
X78800000Y-139668629D01*
X79931371Y-140800000D01*
X78800000Y-141931371D01*
G37*
G36*
G01*
X88022469Y-135977531D02*
X88022469Y-135977531D01*
G75*
G02*
X88022469Y-134846161I565685J565685D01*
G01*
X88022469Y-134846161D01*
G75*
G02*
X89153839Y-134846161I565685J-565685D01*
G01*
X89153839Y-134846161D01*
G75*
G02*
X89153839Y-135977531I-565685J-565685D01*
G01*
X89153839Y-135977531D01*
G75*
G02*
X88022469Y-135977531I-565685J565685D01*
G01*
G37*
G36*
X83200000Y-141931371D02*
G01*
X82068629Y-140800000D01*
X83200000Y-139668629D01*
X84331371Y-140800000D01*
X83200000Y-141931371D01*
G37*
G36*
G01*
X92422469Y-135977531D02*
X92422469Y-135977531D01*
G75*
G02*
X92422469Y-134846161I565685J565685D01*
G01*
X92422469Y-134846161D01*
G75*
G02*
X93553839Y-134846161I565685J-565685D01*
G01*
X93553839Y-134846161D01*
G75*
G02*
X93553839Y-135977531I-565685J-565685D01*
G01*
X93553839Y-135977531D01*
G75*
G02*
X92422469Y-135977531I-565685J565685D01*
G01*
G37*
G36*
X87600000Y-141931371D02*
G01*
X86468629Y-140800000D01*
X87600000Y-139668629D01*
X88731371Y-140800000D01*
X87600000Y-141931371D01*
G37*
G36*
G01*
X77622469Y-128777531D02*
X77622469Y-128777531D01*
G75*
G02*
X77622469Y-127646161I565685J565685D01*
G01*
X77622469Y-127646161D01*
G75*
G02*
X78753839Y-127646161I565685J-565685D01*
G01*
X78753839Y-127646161D01*
G75*
G02*
X78753839Y-128777531I-565685J-565685D01*
G01*
X78753839Y-128777531D01*
G75*
G02*
X77622469Y-128777531I-565685J565685D01*
G01*
G37*
G36*
X72800000Y-134731371D02*
G01*
X71668629Y-133600000D01*
X72800000Y-132468629D01*
X73931371Y-133600000D01*
X72800000Y-134731371D01*
G37*
G36*
G01*
X82022469Y-128777531D02*
X82022469Y-128777531D01*
G75*
G02*
X82022469Y-127646161I565685J565685D01*
G01*
X82022469Y-127646161D01*
G75*
G02*
X83153839Y-127646161I565685J-565685D01*
G01*
X83153839Y-127646161D01*
G75*
G02*
X83153839Y-128777531I-565685J-565685D01*
G01*
X83153839Y-128777531D01*
G75*
G02*
X82022469Y-128777531I-565685J565685D01*
G01*
G37*
G36*
X77200000Y-134731371D02*
G01*
X76068629Y-133600000D01*
X77200000Y-132468629D01*
X78331371Y-133600000D01*
X77200000Y-134731371D01*
G37*
G36*
G01*
X86422469Y-128777531D02*
X86422469Y-128777531D01*
G75*
G02*
X86422469Y-127646161I565685J565685D01*
G01*
X86422469Y-127646161D01*
G75*
G02*
X87553839Y-127646161I565685J-565685D01*
G01*
X87553839Y-127646161D01*
G75*
G02*
X87553839Y-128777531I-565685J-565685D01*
G01*
X87553839Y-128777531D01*
G75*
G02*
X86422469Y-128777531I-565685J565685D01*
G01*
G37*
G36*
X81600000Y-134731371D02*
G01*
X80468629Y-133600000D01*
X81600000Y-132468629D01*
X82731371Y-133600000D01*
X81600000Y-134731371D01*
G37*
G36*
G01*
X90822469Y-128777531D02*
X90822469Y-128777531D01*
G75*
G02*
X90822469Y-127646161I565685J565685D01*
G01*
X90822469Y-127646161D01*
G75*
G02*
X91953839Y-127646161I565685J-565685D01*
G01*
X91953839Y-127646161D01*
G75*
G02*
X91953839Y-128777531I-565685J-565685D01*
G01*
X91953839Y-128777531D01*
G75*
G02*
X90822469Y-128777531I-565685J565685D01*
G01*
G37*
G36*
X86000000Y-134731371D02*
G01*
X84868629Y-133600000D01*
X86000000Y-132468629D01*
X87131371Y-133600000D01*
X86000000Y-134731371D01*
G37*
G36*
G01*
X84822469Y-121577531D02*
X84822469Y-121577531D01*
G75*
G02*
X84822469Y-120446161I565685J565685D01*
G01*
X84822469Y-120446161D01*
G75*
G02*
X85953839Y-120446161I565685J-565685D01*
G01*
X85953839Y-120446161D01*
G75*
G02*
X85953839Y-121577531I-565685J-565685D01*
G01*
X85953839Y-121577531D01*
G75*
G02*
X84822469Y-121577531I-565685J565685D01*
G01*
G37*
G36*
X80000000Y-127531371D02*
G01*
X78868629Y-126400000D01*
X80000000Y-125268629D01*
X81131371Y-126400000D01*
X80000000Y-127531371D01*
G37*
G36*
G01*
X89222469Y-121577531D02*
X89222469Y-121577531D01*
G75*
G02*
X89222469Y-120446161I565685J565685D01*
G01*
X89222469Y-120446161D01*
G75*
G02*
X90353839Y-120446161I565685J-565685D01*
G01*
X90353839Y-120446161D01*
G75*
G02*
X90353839Y-121577531I-565685J-565685D01*
G01*
X90353839Y-121577531D01*
G75*
G02*
X89222469Y-121577531I-565685J565685D01*
G01*
G37*
G36*
X84400000Y-127531371D02*
G01*
X83268629Y-126400000D01*
X84400000Y-125268629D01*
X85531371Y-126400000D01*
X84400000Y-127531371D01*
G37*
G36*
G01*
X93622469Y-121577531D02*
X93622469Y-121577531D01*
G75*
G02*
X93622469Y-120446161I565685J565685D01*
G01*
X93622469Y-120446161D01*
G75*
G02*
X94753839Y-120446161I565685J-565685D01*
G01*
X94753839Y-120446161D01*
G75*
G02*
X94753839Y-121577531I-565685J-565685D01*
G01*
X94753839Y-121577531D01*
G75*
G02*
X93622469Y-121577531I-565685J565685D01*
G01*
G37*
G36*
X88800000Y-127531371D02*
G01*
X87668629Y-126400000D01*
X88800000Y-125268629D01*
X89931371Y-126400000D01*
X88800000Y-127531371D01*
G37*
G36*
G01*
X87622469Y-114377531D02*
X87622469Y-114377531D01*
G75*
G02*
X87622469Y-113246161I565685J565685D01*
G01*
X87622469Y-113246161D01*
G75*
G02*
X88753839Y-113246161I565685J-565685D01*
G01*
X88753839Y-113246161D01*
G75*
G02*
X88753839Y-114377531I-565685J-565685D01*
G01*
X88753839Y-114377531D01*
G75*
G02*
X87622469Y-114377531I-565685J565685D01*
G01*
G37*
G36*
X82800000Y-120331371D02*
G01*
X81668629Y-119200000D01*
X82800000Y-118068629D01*
X83931371Y-119200000D01*
X82800000Y-120331371D01*
G37*
G36*
G01*
X92022469Y-114377531D02*
X92022469Y-114377531D01*
G75*
G02*
X92022469Y-113246161I565685J565685D01*
G01*
X92022469Y-113246161D01*
G75*
G02*
X93153839Y-113246161I565685J-565685D01*
G01*
X93153839Y-113246161D01*
G75*
G02*
X93153839Y-114377531I-565685J-565685D01*
G01*
X93153839Y-114377531D01*
G75*
G02*
X92022469Y-114377531I-565685J565685D01*
G01*
G37*
G36*
X87200000Y-120331371D02*
G01*
X86068629Y-119200000D01*
X87200000Y-118068629D01*
X88331371Y-119200000D01*
X87200000Y-120331371D01*
G37*
G36*
G01*
X96422469Y-114377531D02*
X96422469Y-114377531D01*
G75*
G02*
X96422469Y-113246161I565685J565685D01*
G01*
X96422469Y-113246161D01*
G75*
G02*
X97553839Y-113246161I565685J-565685D01*
G01*
X97553839Y-113246161D01*
G75*
G02*
X97553839Y-114377531I-565685J-565685D01*
G01*
X97553839Y-114377531D01*
G75*
G02*
X96422469Y-114377531I-565685J565685D01*
G01*
G37*
G36*
X91600000Y-120331371D02*
G01*
X90468629Y-119200000D01*
X91600000Y-118068629D01*
X92731371Y-119200000D01*
X91600000Y-120331371D01*
G37*
D12*
X76910000Y-60670000D03*
X76910000Y-63210000D03*
D13*
X76910000Y-65750000D03*
D12*
X76910000Y-68290000D03*
X76910000Y-70830000D03*
X76910000Y-73370000D03*
X76910000Y-75910000D03*
D13*
X76910000Y-78450000D03*
D12*
X76910000Y-80990000D03*
X76910000Y-83530000D03*
X76910000Y-86070000D03*
X76910000Y-88610000D03*
D13*
X76910000Y-91150000D03*
D12*
X76910000Y-93690000D03*
X76910000Y-96230000D03*
X76910000Y-98770000D03*
X76910000Y-101310000D03*
D13*
X76910000Y-103850000D03*
D12*
X76910000Y-106390000D03*
X76910000Y-108930000D03*
X94690000Y-108930000D03*
X94690000Y-106390000D03*
D13*
X94690000Y-103850000D03*
D12*
X94690000Y-101310000D03*
X94690000Y-98770000D03*
X94690000Y-96230000D03*
X94690000Y-93690000D03*
D13*
X94690000Y-91150000D03*
D12*
X94690000Y-88610000D03*
X94690000Y-86070000D03*
X94690000Y-83530000D03*
X94690000Y-80990000D03*
D13*
X94690000Y-78450000D03*
D12*
X94690000Y-75910000D03*
X94690000Y-73370000D03*
X94690000Y-70830000D03*
X94690000Y-68290000D03*
D13*
X94690000Y-65750000D03*
D12*
X94690000Y-63210000D03*
X94690000Y-60670000D03*
X83260000Y-108700000D03*
D13*
X85800000Y-108700000D03*
D12*
X88340000Y-108700000D03*
D14*
X70800000Y-152250000D03*
X70800000Y-61400000D03*
X177400000Y-152000000D03*
X177400000Y-61400000D03*
D15*
X122540000Y-138920000D03*
D16*
X120000000Y-144000000D03*
D15*
X116190000Y-141460000D03*
D17*
X114920000Y-144000000D03*
X125080000Y-144000000D03*
D18*
X108093750Y-137015000D03*
X131906250Y-137015000D03*
D16*
X108093750Y-152255000D03*
X131906250Y-152255000D03*
D15*
X162420000Y-131960000D03*
D16*
X167500000Y-134500000D03*
D15*
X164960000Y-138310000D03*
D17*
X167500000Y-139580000D03*
X167500000Y-129420000D03*
D18*
X160515000Y-146406250D03*
X160515000Y-122593750D03*
D16*
X175755000Y-146406250D03*
X175755000Y-122593750D03*
D15*
X151040000Y-138920000D03*
D16*
X148500000Y-144000000D03*
D15*
X144690000Y-141460000D03*
D17*
X143420000Y-144000000D03*
X153580000Y-144000000D03*
D15*
X151040000Y-119920000D03*
D16*
X148500000Y-125000000D03*
D15*
X144690000Y-122460000D03*
D17*
X143420000Y-125000000D03*
X153580000Y-125000000D03*
D15*
X132040000Y-119920000D03*
D16*
X129500000Y-125000000D03*
D15*
X125690000Y-122460000D03*
D17*
X124420000Y-125000000D03*
X134580000Y-125000000D03*
D15*
X113040000Y-119920000D03*
D16*
X110500000Y-125000000D03*
D15*
X106690000Y-122460000D03*
D17*
X105420000Y-125000000D03*
X115580000Y-125000000D03*
D15*
X162420000Y-93960000D03*
D16*
X167500000Y-96500000D03*
D15*
X164960000Y-100310000D03*
D17*
X167500000Y-101580000D03*
X167500000Y-91420000D03*
D18*
X160515000Y-108406250D03*
X160515000Y-84593750D03*
D16*
X175755000Y-108406250D03*
X175755000Y-84593750D03*
D15*
X151040000Y-100920000D03*
D16*
X148500000Y-106000000D03*
D15*
X144690000Y-103460000D03*
D17*
X143420000Y-106000000D03*
X153580000Y-106000000D03*
D15*
X132040000Y-100920000D03*
D16*
X129500000Y-106000000D03*
D15*
X125690000Y-103460000D03*
D17*
X124420000Y-106000000D03*
X134580000Y-106000000D03*
D15*
X113040000Y-100920000D03*
D16*
X110500000Y-106000000D03*
D15*
X106690000Y-103460000D03*
D17*
X105420000Y-106000000D03*
X115580000Y-106000000D03*
D15*
X151040000Y-81920000D03*
D16*
X148500000Y-87000000D03*
D15*
X144690000Y-84460000D03*
D17*
X143420000Y-87000000D03*
X153580000Y-87000000D03*
D15*
X132040000Y-81920000D03*
D16*
X129500000Y-87000000D03*
D15*
X125690000Y-84460000D03*
D17*
X124420000Y-87000000D03*
X134580000Y-87000000D03*
D15*
X113040000Y-81920000D03*
D16*
X110500000Y-87000000D03*
D15*
X106690000Y-84460000D03*
D17*
X105420000Y-87000000D03*
X115580000Y-87000000D03*
D15*
X170040000Y-62920000D03*
D16*
X167500000Y-68000000D03*
D15*
X163690000Y-65460000D03*
D17*
X162420000Y-68000000D03*
X172580000Y-68000000D03*
D15*
X151040000Y-62920000D03*
D16*
X148500000Y-68000000D03*
D15*
X144690000Y-65460000D03*
D17*
X143420000Y-68000000D03*
X153580000Y-68000000D03*
D15*
X132040000Y-62920000D03*
D16*
X129500000Y-68000000D03*
D15*
X125690000Y-65460000D03*
D17*
X124420000Y-68000000D03*
X134580000Y-68000000D03*
D15*
X113040000Y-62920000D03*
D16*
X110500000Y-68000000D03*
D15*
X106690000Y-65460000D03*
D17*
X105420000Y-68000000D03*
X115580000Y-68000000D03*
M02*
