%FSLAX45Y45*%
G04 Gerber Fmt 4.5, Leading zero omitted, Abs format (unit mm)*
G04 Created by KiCad (PCBNEW (5.1.10)-1) date 2021-09-20 14:50:28*
%MOMM*%
%LPD*%
G01*
G04 APERTURE LIST*
%TA.AperFunction,Profile*%
%ADD10C,0.100000*%
%TD*%
%ADD11C,0.200000*%
%ADD12C,0.300000*%
G04 APERTURE END LIST*
D10*
X6820000Y-15485000D02*
G75*
G02*
X6780000Y-15445000I0J40000D01*
G01*
X18020000Y-15445000D02*
G75*
G02*
X17980000Y-15485000I-40000J0D01*
G01*
X17980000Y-5880000D02*
G75*
G02*
X18020000Y-5920000I0J-40000D01*
G01*
X6780000Y-5920000D02*
G75*
G02*
X6820000Y-5880000I40000J0D01*
G01*
X6780000Y-15445000D02*
X6780000Y-5920000D01*
X17980000Y-15485000D02*
X6820000Y-15485000D01*
X18020000Y-5920000D02*
X18020000Y-15445000D01*
X6820000Y-5880000D02*
X17980000Y-5880000D01*
D11*
X10454500Y-6712500D02*
X10629500Y-6887500D01*
X10629500Y-6712500D02*
X10454500Y-6887500D01*
X10454500Y-8612500D02*
X10629500Y-8787500D01*
X10629500Y-8612500D02*
X10454500Y-8787500D01*
X10454500Y-10512500D02*
X10629500Y-10687500D01*
X10629500Y-10512500D02*
X10454500Y-10687500D01*
X10454500Y-12412500D02*
X10629500Y-12587500D01*
X10629500Y-12412500D02*
X10454500Y-12587500D01*
X11404500Y-14312500D02*
X11579500Y-14487500D01*
X11579500Y-14312500D02*
X11404500Y-14487500D01*
X11470500Y-6712500D02*
X11645500Y-6887500D01*
X11645500Y-6712500D02*
X11470500Y-6887500D01*
X11470500Y-8612500D02*
X11645500Y-8787500D01*
X11645500Y-8612500D02*
X11470500Y-8787500D01*
X11470500Y-10512500D02*
X11645500Y-10687500D01*
X11645500Y-10512500D02*
X11470500Y-10687500D01*
X11470500Y-12412500D02*
X11645500Y-12587500D01*
X11645500Y-12412500D02*
X11470500Y-12587500D01*
X12354500Y-6712500D02*
X12529500Y-6887500D01*
X12529500Y-6712500D02*
X12354500Y-6887500D01*
X12354500Y-8612500D02*
X12529500Y-8787500D01*
X12529500Y-8612500D02*
X12354500Y-8787500D01*
X12354500Y-10512500D02*
X12529500Y-10687500D01*
X12529500Y-10512500D02*
X12354500Y-10687500D01*
X12354500Y-12412500D02*
X12529500Y-12587500D01*
X12529500Y-12412500D02*
X12354500Y-12587500D01*
X12420500Y-14312500D02*
X12595500Y-14487500D01*
X12595500Y-14312500D02*
X12420500Y-14487500D01*
X13370500Y-6712500D02*
X13545500Y-6887500D01*
X13545500Y-6712500D02*
X13370500Y-6887500D01*
X13370500Y-8612500D02*
X13545500Y-8787500D01*
X13545500Y-8612500D02*
X13370500Y-8787500D01*
X13370500Y-10512500D02*
X13545500Y-10687500D01*
X13545500Y-10512500D02*
X13370500Y-10687500D01*
X13370500Y-12412500D02*
X13545500Y-12587500D01*
X13545500Y-12412500D02*
X13370500Y-12587500D01*
X14254500Y-6712500D02*
X14429500Y-6887500D01*
X14429500Y-6712500D02*
X14254500Y-6887500D01*
X14254500Y-8612500D02*
X14429500Y-8787500D01*
X14429500Y-8612500D02*
X14254500Y-8787500D01*
X14254500Y-10512500D02*
X14429500Y-10687500D01*
X14429500Y-10512500D02*
X14254500Y-10687500D01*
X14254500Y-12412500D02*
X14429500Y-12587500D01*
X14429500Y-12412500D02*
X14254500Y-12587500D01*
X14254500Y-14312500D02*
X14429500Y-14487500D01*
X14429500Y-14312500D02*
X14254500Y-14487500D01*
X15270500Y-6712500D02*
X15445500Y-6887500D01*
X15445500Y-6712500D02*
X15270500Y-6887500D01*
X15270500Y-8612500D02*
X15445500Y-8787500D01*
X15445500Y-8612500D02*
X15270500Y-8787500D01*
X15270500Y-10512500D02*
X15445500Y-10687500D01*
X15445500Y-10512500D02*
X15270500Y-10687500D01*
X15270500Y-12412500D02*
X15445500Y-12587500D01*
X15445500Y-12412500D02*
X15270500Y-12587500D01*
X15270500Y-14312500D02*
X15445500Y-14487500D01*
X15445500Y-14312500D02*
X15270500Y-14487500D01*
X16154500Y-6712500D02*
X16329500Y-6887500D01*
X16329500Y-6712500D02*
X16154500Y-6887500D01*
X16662500Y-9054500D02*
X16837500Y-9229500D01*
X16837500Y-9054500D02*
X16662500Y-9229500D01*
X16662500Y-10070500D02*
X16837500Y-10245500D01*
X16837500Y-10070500D02*
X16662500Y-10245500D01*
X16662500Y-12854500D02*
X16837500Y-13029500D01*
X16837500Y-12854500D02*
X16662500Y-13029500D01*
X16662500Y-13870500D02*
X16837500Y-14045500D01*
X16837500Y-13870500D02*
X16662500Y-14045500D01*
X17170500Y-6712500D02*
X17345500Y-6887500D01*
X17345500Y-6712500D02*
X17170500Y-6887500D01*
X7190000Y-6140000D02*
G75*
G03*
X7190000Y-6140000I-110000J0D01*
G01*
X7190000Y-15225000D02*
G75*
G03*
X7190000Y-15225000I-110000J0D01*
G01*
X17850000Y-6140000D02*
G75*
G03*
X17850000Y-6140000I-110000J0D01*
G01*
X17850000Y-15200000D02*
G75*
G03*
X17850000Y-15200000I-110000J0D01*
G01*
X10809375Y-13549100D02*
X10809375Y-13853900D01*
X10656975Y-13701500D02*
X10961775Y-13701500D01*
X13190625Y-13549100D02*
X13190625Y-13853900D01*
X13038225Y-13701500D02*
X13343025Y-13701500D01*
X16051500Y-8306975D02*
X16051500Y-8611775D01*
X15899100Y-8459375D02*
X16203900Y-8459375D01*
X16051500Y-10688225D02*
X16051500Y-10993025D01*
X15899100Y-10840625D02*
X16203900Y-10840625D01*
X16051500Y-12106975D02*
X16051500Y-12411775D01*
X15899100Y-12259375D02*
X16203900Y-12259375D01*
X16051500Y-14488225D02*
X16051500Y-14793025D01*
X15899100Y-14640625D02*
X16203900Y-14640625D01*
X10950366Y-15366491D02*
X10950366Y-15084509D01*
X10668384Y-15084509D01*
X10668384Y-15366491D01*
X10950366Y-15366491D01*
X11190991Y-6940991D02*
X11190991Y-6659009D01*
X10909009Y-6659009D01*
X10909009Y-6940991D01*
X11190991Y-6940991D01*
X11190991Y-8840991D02*
X11190991Y-8559009D01*
X10909009Y-8559009D01*
X10909009Y-8840991D01*
X11190991Y-8840991D01*
X11190991Y-10740991D02*
X11190991Y-10459009D01*
X10909009Y-10459009D01*
X10909009Y-10740991D01*
X11190991Y-10740991D01*
X11190991Y-12640991D02*
X11190991Y-12359009D01*
X10909009Y-12359009D01*
X10909009Y-12640991D01*
X11190991Y-12640991D01*
X12140991Y-14540991D02*
X12140991Y-14259009D01*
X11859009Y-14259009D01*
X11859009Y-14540991D01*
X12140991Y-14540991D01*
X13090991Y-6940991D02*
X13090991Y-6659009D01*
X12809009Y-6659009D01*
X12809009Y-6940991D01*
X13090991Y-6940991D01*
X13090991Y-8840991D02*
X13090991Y-8559009D01*
X12809009Y-8559009D01*
X12809009Y-8840991D01*
X13090991Y-8840991D01*
X13090991Y-10740991D02*
X13090991Y-10459009D01*
X12809009Y-10459009D01*
X12809009Y-10740991D01*
X13090991Y-10740991D01*
X13090991Y-12640991D02*
X13090991Y-12359009D01*
X12809009Y-12359009D01*
X12809009Y-12640991D01*
X13090991Y-12640991D01*
X13331616Y-15366491D02*
X13331616Y-15084509D01*
X13049634Y-15084509D01*
X13049634Y-15366491D01*
X13331616Y-15366491D01*
X14990991Y-6940991D02*
X14990991Y-6659009D01*
X14709009Y-6659009D01*
X14709009Y-6940991D01*
X14990991Y-6940991D01*
X14990991Y-8840991D02*
X14990991Y-8559009D01*
X14709009Y-8559009D01*
X14709009Y-8840991D01*
X14990991Y-8840991D01*
X14990991Y-10740991D02*
X14990991Y-10459009D01*
X14709009Y-10459009D01*
X14709009Y-10740991D01*
X14990991Y-10740991D01*
X14990991Y-12640991D02*
X14990991Y-12359009D01*
X14709009Y-12359009D01*
X14709009Y-12640991D01*
X14990991Y-12640991D01*
X14990991Y-14540991D02*
X14990991Y-14259009D01*
X14709009Y-14259009D01*
X14709009Y-14540991D01*
X14990991Y-14540991D01*
X16890991Y-6940991D02*
X16890991Y-6659009D01*
X16609009Y-6659009D01*
X16609009Y-6940991D01*
X16890991Y-6940991D01*
X16890991Y-9790991D02*
X16890991Y-9509009D01*
X16609009Y-9509009D01*
X16609009Y-9790991D01*
X16890991Y-9790991D01*
X16890991Y-13590991D02*
X16890991Y-13309009D01*
X16609009Y-13309009D01*
X16609009Y-13590991D01*
X16890991Y-13590991D01*
X17716491Y-8600366D02*
X17716491Y-8318384D01*
X17434509Y-8318384D01*
X17434509Y-8600366D01*
X17716491Y-8600366D01*
X17716491Y-10981616D02*
X17716491Y-10699634D01*
X17434509Y-10699634D01*
X17434509Y-10981616D01*
X17716491Y-10981616D01*
X17716491Y-12400366D02*
X17716491Y-12118384D01*
X17434509Y-12118384D01*
X17434509Y-12400366D01*
X17716491Y-12400366D01*
X17716491Y-14781616D02*
X17716491Y-14499634D01*
X17434509Y-14499634D01*
X17434509Y-14781616D01*
X17716491Y-14781616D01*
D12*
X7061428Y-15955714D02*
X7061428Y-15655714D01*
X7132857Y-15655714D01*
X7175714Y-15670000D01*
X7204286Y-15698571D01*
X7218571Y-15727143D01*
X7232857Y-15784286D01*
X7232857Y-15827143D01*
X7218571Y-15884286D01*
X7204286Y-15912857D01*
X7175714Y-15941429D01*
X7132857Y-15955714D01*
X7061428Y-15955714D01*
X7361428Y-15955714D02*
X7361428Y-15755714D01*
X7361428Y-15812857D02*
X7375714Y-15784286D01*
X7390000Y-15770000D01*
X7418571Y-15755714D01*
X7447143Y-15755714D01*
X7547143Y-15955714D02*
X7547143Y-15755714D01*
X7547143Y-15655714D02*
X7532857Y-15670000D01*
X7547143Y-15684286D01*
X7561428Y-15670000D01*
X7547143Y-15655714D01*
X7547143Y-15684286D01*
X7732857Y-15955714D02*
X7704286Y-15941429D01*
X7690000Y-15912857D01*
X7690000Y-15655714D01*
X7890000Y-15955714D02*
X7861428Y-15941429D01*
X7847143Y-15912857D01*
X7847143Y-15655714D01*
X8232857Y-15955714D02*
X8232857Y-15655714D01*
X8332857Y-15870000D01*
X8432857Y-15655714D01*
X8432857Y-15955714D01*
X8704286Y-15955714D02*
X8704286Y-15798571D01*
X8690000Y-15770000D01*
X8661428Y-15755714D01*
X8604286Y-15755714D01*
X8575714Y-15770000D01*
X8704286Y-15941429D02*
X8675714Y-15955714D01*
X8604286Y-15955714D01*
X8575714Y-15941429D01*
X8561428Y-15912857D01*
X8561428Y-15884286D01*
X8575714Y-15855714D01*
X8604286Y-15841429D01*
X8675714Y-15841429D01*
X8704286Y-15827143D01*
X8847143Y-15755714D02*
X8847143Y-16055714D01*
X8847143Y-15770000D02*
X8875714Y-15755714D01*
X8932857Y-15755714D01*
X8961428Y-15770000D01*
X8975714Y-15784286D01*
X8990000Y-15812857D01*
X8990000Y-15898571D01*
X8975714Y-15927143D01*
X8961428Y-15941429D01*
X8932857Y-15955714D01*
X8875714Y-15955714D01*
X8847143Y-15941429D01*
X9118571Y-15927143D02*
X9132857Y-15941429D01*
X9118571Y-15955714D01*
X9104286Y-15941429D01*
X9118571Y-15927143D01*
X9118571Y-15955714D01*
X9118571Y-15770000D02*
X9132857Y-15784286D01*
X9118571Y-15798571D01*
X9104286Y-15784286D01*
X9118571Y-15770000D01*
X9118571Y-15798571D01*
X6600000Y-16362500D02*
X6775000Y-16537500D01*
X6775000Y-16362500D02*
X6600000Y-16537500D01*
X7218571Y-16585714D02*
X7047143Y-16585714D01*
X7132857Y-16585714D02*
X7132857Y-16285714D01*
X7104286Y-16328571D01*
X7075714Y-16357143D01*
X7047143Y-16371429D01*
X7347143Y-16557143D02*
X7361428Y-16571429D01*
X7347143Y-16585714D01*
X7332857Y-16571429D01*
X7347143Y-16557143D01*
X7347143Y-16585714D01*
X7461428Y-16285714D02*
X7661428Y-16285714D01*
X7532857Y-16585714D01*
X7918571Y-16285714D02*
X7775714Y-16285714D01*
X7761428Y-16428571D01*
X7775714Y-16414286D01*
X7804286Y-16400000D01*
X7875714Y-16400000D01*
X7904286Y-16414286D01*
X7918571Y-16428571D01*
X7932857Y-16457143D01*
X7932857Y-16528571D01*
X7918571Y-16557143D01*
X7904286Y-16571429D01*
X7875714Y-16585714D01*
X7804286Y-16585714D01*
X7775714Y-16571429D01*
X7761428Y-16557143D01*
X8118571Y-16285714D02*
X8147143Y-16285714D01*
X8175714Y-16300000D01*
X8190000Y-16314286D01*
X8204286Y-16342857D01*
X8218571Y-16400000D01*
X8218571Y-16471429D01*
X8204286Y-16528571D01*
X8190000Y-16557143D01*
X8175714Y-16571429D01*
X8147143Y-16585714D01*
X8118571Y-16585714D01*
X8090000Y-16571429D01*
X8075714Y-16557143D01*
X8061428Y-16528571D01*
X8047143Y-16471429D01*
X8047143Y-16400000D01*
X8061428Y-16342857D01*
X8075714Y-16314286D01*
X8090000Y-16300000D01*
X8118571Y-16285714D01*
X8347143Y-16585714D02*
X8347143Y-16385714D01*
X8347143Y-16414286D02*
X8361428Y-16400000D01*
X8390000Y-16385714D01*
X8432857Y-16385714D01*
X8461428Y-16400000D01*
X8475714Y-16428571D01*
X8475714Y-16585714D01*
X8475714Y-16428571D02*
X8490000Y-16400000D01*
X8518571Y-16385714D01*
X8561428Y-16385714D01*
X8590000Y-16400000D01*
X8604286Y-16428571D01*
X8604286Y-16585714D01*
X8747143Y-16585714D02*
X8747143Y-16385714D01*
X8747143Y-16414286D02*
X8761428Y-16400000D01*
X8790000Y-16385714D01*
X8832857Y-16385714D01*
X8861428Y-16400000D01*
X8875714Y-16428571D01*
X8875714Y-16585714D01*
X8875714Y-16428571D02*
X8890000Y-16400000D01*
X8918571Y-16385714D01*
X8961428Y-16385714D01*
X8990000Y-16400000D01*
X9004286Y-16428571D01*
X9004286Y-16585714D01*
X9590000Y-16271429D02*
X9332857Y-16657143D01*
X9975714Y-16285714D02*
X10004286Y-16285714D01*
X10032857Y-16300000D01*
X10047143Y-16314286D01*
X10061428Y-16342857D01*
X10075714Y-16400000D01*
X10075714Y-16471429D01*
X10061428Y-16528571D01*
X10047143Y-16557143D01*
X10032857Y-16571429D01*
X10004286Y-16585714D01*
X9975714Y-16585714D01*
X9947143Y-16571429D01*
X9932857Y-16557143D01*
X9918571Y-16528571D01*
X9904286Y-16471429D01*
X9904286Y-16400000D01*
X9918571Y-16342857D01*
X9932857Y-16314286D01*
X9947143Y-16300000D01*
X9975714Y-16285714D01*
X10204286Y-16557143D02*
X10218571Y-16571429D01*
X10204286Y-16585714D01*
X10190000Y-16571429D01*
X10204286Y-16557143D01*
X10204286Y-16585714D01*
X10404286Y-16285714D02*
X10432857Y-16285714D01*
X10461428Y-16300000D01*
X10475714Y-16314286D01*
X10490000Y-16342857D01*
X10504286Y-16400000D01*
X10504286Y-16471429D01*
X10490000Y-16528571D01*
X10475714Y-16557143D01*
X10461428Y-16571429D01*
X10432857Y-16585714D01*
X10404286Y-16585714D01*
X10375714Y-16571429D01*
X10361428Y-16557143D01*
X10347143Y-16528571D01*
X10332857Y-16471429D01*
X10332857Y-16400000D01*
X10347143Y-16342857D01*
X10361428Y-16314286D01*
X10375714Y-16300000D01*
X10404286Y-16285714D01*
X10761428Y-16285714D02*
X10704286Y-16285714D01*
X10675714Y-16300000D01*
X10661428Y-16314286D01*
X10632857Y-16357143D01*
X10618571Y-16414286D01*
X10618571Y-16528571D01*
X10632857Y-16557143D01*
X10647143Y-16571429D01*
X10675714Y-16585714D01*
X10732857Y-16585714D01*
X10761428Y-16571429D01*
X10775714Y-16557143D01*
X10790000Y-16528571D01*
X10790000Y-16457143D01*
X10775714Y-16428571D01*
X10761428Y-16414286D01*
X10732857Y-16400000D01*
X10675714Y-16400000D01*
X10647143Y-16414286D01*
X10632857Y-16428571D01*
X10618571Y-16457143D01*
X10961428Y-16414286D02*
X10932857Y-16400000D01*
X10918571Y-16385714D01*
X10904286Y-16357143D01*
X10904286Y-16342857D01*
X10918571Y-16314286D01*
X10932857Y-16300000D01*
X10961428Y-16285714D01*
X11018571Y-16285714D01*
X11047143Y-16300000D01*
X11061428Y-16314286D01*
X11075714Y-16342857D01*
X11075714Y-16357143D01*
X11061428Y-16385714D01*
X11047143Y-16400000D01*
X11018571Y-16414286D01*
X10961428Y-16414286D01*
X10932857Y-16428571D01*
X10918571Y-16442857D01*
X10904286Y-16471429D01*
X10904286Y-16528571D01*
X10918571Y-16557143D01*
X10932857Y-16571429D01*
X10961428Y-16585714D01*
X11018571Y-16585714D01*
X11047143Y-16571429D01*
X11061428Y-16557143D01*
X11075714Y-16528571D01*
X11075714Y-16471429D01*
X11061428Y-16442857D01*
X11047143Y-16428571D01*
X11018571Y-16414286D01*
X11218571Y-16585714D02*
X11275714Y-16585714D01*
X11304286Y-16571429D01*
X11318571Y-16557143D01*
X11347143Y-16514286D01*
X11361428Y-16457143D01*
X11361428Y-16342857D01*
X11347143Y-16314286D01*
X11332857Y-16300000D01*
X11304286Y-16285714D01*
X11247143Y-16285714D01*
X11218571Y-16300000D01*
X11204286Y-16314286D01*
X11190000Y-16342857D01*
X11190000Y-16414286D01*
X11204286Y-16442857D01*
X11218571Y-16457143D01*
X11247143Y-16471429D01*
X11304286Y-16471429D01*
X11332857Y-16457143D01*
X11347143Y-16442857D01*
X11361428Y-16414286D01*
X11475714Y-16285714D02*
X11475714Y-16342857D01*
X11590000Y-16285714D02*
X11590000Y-16342857D01*
X12032857Y-16700000D02*
X12018571Y-16685714D01*
X11990000Y-16642857D01*
X11975714Y-16614286D01*
X11961428Y-16571429D01*
X11947143Y-16500000D01*
X11947143Y-16442857D01*
X11961428Y-16371429D01*
X11975714Y-16328571D01*
X11990000Y-16300000D01*
X12018571Y-16257143D01*
X12032857Y-16242857D01*
X12118571Y-16285714D02*
X12304286Y-16285714D01*
X12204286Y-16400000D01*
X12247143Y-16400000D01*
X12275714Y-16414286D01*
X12290000Y-16428571D01*
X12304286Y-16457143D01*
X12304286Y-16528571D01*
X12290000Y-16557143D01*
X12275714Y-16571429D01*
X12247143Y-16585714D01*
X12161428Y-16585714D01*
X12132857Y-16571429D01*
X12118571Y-16557143D01*
X12561428Y-16385714D02*
X12561428Y-16585714D01*
X12490000Y-16271429D02*
X12418571Y-16485714D01*
X12604286Y-16485714D01*
X12947143Y-16585714D02*
X12947143Y-16285714D01*
X13075714Y-16585714D02*
X13075714Y-16428571D01*
X13061428Y-16400000D01*
X13032857Y-16385714D01*
X12990000Y-16385714D01*
X12961428Y-16400000D01*
X12947143Y-16414286D01*
X13261428Y-16585714D02*
X13232857Y-16571429D01*
X13218571Y-16557143D01*
X13204286Y-16528571D01*
X13204286Y-16442857D01*
X13218571Y-16414286D01*
X13232857Y-16400000D01*
X13261428Y-16385714D01*
X13304286Y-16385714D01*
X13332857Y-16400000D01*
X13347143Y-16414286D01*
X13361428Y-16442857D01*
X13361428Y-16528571D01*
X13347143Y-16557143D01*
X13332857Y-16571429D01*
X13304286Y-16585714D01*
X13261428Y-16585714D01*
X13532857Y-16585714D02*
X13504286Y-16571429D01*
X13490000Y-16542857D01*
X13490000Y-16285714D01*
X13761428Y-16571429D02*
X13732857Y-16585714D01*
X13675714Y-16585714D01*
X13647143Y-16571429D01*
X13632857Y-16542857D01*
X13632857Y-16428571D01*
X13647143Y-16400000D01*
X13675714Y-16385714D01*
X13732857Y-16385714D01*
X13761428Y-16400000D01*
X13775714Y-16428571D01*
X13775714Y-16457143D01*
X13632857Y-16485714D01*
X13890000Y-16571429D02*
X13918571Y-16585714D01*
X13975714Y-16585714D01*
X14004286Y-16571429D01*
X14018571Y-16542857D01*
X14018571Y-16528571D01*
X14004286Y-16500000D01*
X13975714Y-16485714D01*
X13932857Y-16485714D01*
X13904286Y-16471429D01*
X13890000Y-16442857D01*
X13890000Y-16428571D01*
X13904286Y-16400000D01*
X13932857Y-16385714D01*
X13975714Y-16385714D01*
X14004286Y-16400000D01*
X14118571Y-16700000D02*
X14132857Y-16685714D01*
X14161428Y-16642857D01*
X14175714Y-16614286D01*
X14190000Y-16571429D01*
X14204286Y-16500000D01*
X14204286Y-16442857D01*
X14190000Y-16371429D01*
X14175714Y-16328571D01*
X14161428Y-16300000D01*
X14132857Y-16257143D01*
X14118571Y-16242857D01*
X14661428Y-16700000D02*
X14647143Y-16685714D01*
X14618571Y-16642857D01*
X14604286Y-16614286D01*
X14590000Y-16571429D01*
X14575714Y-16500000D01*
X14575714Y-16442857D01*
X14590000Y-16371429D01*
X14604286Y-16328571D01*
X14618571Y-16300000D01*
X14647143Y-16257143D01*
X14661428Y-16242857D01*
X14775714Y-16385714D02*
X14775714Y-16585714D01*
X14775714Y-16414286D02*
X14790000Y-16400000D01*
X14818571Y-16385714D01*
X14861428Y-16385714D01*
X14890000Y-16400000D01*
X14904286Y-16428571D01*
X14904286Y-16585714D01*
X15090000Y-16585714D02*
X15061428Y-16571429D01*
X15047143Y-16557143D01*
X15032857Y-16528571D01*
X15032857Y-16442857D01*
X15047143Y-16414286D01*
X15061428Y-16400000D01*
X15090000Y-16385714D01*
X15132857Y-16385714D01*
X15161428Y-16400000D01*
X15175714Y-16414286D01*
X15190000Y-16442857D01*
X15190000Y-16528571D01*
X15175714Y-16557143D01*
X15161428Y-16571429D01*
X15132857Y-16585714D01*
X15090000Y-16585714D01*
X15275714Y-16385714D02*
X15390000Y-16385714D01*
X15318571Y-16285714D02*
X15318571Y-16542857D01*
X15332857Y-16571429D01*
X15361428Y-16585714D01*
X15390000Y-16585714D01*
X15718571Y-16385714D02*
X15718571Y-16685714D01*
X15718571Y-16400000D02*
X15747143Y-16385714D01*
X15804286Y-16385714D01*
X15832857Y-16400000D01*
X15847143Y-16414286D01*
X15861428Y-16442857D01*
X15861428Y-16528571D01*
X15847143Y-16557143D01*
X15832857Y-16571429D01*
X15804286Y-16585714D01*
X15747143Y-16585714D01*
X15718571Y-16571429D01*
X16032857Y-16585714D02*
X16004286Y-16571429D01*
X15990000Y-16542857D01*
X15990000Y-16285714D01*
X16275714Y-16585714D02*
X16275714Y-16428571D01*
X16261428Y-16400000D01*
X16232857Y-16385714D01*
X16175714Y-16385714D01*
X16147143Y-16400000D01*
X16275714Y-16571429D02*
X16247143Y-16585714D01*
X16175714Y-16585714D01*
X16147143Y-16571429D01*
X16132857Y-16542857D01*
X16132857Y-16514286D01*
X16147143Y-16485714D01*
X16175714Y-16471429D01*
X16247143Y-16471429D01*
X16275714Y-16457143D01*
X16375714Y-16385714D02*
X16490000Y-16385714D01*
X16418571Y-16285714D02*
X16418571Y-16542857D01*
X16432857Y-16571429D01*
X16461428Y-16585714D01*
X16490000Y-16585714D01*
X16704286Y-16571429D02*
X16675714Y-16585714D01*
X16618571Y-16585714D01*
X16590000Y-16571429D01*
X16575714Y-16542857D01*
X16575714Y-16428571D01*
X16590000Y-16400000D01*
X16618571Y-16385714D01*
X16675714Y-16385714D01*
X16704286Y-16400000D01*
X16718571Y-16428571D01*
X16718571Y-16457143D01*
X16575714Y-16485714D01*
X16975714Y-16585714D02*
X16975714Y-16285714D01*
X16975714Y-16571429D02*
X16947143Y-16585714D01*
X16890000Y-16585714D01*
X16861428Y-16571429D01*
X16847143Y-16557143D01*
X16832857Y-16528571D01*
X16832857Y-16442857D01*
X16847143Y-16414286D01*
X16861428Y-16400000D01*
X16890000Y-16385714D01*
X16947143Y-16385714D01*
X16975714Y-16400000D01*
X17090000Y-16700000D02*
X17104286Y-16685714D01*
X17132857Y-16642857D01*
X17147143Y-16614286D01*
X17161428Y-16571429D01*
X17175714Y-16500000D01*
X17175714Y-16442857D01*
X17161428Y-16371429D01*
X17147143Y-16328571D01*
X17132857Y-16300000D01*
X17104286Y-16257143D01*
X17090000Y-16242857D01*
X6775000Y-16846000D02*
G75*
G03*
X6775000Y-16846000I-110000J0D01*
G01*
X7047143Y-16710286D02*
X7061428Y-16696000D01*
X7090000Y-16681714D01*
X7161428Y-16681714D01*
X7190000Y-16696000D01*
X7204286Y-16710286D01*
X7218571Y-16738857D01*
X7218571Y-16767429D01*
X7204286Y-16810286D01*
X7032857Y-16981714D01*
X7218571Y-16981714D01*
X7347143Y-16953143D02*
X7361428Y-16967429D01*
X7347143Y-16981714D01*
X7332857Y-16967429D01*
X7347143Y-16953143D01*
X7347143Y-16981714D01*
X7475714Y-16710286D02*
X7490000Y-16696000D01*
X7518571Y-16681714D01*
X7590000Y-16681714D01*
X7618571Y-16696000D01*
X7632857Y-16710286D01*
X7647143Y-16738857D01*
X7647143Y-16767429D01*
X7632857Y-16810286D01*
X7461428Y-16981714D01*
X7647143Y-16981714D01*
X7832857Y-16681714D02*
X7861428Y-16681714D01*
X7890000Y-16696000D01*
X7904286Y-16710286D01*
X7918571Y-16738857D01*
X7932857Y-16796000D01*
X7932857Y-16867429D01*
X7918571Y-16924572D01*
X7904286Y-16953143D01*
X7890000Y-16967429D01*
X7861428Y-16981714D01*
X7832857Y-16981714D01*
X7804286Y-16967429D01*
X7790000Y-16953143D01*
X7775714Y-16924572D01*
X7761428Y-16867429D01*
X7761428Y-16796000D01*
X7775714Y-16738857D01*
X7790000Y-16710286D01*
X7804286Y-16696000D01*
X7832857Y-16681714D01*
X8118571Y-16681714D02*
X8147143Y-16681714D01*
X8175714Y-16696000D01*
X8190000Y-16710286D01*
X8204286Y-16738857D01*
X8218571Y-16796000D01*
X8218571Y-16867429D01*
X8204286Y-16924572D01*
X8190000Y-16953143D01*
X8175714Y-16967429D01*
X8147143Y-16981714D01*
X8118571Y-16981714D01*
X8090000Y-16967429D01*
X8075714Y-16953143D01*
X8061428Y-16924572D01*
X8047143Y-16867429D01*
X8047143Y-16796000D01*
X8061428Y-16738857D01*
X8075714Y-16710286D01*
X8090000Y-16696000D01*
X8118571Y-16681714D01*
X8347143Y-16981714D02*
X8347143Y-16781714D01*
X8347143Y-16810286D02*
X8361428Y-16796000D01*
X8390000Y-16781714D01*
X8432857Y-16781714D01*
X8461428Y-16796000D01*
X8475714Y-16824572D01*
X8475714Y-16981714D01*
X8475714Y-16824572D02*
X8490000Y-16796000D01*
X8518571Y-16781714D01*
X8561428Y-16781714D01*
X8590000Y-16796000D01*
X8604286Y-16824572D01*
X8604286Y-16981714D01*
X8747143Y-16981714D02*
X8747143Y-16781714D01*
X8747143Y-16810286D02*
X8761428Y-16796000D01*
X8790000Y-16781714D01*
X8832857Y-16781714D01*
X8861428Y-16796000D01*
X8875714Y-16824572D01*
X8875714Y-16981714D01*
X8875714Y-16824572D02*
X8890000Y-16796000D01*
X8918571Y-16781714D01*
X8961428Y-16781714D01*
X8990000Y-16796000D01*
X9004286Y-16824572D01*
X9004286Y-16981714D01*
X9590000Y-16667429D02*
X9332857Y-17053143D01*
X9975714Y-16681714D02*
X10004286Y-16681714D01*
X10032857Y-16696000D01*
X10047143Y-16710286D01*
X10061428Y-16738857D01*
X10075714Y-16796000D01*
X10075714Y-16867429D01*
X10061428Y-16924572D01*
X10047143Y-16953143D01*
X10032857Y-16967429D01*
X10004286Y-16981714D01*
X9975714Y-16981714D01*
X9947143Y-16967429D01*
X9932857Y-16953143D01*
X9918571Y-16924572D01*
X9904286Y-16867429D01*
X9904286Y-16796000D01*
X9918571Y-16738857D01*
X9932857Y-16710286D01*
X9947143Y-16696000D01*
X9975714Y-16681714D01*
X10204286Y-16953143D02*
X10218571Y-16967429D01*
X10204286Y-16981714D01*
X10190000Y-16967429D01*
X10204286Y-16953143D01*
X10204286Y-16981714D01*
X10404286Y-16681714D02*
X10432857Y-16681714D01*
X10461428Y-16696000D01*
X10475714Y-16710286D01*
X10490000Y-16738857D01*
X10504286Y-16796000D01*
X10504286Y-16867429D01*
X10490000Y-16924572D01*
X10475714Y-16953143D01*
X10461428Y-16967429D01*
X10432857Y-16981714D01*
X10404286Y-16981714D01*
X10375714Y-16967429D01*
X10361428Y-16953143D01*
X10347143Y-16924572D01*
X10332857Y-16867429D01*
X10332857Y-16796000D01*
X10347143Y-16738857D01*
X10361428Y-16710286D01*
X10375714Y-16696000D01*
X10404286Y-16681714D01*
X10675714Y-16810286D02*
X10647143Y-16796000D01*
X10632857Y-16781714D01*
X10618571Y-16753143D01*
X10618571Y-16738857D01*
X10632857Y-16710286D01*
X10647143Y-16696000D01*
X10675714Y-16681714D01*
X10732857Y-16681714D01*
X10761428Y-16696000D01*
X10775714Y-16710286D01*
X10790000Y-16738857D01*
X10790000Y-16753143D01*
X10775714Y-16781714D01*
X10761428Y-16796000D01*
X10732857Y-16810286D01*
X10675714Y-16810286D01*
X10647143Y-16824572D01*
X10632857Y-16838857D01*
X10618571Y-16867429D01*
X10618571Y-16924572D01*
X10632857Y-16953143D01*
X10647143Y-16967429D01*
X10675714Y-16981714D01*
X10732857Y-16981714D01*
X10761428Y-16967429D01*
X10775714Y-16953143D01*
X10790000Y-16924572D01*
X10790000Y-16867429D01*
X10775714Y-16838857D01*
X10761428Y-16824572D01*
X10732857Y-16810286D01*
X11047143Y-16681714D02*
X10990000Y-16681714D01*
X10961428Y-16696000D01*
X10947143Y-16710286D01*
X10918571Y-16753143D01*
X10904286Y-16810286D01*
X10904286Y-16924572D01*
X10918571Y-16953143D01*
X10932857Y-16967429D01*
X10961428Y-16981714D01*
X11018571Y-16981714D01*
X11047143Y-16967429D01*
X11061428Y-16953143D01*
X11075714Y-16924572D01*
X11075714Y-16853143D01*
X11061428Y-16824572D01*
X11047143Y-16810286D01*
X11018571Y-16796000D01*
X10961428Y-16796000D01*
X10932857Y-16810286D01*
X10918571Y-16824572D01*
X10904286Y-16853143D01*
X11332857Y-16681714D02*
X11275714Y-16681714D01*
X11247143Y-16696000D01*
X11232857Y-16710286D01*
X11204286Y-16753143D01*
X11190000Y-16810286D01*
X11190000Y-16924572D01*
X11204286Y-16953143D01*
X11218571Y-16967429D01*
X11247143Y-16981714D01*
X11304286Y-16981714D01*
X11332857Y-16967429D01*
X11347143Y-16953143D01*
X11361428Y-16924572D01*
X11361428Y-16853143D01*
X11347143Y-16824572D01*
X11332857Y-16810286D01*
X11304286Y-16796000D01*
X11247143Y-16796000D01*
X11218571Y-16810286D01*
X11204286Y-16824572D01*
X11190000Y-16853143D01*
X11475714Y-16681714D02*
X11475714Y-16738857D01*
X11590000Y-16681714D02*
X11590000Y-16738857D01*
X12032857Y-17096000D02*
X12018571Y-17081714D01*
X11990000Y-17038857D01*
X11975714Y-17010286D01*
X11961428Y-16967429D01*
X11947143Y-16896000D01*
X11947143Y-16838857D01*
X11961428Y-16767429D01*
X11975714Y-16724571D01*
X11990000Y-16696000D01*
X12018571Y-16653143D01*
X12032857Y-16638857D01*
X12275714Y-16781714D02*
X12275714Y-16981714D01*
X12204286Y-16667429D02*
X12132857Y-16881714D01*
X12318571Y-16881714D01*
X12661428Y-16981714D02*
X12661428Y-16681714D01*
X12790000Y-16981714D02*
X12790000Y-16824572D01*
X12775714Y-16796000D01*
X12747143Y-16781714D01*
X12704286Y-16781714D01*
X12675714Y-16796000D01*
X12661428Y-16810286D01*
X12975714Y-16981714D02*
X12947143Y-16967429D01*
X12932857Y-16953143D01*
X12918571Y-16924572D01*
X12918571Y-16838857D01*
X12932857Y-16810286D01*
X12947143Y-16796000D01*
X12975714Y-16781714D01*
X13018571Y-16781714D01*
X13047143Y-16796000D01*
X13061428Y-16810286D01*
X13075714Y-16838857D01*
X13075714Y-16924572D01*
X13061428Y-16953143D01*
X13047143Y-16967429D01*
X13018571Y-16981714D01*
X12975714Y-16981714D01*
X13247143Y-16981714D02*
X13218571Y-16967429D01*
X13204286Y-16938857D01*
X13204286Y-16681714D01*
X13475714Y-16967429D02*
X13447143Y-16981714D01*
X13390000Y-16981714D01*
X13361428Y-16967429D01*
X13347143Y-16938857D01*
X13347143Y-16824572D01*
X13361428Y-16796000D01*
X13390000Y-16781714D01*
X13447143Y-16781714D01*
X13475714Y-16796000D01*
X13490000Y-16824572D01*
X13490000Y-16853143D01*
X13347143Y-16881714D01*
X13604286Y-16967429D02*
X13632857Y-16981714D01*
X13690000Y-16981714D01*
X13718571Y-16967429D01*
X13732857Y-16938857D01*
X13732857Y-16924572D01*
X13718571Y-16896000D01*
X13690000Y-16881714D01*
X13647143Y-16881714D01*
X13618571Y-16867429D01*
X13604286Y-16838857D01*
X13604286Y-16824572D01*
X13618571Y-16796000D01*
X13647143Y-16781714D01*
X13690000Y-16781714D01*
X13718571Y-16796000D01*
X13832857Y-17096000D02*
X13847143Y-17081714D01*
X13875714Y-17038857D01*
X13890000Y-17010286D01*
X13904286Y-16967429D01*
X13918571Y-16896000D01*
X13918571Y-16838857D01*
X13904286Y-16767429D01*
X13890000Y-16724571D01*
X13875714Y-16696000D01*
X13847143Y-16653143D01*
X13832857Y-16638857D01*
X14375714Y-17096000D02*
X14361428Y-17081714D01*
X14332857Y-17038857D01*
X14318571Y-17010286D01*
X14304286Y-16967429D01*
X14290000Y-16896000D01*
X14290000Y-16838857D01*
X14304286Y-16767429D01*
X14318571Y-16724571D01*
X14332857Y-16696000D01*
X14361428Y-16653143D01*
X14375714Y-16638857D01*
X14490000Y-16781714D02*
X14490000Y-16981714D01*
X14490000Y-16810286D02*
X14504286Y-16796000D01*
X14532857Y-16781714D01*
X14575714Y-16781714D01*
X14604286Y-16796000D01*
X14618571Y-16824572D01*
X14618571Y-16981714D01*
X14804286Y-16981714D02*
X14775714Y-16967429D01*
X14761428Y-16953143D01*
X14747143Y-16924572D01*
X14747143Y-16838857D01*
X14761428Y-16810286D01*
X14775714Y-16796000D01*
X14804286Y-16781714D01*
X14847143Y-16781714D01*
X14875714Y-16796000D01*
X14890000Y-16810286D01*
X14904286Y-16838857D01*
X14904286Y-16924572D01*
X14890000Y-16953143D01*
X14875714Y-16967429D01*
X14847143Y-16981714D01*
X14804286Y-16981714D01*
X14990000Y-16781714D02*
X15104286Y-16781714D01*
X15032857Y-16681714D02*
X15032857Y-16938857D01*
X15047143Y-16967429D01*
X15075714Y-16981714D01*
X15104286Y-16981714D01*
X15432857Y-16781714D02*
X15432857Y-17081714D01*
X15432857Y-16796000D02*
X15461428Y-16781714D01*
X15518571Y-16781714D01*
X15547143Y-16796000D01*
X15561428Y-16810286D01*
X15575714Y-16838857D01*
X15575714Y-16924572D01*
X15561428Y-16953143D01*
X15547143Y-16967429D01*
X15518571Y-16981714D01*
X15461428Y-16981714D01*
X15432857Y-16967429D01*
X15747143Y-16981714D02*
X15718571Y-16967429D01*
X15704286Y-16938857D01*
X15704286Y-16681714D01*
X15990000Y-16981714D02*
X15990000Y-16824572D01*
X15975714Y-16796000D01*
X15947143Y-16781714D01*
X15890000Y-16781714D01*
X15861428Y-16796000D01*
X15990000Y-16967429D02*
X15961428Y-16981714D01*
X15890000Y-16981714D01*
X15861428Y-16967429D01*
X15847143Y-16938857D01*
X15847143Y-16910286D01*
X15861428Y-16881714D01*
X15890000Y-16867429D01*
X15961428Y-16867429D01*
X15990000Y-16853143D01*
X16090000Y-16781714D02*
X16204286Y-16781714D01*
X16132857Y-16681714D02*
X16132857Y-16938857D01*
X16147143Y-16967429D01*
X16175714Y-16981714D01*
X16204286Y-16981714D01*
X16418571Y-16967429D02*
X16390000Y-16981714D01*
X16332857Y-16981714D01*
X16304286Y-16967429D01*
X16290000Y-16938857D01*
X16290000Y-16824572D01*
X16304286Y-16796000D01*
X16332857Y-16781714D01*
X16390000Y-16781714D01*
X16418571Y-16796000D01*
X16432857Y-16824572D01*
X16432857Y-16853143D01*
X16290000Y-16881714D01*
X16690000Y-16981714D02*
X16690000Y-16681714D01*
X16690000Y-16967429D02*
X16661428Y-16981714D01*
X16604286Y-16981714D01*
X16575714Y-16967429D01*
X16561428Y-16953143D01*
X16547143Y-16924572D01*
X16547143Y-16838857D01*
X16561428Y-16810286D01*
X16575714Y-16796000D01*
X16604286Y-16781714D01*
X16661428Y-16781714D01*
X16690000Y-16796000D01*
X16804286Y-17096000D02*
X16818571Y-17081714D01*
X16847143Y-17038857D01*
X16861428Y-17010286D01*
X16875714Y-16967429D01*
X16890000Y-16896000D01*
X16890000Y-16838857D01*
X16875714Y-16767429D01*
X16861428Y-16724571D01*
X16847143Y-16696000D01*
X16818571Y-16653143D01*
X16804286Y-16638857D01*
X6622600Y-17089600D02*
X6622600Y-17394400D01*
X6470200Y-17242000D02*
X6775000Y-17242000D01*
X7032857Y-17077714D02*
X7218571Y-17077714D01*
X7118571Y-17192000D01*
X7161428Y-17192000D01*
X7190000Y-17206286D01*
X7204286Y-17220572D01*
X7218571Y-17249143D01*
X7218571Y-17320572D01*
X7204286Y-17349143D01*
X7190000Y-17363429D01*
X7161428Y-17377714D01*
X7075714Y-17377714D01*
X7047143Y-17363429D01*
X7032857Y-17349143D01*
X7347143Y-17349143D02*
X7361428Y-17363429D01*
X7347143Y-17377714D01*
X7332857Y-17363429D01*
X7347143Y-17349143D01*
X7347143Y-17377714D01*
X7547143Y-17077714D02*
X7575714Y-17077714D01*
X7604286Y-17092000D01*
X7618571Y-17106286D01*
X7632857Y-17134857D01*
X7647143Y-17192000D01*
X7647143Y-17263429D01*
X7632857Y-17320572D01*
X7618571Y-17349143D01*
X7604286Y-17363429D01*
X7575714Y-17377714D01*
X7547143Y-17377714D01*
X7518571Y-17363429D01*
X7504286Y-17349143D01*
X7490000Y-17320572D01*
X7475714Y-17263429D01*
X7475714Y-17192000D01*
X7490000Y-17134857D01*
X7504286Y-17106286D01*
X7518571Y-17092000D01*
X7547143Y-17077714D01*
X7904286Y-17177714D02*
X7904286Y-17377714D01*
X7832857Y-17063429D02*
X7761428Y-17277714D01*
X7947143Y-17277714D01*
X8104286Y-17206286D02*
X8075714Y-17192000D01*
X8061428Y-17177714D01*
X8047143Y-17149143D01*
X8047143Y-17134857D01*
X8061428Y-17106286D01*
X8075714Y-17092000D01*
X8104286Y-17077714D01*
X8161428Y-17077714D01*
X8190000Y-17092000D01*
X8204286Y-17106286D01*
X8218571Y-17134857D01*
X8218571Y-17149143D01*
X8204286Y-17177714D01*
X8190000Y-17192000D01*
X8161428Y-17206286D01*
X8104286Y-17206286D01*
X8075714Y-17220572D01*
X8061428Y-17234857D01*
X8047143Y-17263429D01*
X8047143Y-17320572D01*
X8061428Y-17349143D01*
X8075714Y-17363429D01*
X8104286Y-17377714D01*
X8161428Y-17377714D01*
X8190000Y-17363429D01*
X8204286Y-17349143D01*
X8218571Y-17320572D01*
X8218571Y-17263429D01*
X8204286Y-17234857D01*
X8190000Y-17220572D01*
X8161428Y-17206286D01*
X8347143Y-17377714D02*
X8347143Y-17177714D01*
X8347143Y-17206286D02*
X8361428Y-17192000D01*
X8390000Y-17177714D01*
X8432857Y-17177714D01*
X8461428Y-17192000D01*
X8475714Y-17220572D01*
X8475714Y-17377714D01*
X8475714Y-17220572D02*
X8490000Y-17192000D01*
X8518571Y-17177714D01*
X8561428Y-17177714D01*
X8590000Y-17192000D01*
X8604286Y-17220572D01*
X8604286Y-17377714D01*
X8747143Y-17377714D02*
X8747143Y-17177714D01*
X8747143Y-17206286D02*
X8761428Y-17192000D01*
X8790000Y-17177714D01*
X8832857Y-17177714D01*
X8861428Y-17192000D01*
X8875714Y-17220572D01*
X8875714Y-17377714D01*
X8875714Y-17220572D02*
X8890000Y-17192000D01*
X8918571Y-17177714D01*
X8961428Y-17177714D01*
X8990000Y-17192000D01*
X9004286Y-17220572D01*
X9004286Y-17377714D01*
X9590000Y-17063429D02*
X9332857Y-17449143D01*
X9975714Y-17077714D02*
X10004286Y-17077714D01*
X10032857Y-17092000D01*
X10047143Y-17106286D01*
X10061428Y-17134857D01*
X10075714Y-17192000D01*
X10075714Y-17263429D01*
X10061428Y-17320572D01*
X10047143Y-17349143D01*
X10032857Y-17363429D01*
X10004286Y-17377714D01*
X9975714Y-17377714D01*
X9947143Y-17363429D01*
X9932857Y-17349143D01*
X9918571Y-17320572D01*
X9904286Y-17263429D01*
X9904286Y-17192000D01*
X9918571Y-17134857D01*
X9932857Y-17106286D01*
X9947143Y-17092000D01*
X9975714Y-17077714D01*
X10204286Y-17349143D02*
X10218571Y-17363429D01*
X10204286Y-17377714D01*
X10190000Y-17363429D01*
X10204286Y-17349143D01*
X10204286Y-17377714D01*
X10504286Y-17377714D02*
X10332857Y-17377714D01*
X10418571Y-17377714D02*
X10418571Y-17077714D01*
X10390000Y-17120572D01*
X10361428Y-17149143D01*
X10332857Y-17163429D01*
X10618571Y-17106286D02*
X10632857Y-17092000D01*
X10661428Y-17077714D01*
X10732857Y-17077714D01*
X10761428Y-17092000D01*
X10775714Y-17106286D01*
X10790000Y-17134857D01*
X10790000Y-17163429D01*
X10775714Y-17206286D01*
X10604286Y-17377714D01*
X10790000Y-17377714D01*
X10975714Y-17077714D02*
X11004286Y-17077714D01*
X11032857Y-17092000D01*
X11047143Y-17106286D01*
X11061428Y-17134857D01*
X11075714Y-17192000D01*
X11075714Y-17263429D01*
X11061428Y-17320572D01*
X11047143Y-17349143D01*
X11032857Y-17363429D01*
X11004286Y-17377714D01*
X10975714Y-17377714D01*
X10947143Y-17363429D01*
X10932857Y-17349143D01*
X10918571Y-17320572D01*
X10904286Y-17263429D01*
X10904286Y-17192000D01*
X10918571Y-17134857D01*
X10932857Y-17106286D01*
X10947143Y-17092000D01*
X10975714Y-17077714D01*
X11261428Y-17077714D02*
X11290000Y-17077714D01*
X11318571Y-17092000D01*
X11332857Y-17106286D01*
X11347143Y-17134857D01*
X11361428Y-17192000D01*
X11361428Y-17263429D01*
X11347143Y-17320572D01*
X11332857Y-17349143D01*
X11318571Y-17363429D01*
X11290000Y-17377714D01*
X11261428Y-17377714D01*
X11232857Y-17363429D01*
X11218571Y-17349143D01*
X11204286Y-17320572D01*
X11190000Y-17263429D01*
X11190000Y-17192000D01*
X11204286Y-17134857D01*
X11218571Y-17106286D01*
X11232857Y-17092000D01*
X11261428Y-17077714D01*
X11475714Y-17077714D02*
X11475714Y-17134857D01*
X11590000Y-17077714D02*
X11590000Y-17134857D01*
X12032857Y-17492000D02*
X12018571Y-17477714D01*
X11990000Y-17434857D01*
X11975714Y-17406286D01*
X11961428Y-17363429D01*
X11947143Y-17292000D01*
X11947143Y-17234857D01*
X11961428Y-17163429D01*
X11975714Y-17120572D01*
X11990000Y-17092000D01*
X12018571Y-17049143D01*
X12032857Y-17034857D01*
X12275714Y-17077714D02*
X12218571Y-17077714D01*
X12190000Y-17092000D01*
X12175714Y-17106286D01*
X12147143Y-17149143D01*
X12132857Y-17206286D01*
X12132857Y-17320572D01*
X12147143Y-17349143D01*
X12161428Y-17363429D01*
X12190000Y-17377714D01*
X12247143Y-17377714D01*
X12275714Y-17363429D01*
X12290000Y-17349143D01*
X12304286Y-17320572D01*
X12304286Y-17249143D01*
X12290000Y-17220572D01*
X12275714Y-17206286D01*
X12247143Y-17192000D01*
X12190000Y-17192000D01*
X12161428Y-17206286D01*
X12147143Y-17220572D01*
X12132857Y-17249143D01*
X12661428Y-17377714D02*
X12661428Y-17077714D01*
X12790000Y-17377714D02*
X12790000Y-17220572D01*
X12775714Y-17192000D01*
X12747143Y-17177714D01*
X12704286Y-17177714D01*
X12675714Y-17192000D01*
X12661428Y-17206286D01*
X12975714Y-17377714D02*
X12947143Y-17363429D01*
X12932857Y-17349143D01*
X12918571Y-17320572D01*
X12918571Y-17234857D01*
X12932857Y-17206286D01*
X12947143Y-17192000D01*
X12975714Y-17177714D01*
X13018571Y-17177714D01*
X13047143Y-17192000D01*
X13061428Y-17206286D01*
X13075714Y-17234857D01*
X13075714Y-17320572D01*
X13061428Y-17349143D01*
X13047143Y-17363429D01*
X13018571Y-17377714D01*
X12975714Y-17377714D01*
X13247143Y-17377714D02*
X13218571Y-17363429D01*
X13204286Y-17334857D01*
X13204286Y-17077714D01*
X13475714Y-17363429D02*
X13447143Y-17377714D01*
X13390000Y-17377714D01*
X13361428Y-17363429D01*
X13347143Y-17334857D01*
X13347143Y-17220572D01*
X13361428Y-17192000D01*
X13390000Y-17177714D01*
X13447143Y-17177714D01*
X13475714Y-17192000D01*
X13490000Y-17220572D01*
X13490000Y-17249143D01*
X13347143Y-17277714D01*
X13604286Y-17363429D02*
X13632857Y-17377714D01*
X13690000Y-17377714D01*
X13718571Y-17363429D01*
X13732857Y-17334857D01*
X13732857Y-17320572D01*
X13718571Y-17292000D01*
X13690000Y-17277714D01*
X13647143Y-17277714D01*
X13618571Y-17263429D01*
X13604286Y-17234857D01*
X13604286Y-17220572D01*
X13618571Y-17192000D01*
X13647143Y-17177714D01*
X13690000Y-17177714D01*
X13718571Y-17192000D01*
X13832857Y-17492000D02*
X13847143Y-17477714D01*
X13875714Y-17434857D01*
X13890000Y-17406286D01*
X13904286Y-17363429D01*
X13918571Y-17292000D01*
X13918571Y-17234857D01*
X13904286Y-17163429D01*
X13890000Y-17120572D01*
X13875714Y-17092000D01*
X13847143Y-17049143D01*
X13832857Y-17034857D01*
X14375714Y-17492000D02*
X14361428Y-17477714D01*
X14332857Y-17434857D01*
X14318571Y-17406286D01*
X14304286Y-17363429D01*
X14290000Y-17292000D01*
X14290000Y-17234857D01*
X14304286Y-17163429D01*
X14318571Y-17120572D01*
X14332857Y-17092000D01*
X14361428Y-17049143D01*
X14375714Y-17034857D01*
X14490000Y-17177714D02*
X14490000Y-17377714D01*
X14490000Y-17206286D02*
X14504286Y-17192000D01*
X14532857Y-17177714D01*
X14575714Y-17177714D01*
X14604286Y-17192000D01*
X14618571Y-17220572D01*
X14618571Y-17377714D01*
X14804286Y-17377714D02*
X14775714Y-17363429D01*
X14761428Y-17349143D01*
X14747143Y-17320572D01*
X14747143Y-17234857D01*
X14761428Y-17206286D01*
X14775714Y-17192000D01*
X14804286Y-17177714D01*
X14847143Y-17177714D01*
X14875714Y-17192000D01*
X14890000Y-17206286D01*
X14904286Y-17234857D01*
X14904286Y-17320572D01*
X14890000Y-17349143D01*
X14875714Y-17363429D01*
X14847143Y-17377714D01*
X14804286Y-17377714D01*
X14990000Y-17177714D02*
X15104286Y-17177714D01*
X15032857Y-17077714D02*
X15032857Y-17334857D01*
X15047143Y-17363429D01*
X15075714Y-17377714D01*
X15104286Y-17377714D01*
X15432857Y-17177714D02*
X15432857Y-17477714D01*
X15432857Y-17192000D02*
X15461428Y-17177714D01*
X15518571Y-17177714D01*
X15547143Y-17192000D01*
X15561428Y-17206286D01*
X15575714Y-17234857D01*
X15575714Y-17320572D01*
X15561428Y-17349143D01*
X15547143Y-17363429D01*
X15518571Y-17377714D01*
X15461428Y-17377714D01*
X15432857Y-17363429D01*
X15747143Y-17377714D02*
X15718571Y-17363429D01*
X15704286Y-17334857D01*
X15704286Y-17077714D01*
X15990000Y-17377714D02*
X15990000Y-17220572D01*
X15975714Y-17192000D01*
X15947143Y-17177714D01*
X15890000Y-17177714D01*
X15861428Y-17192000D01*
X15990000Y-17363429D02*
X15961428Y-17377714D01*
X15890000Y-17377714D01*
X15861428Y-17363429D01*
X15847143Y-17334857D01*
X15847143Y-17306286D01*
X15861428Y-17277714D01*
X15890000Y-17263429D01*
X15961428Y-17263429D01*
X15990000Y-17249143D01*
X16090000Y-17177714D02*
X16204286Y-17177714D01*
X16132857Y-17077714D02*
X16132857Y-17334857D01*
X16147143Y-17363429D01*
X16175714Y-17377714D01*
X16204286Y-17377714D01*
X16418571Y-17363429D02*
X16390000Y-17377714D01*
X16332857Y-17377714D01*
X16304286Y-17363429D01*
X16290000Y-17334857D01*
X16290000Y-17220572D01*
X16304286Y-17192000D01*
X16332857Y-17177714D01*
X16390000Y-17177714D01*
X16418571Y-17192000D01*
X16432857Y-17220572D01*
X16432857Y-17249143D01*
X16290000Y-17277714D01*
X16690000Y-17377714D02*
X16690000Y-17077714D01*
X16690000Y-17363429D02*
X16661428Y-17377714D01*
X16604286Y-17377714D01*
X16575714Y-17363429D01*
X16561428Y-17349143D01*
X16547143Y-17320572D01*
X16547143Y-17234857D01*
X16561428Y-17206286D01*
X16575714Y-17192000D01*
X16604286Y-17177714D01*
X16661428Y-17177714D01*
X16690000Y-17192000D01*
X16804286Y-17492000D02*
X16818571Y-17477714D01*
X16847143Y-17434857D01*
X16861428Y-17406286D01*
X16875714Y-17363429D01*
X16890000Y-17292000D01*
X16890000Y-17234857D01*
X16875714Y-17163429D01*
X16861428Y-17120572D01*
X16847143Y-17092000D01*
X16818571Y-17049143D01*
X16804286Y-17034857D01*
X6716601Y-17817792D02*
X6716601Y-17535809D01*
X6434618Y-17535809D01*
X6434618Y-17817792D01*
X6716601Y-17817792D01*
X7032857Y-17512514D02*
X7218571Y-17512514D01*
X7118571Y-17626800D01*
X7161428Y-17626800D01*
X7190000Y-17641086D01*
X7204286Y-17655372D01*
X7218571Y-17683943D01*
X7218571Y-17755372D01*
X7204286Y-17783943D01*
X7190000Y-17798229D01*
X7161428Y-17812514D01*
X7075714Y-17812514D01*
X7047143Y-17798229D01*
X7032857Y-17783943D01*
X7347143Y-17783943D02*
X7361428Y-17798229D01*
X7347143Y-17812514D01*
X7332857Y-17798229D01*
X7347143Y-17783943D01*
X7347143Y-17812514D01*
X7504286Y-17812514D02*
X7561428Y-17812514D01*
X7590000Y-17798229D01*
X7604286Y-17783943D01*
X7632857Y-17741086D01*
X7647143Y-17683943D01*
X7647143Y-17569657D01*
X7632857Y-17541086D01*
X7618571Y-17526800D01*
X7590000Y-17512514D01*
X7532857Y-17512514D01*
X7504286Y-17526800D01*
X7490000Y-17541086D01*
X7475714Y-17569657D01*
X7475714Y-17641086D01*
X7490000Y-17669657D01*
X7504286Y-17683943D01*
X7532857Y-17698229D01*
X7590000Y-17698229D01*
X7618571Y-17683943D01*
X7632857Y-17669657D01*
X7647143Y-17641086D01*
X7818571Y-17641086D02*
X7790000Y-17626800D01*
X7775714Y-17612514D01*
X7761428Y-17583943D01*
X7761428Y-17569657D01*
X7775714Y-17541086D01*
X7790000Y-17526800D01*
X7818571Y-17512514D01*
X7875714Y-17512514D01*
X7904286Y-17526800D01*
X7918571Y-17541086D01*
X7932857Y-17569657D01*
X7932857Y-17583943D01*
X7918571Y-17612514D01*
X7904286Y-17626800D01*
X7875714Y-17641086D01*
X7818571Y-17641086D01*
X7790000Y-17655372D01*
X7775714Y-17669657D01*
X7761428Y-17698229D01*
X7761428Y-17755372D01*
X7775714Y-17783943D01*
X7790000Y-17798229D01*
X7818571Y-17812514D01*
X7875714Y-17812514D01*
X7904286Y-17798229D01*
X7918571Y-17783943D01*
X7932857Y-17755372D01*
X7932857Y-17698229D01*
X7918571Y-17669657D01*
X7904286Y-17655372D01*
X7875714Y-17641086D01*
X8104286Y-17641086D02*
X8075714Y-17626800D01*
X8061428Y-17612514D01*
X8047143Y-17583943D01*
X8047143Y-17569657D01*
X8061428Y-17541086D01*
X8075714Y-17526800D01*
X8104286Y-17512514D01*
X8161428Y-17512514D01*
X8190000Y-17526800D01*
X8204286Y-17541086D01*
X8218571Y-17569657D01*
X8218571Y-17583943D01*
X8204286Y-17612514D01*
X8190000Y-17626800D01*
X8161428Y-17641086D01*
X8104286Y-17641086D01*
X8075714Y-17655372D01*
X8061428Y-17669657D01*
X8047143Y-17698229D01*
X8047143Y-17755372D01*
X8061428Y-17783943D01*
X8075714Y-17798229D01*
X8104286Y-17812514D01*
X8161428Y-17812514D01*
X8190000Y-17798229D01*
X8204286Y-17783943D01*
X8218571Y-17755372D01*
X8218571Y-17698229D01*
X8204286Y-17669657D01*
X8190000Y-17655372D01*
X8161428Y-17641086D01*
X8347143Y-17812514D02*
X8347143Y-17612514D01*
X8347143Y-17641086D02*
X8361428Y-17626800D01*
X8390000Y-17612514D01*
X8432857Y-17612514D01*
X8461428Y-17626800D01*
X8475714Y-17655372D01*
X8475714Y-17812514D01*
X8475714Y-17655372D02*
X8490000Y-17626800D01*
X8518571Y-17612514D01*
X8561428Y-17612514D01*
X8590000Y-17626800D01*
X8604286Y-17655372D01*
X8604286Y-17812514D01*
X8747143Y-17812514D02*
X8747143Y-17612514D01*
X8747143Y-17641086D02*
X8761428Y-17626800D01*
X8790000Y-17612514D01*
X8832857Y-17612514D01*
X8861428Y-17626800D01*
X8875714Y-17655372D01*
X8875714Y-17812514D01*
X8875714Y-17655372D02*
X8890000Y-17626800D01*
X8918571Y-17612514D01*
X8961428Y-17612514D01*
X8990000Y-17626800D01*
X9004286Y-17655372D01*
X9004286Y-17812514D01*
X9590000Y-17498229D02*
X9332857Y-17883943D01*
X9975714Y-17512514D02*
X10004286Y-17512514D01*
X10032857Y-17526800D01*
X10047143Y-17541086D01*
X10061428Y-17569657D01*
X10075714Y-17626800D01*
X10075714Y-17698229D01*
X10061428Y-17755372D01*
X10047143Y-17783943D01*
X10032857Y-17798229D01*
X10004286Y-17812514D01*
X9975714Y-17812514D01*
X9947143Y-17798229D01*
X9932857Y-17783943D01*
X9918571Y-17755372D01*
X9904286Y-17698229D01*
X9904286Y-17626800D01*
X9918571Y-17569657D01*
X9932857Y-17541086D01*
X9947143Y-17526800D01*
X9975714Y-17512514D01*
X10204286Y-17783943D02*
X10218571Y-17798229D01*
X10204286Y-17812514D01*
X10190000Y-17798229D01*
X10204286Y-17783943D01*
X10204286Y-17812514D01*
X10504286Y-17812514D02*
X10332857Y-17812514D01*
X10418571Y-17812514D02*
X10418571Y-17512514D01*
X10390000Y-17555372D01*
X10361428Y-17583943D01*
X10332857Y-17598229D01*
X10775714Y-17512514D02*
X10632857Y-17512514D01*
X10618571Y-17655372D01*
X10632857Y-17641086D01*
X10661428Y-17626800D01*
X10732857Y-17626800D01*
X10761428Y-17641086D01*
X10775714Y-17655372D01*
X10790000Y-17683943D01*
X10790000Y-17755372D01*
X10775714Y-17783943D01*
X10761428Y-17798229D01*
X10732857Y-17812514D01*
X10661428Y-17812514D01*
X10632857Y-17798229D01*
X10618571Y-17783943D01*
X10890000Y-17512514D02*
X11090000Y-17512514D01*
X10961428Y-17812514D01*
X11261428Y-17512514D02*
X11290000Y-17512514D01*
X11318571Y-17526800D01*
X11332857Y-17541086D01*
X11347143Y-17569657D01*
X11361428Y-17626800D01*
X11361428Y-17698229D01*
X11347143Y-17755372D01*
X11332857Y-17783943D01*
X11318571Y-17798229D01*
X11290000Y-17812514D01*
X11261428Y-17812514D01*
X11232857Y-17798229D01*
X11218571Y-17783943D01*
X11204286Y-17755372D01*
X11190000Y-17698229D01*
X11190000Y-17626800D01*
X11204286Y-17569657D01*
X11218571Y-17541086D01*
X11232857Y-17526800D01*
X11261428Y-17512514D01*
X11475714Y-17512514D02*
X11475714Y-17569657D01*
X11590000Y-17512514D02*
X11590000Y-17569657D01*
X12032857Y-17926800D02*
X12018571Y-17912514D01*
X11990000Y-17869657D01*
X11975714Y-17841086D01*
X11961428Y-17798229D01*
X11947143Y-17726800D01*
X11947143Y-17669657D01*
X11961428Y-17598229D01*
X11975714Y-17555372D01*
X11990000Y-17526800D01*
X12018571Y-17483943D01*
X12032857Y-17469657D01*
X12132857Y-17541086D02*
X12147143Y-17526800D01*
X12175714Y-17512514D01*
X12247143Y-17512514D01*
X12275714Y-17526800D01*
X12290000Y-17541086D01*
X12304286Y-17569657D01*
X12304286Y-17598229D01*
X12290000Y-17641086D01*
X12118571Y-17812514D01*
X12304286Y-17812514D01*
X12404286Y-17512514D02*
X12590000Y-17512514D01*
X12490000Y-17626800D01*
X12532857Y-17626800D01*
X12561428Y-17641086D01*
X12575714Y-17655372D01*
X12590000Y-17683943D01*
X12590000Y-17755372D01*
X12575714Y-17783943D01*
X12561428Y-17798229D01*
X12532857Y-17812514D01*
X12447143Y-17812514D01*
X12418571Y-17798229D01*
X12404286Y-17783943D01*
X12947143Y-17812514D02*
X12947143Y-17512514D01*
X13075714Y-17812514D02*
X13075714Y-17655372D01*
X13061428Y-17626800D01*
X13032857Y-17612514D01*
X12990000Y-17612514D01*
X12961428Y-17626800D01*
X12947143Y-17641086D01*
X13261428Y-17812514D02*
X13232857Y-17798229D01*
X13218571Y-17783943D01*
X13204286Y-17755372D01*
X13204286Y-17669657D01*
X13218571Y-17641086D01*
X13232857Y-17626800D01*
X13261428Y-17612514D01*
X13304286Y-17612514D01*
X13332857Y-17626800D01*
X13347143Y-17641086D01*
X13361428Y-17669657D01*
X13361428Y-17755372D01*
X13347143Y-17783943D01*
X13332857Y-17798229D01*
X13304286Y-17812514D01*
X13261428Y-17812514D01*
X13532857Y-17812514D02*
X13504286Y-17798229D01*
X13490000Y-17769657D01*
X13490000Y-17512514D01*
X13761428Y-17798229D02*
X13732857Y-17812514D01*
X13675714Y-17812514D01*
X13647143Y-17798229D01*
X13632857Y-17769657D01*
X13632857Y-17655372D01*
X13647143Y-17626800D01*
X13675714Y-17612514D01*
X13732857Y-17612514D01*
X13761428Y-17626800D01*
X13775714Y-17655372D01*
X13775714Y-17683943D01*
X13632857Y-17712514D01*
X13890000Y-17798229D02*
X13918571Y-17812514D01*
X13975714Y-17812514D01*
X14004286Y-17798229D01*
X14018571Y-17769657D01*
X14018571Y-17755372D01*
X14004286Y-17726800D01*
X13975714Y-17712514D01*
X13932857Y-17712514D01*
X13904286Y-17698229D01*
X13890000Y-17669657D01*
X13890000Y-17655372D01*
X13904286Y-17626800D01*
X13932857Y-17612514D01*
X13975714Y-17612514D01*
X14004286Y-17626800D01*
X14118571Y-17926800D02*
X14132857Y-17912514D01*
X14161428Y-17869657D01*
X14175714Y-17841086D01*
X14190000Y-17798229D01*
X14204286Y-17726800D01*
X14204286Y-17669657D01*
X14190000Y-17598229D01*
X14175714Y-17555372D01*
X14161428Y-17526800D01*
X14132857Y-17483943D01*
X14118571Y-17469657D01*
X14661428Y-17926800D02*
X14647143Y-17912514D01*
X14618571Y-17869657D01*
X14604286Y-17841086D01*
X14590000Y-17798229D01*
X14575714Y-17726800D01*
X14575714Y-17669657D01*
X14590000Y-17598229D01*
X14604286Y-17555372D01*
X14618571Y-17526800D01*
X14647143Y-17483943D01*
X14661428Y-17469657D01*
X14775714Y-17612514D02*
X14775714Y-17812514D01*
X14775714Y-17641086D02*
X14790000Y-17626800D01*
X14818571Y-17612514D01*
X14861428Y-17612514D01*
X14890000Y-17626800D01*
X14904286Y-17655372D01*
X14904286Y-17812514D01*
X15090000Y-17812514D02*
X15061428Y-17798229D01*
X15047143Y-17783943D01*
X15032857Y-17755372D01*
X15032857Y-17669657D01*
X15047143Y-17641086D01*
X15061428Y-17626800D01*
X15090000Y-17612514D01*
X15132857Y-17612514D01*
X15161428Y-17626800D01*
X15175714Y-17641086D01*
X15190000Y-17669657D01*
X15190000Y-17755372D01*
X15175714Y-17783943D01*
X15161428Y-17798229D01*
X15132857Y-17812514D01*
X15090000Y-17812514D01*
X15275714Y-17612514D02*
X15390000Y-17612514D01*
X15318571Y-17512514D02*
X15318571Y-17769657D01*
X15332857Y-17798229D01*
X15361428Y-17812514D01*
X15390000Y-17812514D01*
X15718571Y-17612514D02*
X15718571Y-17912514D01*
X15718571Y-17626800D02*
X15747143Y-17612514D01*
X15804286Y-17612514D01*
X15832857Y-17626800D01*
X15847143Y-17641086D01*
X15861428Y-17669657D01*
X15861428Y-17755372D01*
X15847143Y-17783943D01*
X15832857Y-17798229D01*
X15804286Y-17812514D01*
X15747143Y-17812514D01*
X15718571Y-17798229D01*
X16032857Y-17812514D02*
X16004286Y-17798229D01*
X15990000Y-17769657D01*
X15990000Y-17512514D01*
X16275714Y-17812514D02*
X16275714Y-17655372D01*
X16261428Y-17626800D01*
X16232857Y-17612514D01*
X16175714Y-17612514D01*
X16147143Y-17626800D01*
X16275714Y-17798229D02*
X16247143Y-17812514D01*
X16175714Y-17812514D01*
X16147143Y-17798229D01*
X16132857Y-17769657D01*
X16132857Y-17741086D01*
X16147143Y-17712514D01*
X16175714Y-17698229D01*
X16247143Y-17698229D01*
X16275714Y-17683943D01*
X16375714Y-17612514D02*
X16490000Y-17612514D01*
X16418571Y-17512514D02*
X16418571Y-17769657D01*
X16432857Y-17798229D01*
X16461428Y-17812514D01*
X16490000Y-17812514D01*
X16704286Y-17798229D02*
X16675714Y-17812514D01*
X16618571Y-17812514D01*
X16590000Y-17798229D01*
X16575714Y-17769657D01*
X16575714Y-17655372D01*
X16590000Y-17626800D01*
X16618571Y-17612514D01*
X16675714Y-17612514D01*
X16704286Y-17626800D01*
X16718571Y-17655372D01*
X16718571Y-17683943D01*
X16575714Y-17712514D01*
X16975714Y-17812514D02*
X16975714Y-17512514D01*
X16975714Y-17798229D02*
X16947143Y-17812514D01*
X16890000Y-17812514D01*
X16861428Y-17798229D01*
X16847143Y-17783943D01*
X16832857Y-17755372D01*
X16832857Y-17669657D01*
X16847143Y-17641086D01*
X16861428Y-17626800D01*
X16890000Y-17612514D01*
X16947143Y-17612514D01*
X16975714Y-17626800D01*
X17090000Y-17926800D02*
X17104286Y-17912514D01*
X17132857Y-17869657D01*
X17147143Y-17841086D01*
X17161428Y-17798229D01*
X17175714Y-17726800D01*
X17175714Y-17669657D01*
X17161428Y-17598229D01*
X17147143Y-17555372D01*
X17132857Y-17526800D01*
X17104286Y-17483943D01*
X17090000Y-17469657D01*
M02*
