%FSLAX45Y45*%
G04 Gerber Fmt 4.5, Leading zero omitted, Abs format (unit mm)*
G04 Created by KiCad (PCBNEW (5.1.10)-1) date 2021-09-20 14:50:28*
%MOMM*%
%LPD*%
G01*
G04 APERTURE LIST*
%TA.AperFunction,Profile*%
%ADD10C,0.100000*%
%TD*%
%ADD11C,0.200000*%
%ADD12C,0.300000*%
G04 APERTURE END LIST*
D10*
X6820000Y-15485000D02*
G75*
G02*
X6780000Y-15445000I0J40000D01*
G01*
X18020000Y-15445000D02*
G75*
G02*
X17980000Y-15485000I-40000J0D01*
G01*
X17980000Y-5880000D02*
G75*
G02*
X18020000Y-5920000I0J-40000D01*
G01*
X6780000Y-5920000D02*
G75*
G02*
X6820000Y-5880000I40000J0D01*
G01*
X6780000Y-15445000D02*
X6780000Y-5920000D01*
X17980000Y-15485000D02*
X6820000Y-15485000D01*
X18020000Y-5920000D02*
X18020000Y-15445000D01*
X6820000Y-5880000D02*
X17980000Y-5880000D01*
D11*
X9895000Y-11080000D02*
X9935000Y-11120000D01*
X9935000Y-11080000D02*
X9895000Y-11120000D01*
X9940000Y-8730000D02*
X9980000Y-8770000D01*
X9980000Y-8730000D02*
X9940000Y-8770000D01*
X7320000Y-13360000D02*
G75*
G03*
X7320000Y-13360000I-40000J0D01*
G01*
X7640000Y-14800000D02*
G75*
G03*
X7640000Y-14800000I-40000J0D01*
G01*
X7760000Y-13360000D02*
G75*
G03*
X7760000Y-13360000I-40000J0D01*
G01*
X7820000Y-11920000D02*
G75*
G03*
X7820000Y-11920000I-40000J0D01*
G01*
X7858815Y-12821185D02*
G75*
G03*
X7858815Y-12821185I-40000J0D01*
G01*
X7920000Y-14080000D02*
G75*
G03*
X7920000Y-14080000I-40000J0D01*
G01*
X8040000Y-12640000D02*
G75*
G03*
X8040000Y-12640000I-40000J0D01*
G01*
X8080000Y-14800000D02*
G75*
G03*
X8080000Y-14800000I-40000J0D01*
G01*
X8178815Y-14261185D02*
G75*
G03*
X8178815Y-14261185I-40000J0D01*
G01*
X8200000Y-13360000D02*
G75*
G03*
X8200000Y-13360000I-40000J0D01*
G01*
X8298815Y-12821185D02*
G75*
G03*
X8298815Y-12821185I-40000J0D01*
G01*
X8320000Y-11920000D02*
G75*
G03*
X8320000Y-11920000I-40000J0D01*
G01*
X8358815Y-11381185D02*
G75*
G03*
X8358815Y-11381185I-40000J0D01*
G01*
X8360000Y-14080000D02*
G75*
G03*
X8360000Y-14080000I-40000J0D01*
G01*
X8458815Y-13541185D02*
G75*
G03*
X8458815Y-13541185I-40000J0D01*
G01*
X8480000Y-12640000D02*
G75*
G03*
X8480000Y-12640000I-40000J0D01*
G01*
X8520000Y-14800000D02*
G75*
G03*
X8520000Y-14800000I-40000J0D01*
G01*
X8578815Y-12101185D02*
G75*
G03*
X8578815Y-12101185I-40000J0D01*
G01*
X8618815Y-14261185D02*
G75*
G03*
X8618815Y-14261185I-40000J0D01*
G01*
X8640000Y-13360000D02*
G75*
G03*
X8640000Y-13360000I-40000J0D01*
G01*
X8738815Y-12821185D02*
G75*
G03*
X8738815Y-12821185I-40000J0D01*
G01*
X8760000Y-11920000D02*
G75*
G03*
X8760000Y-11920000I-40000J0D01*
G01*
X8800000Y-14080000D02*
G75*
G03*
X8800000Y-14080000I-40000J0D01*
G01*
X8858815Y-11381185D02*
G75*
G03*
X8858815Y-11381185I-40000J0D01*
G01*
X8898815Y-13541185D02*
G75*
G03*
X8898815Y-13541185I-40000J0D01*
G01*
X8920000Y-12640000D02*
G75*
G03*
X8920000Y-12640000I-40000J0D01*
G01*
X9018815Y-12101185D02*
G75*
G03*
X9018815Y-12101185I-40000J0D01*
G01*
X9058815Y-14261185D02*
G75*
G03*
X9058815Y-14261185I-40000J0D01*
G01*
X9178815Y-12821185D02*
G75*
G03*
X9178815Y-12821185I-40000J0D01*
G01*
X9200000Y-11920000D02*
G75*
G03*
X9200000Y-11920000I-40000J0D01*
G01*
X9298815Y-11381185D02*
G75*
G03*
X9298815Y-11381185I-40000J0D01*
G01*
X9338815Y-13541185D02*
G75*
G03*
X9338815Y-13541185I-40000J0D01*
G01*
X9458815Y-12101185D02*
G75*
G03*
X9458815Y-12101185I-40000J0D01*
G01*
X9738815Y-11381185D02*
G75*
G03*
X9738815Y-11381185I-40000J0D01*
G01*
X7691000Y-6016000D02*
X7691000Y-6118000D01*
X7640000Y-6067000D02*
X7742000Y-6067000D01*
X7691000Y-6270000D02*
X7691000Y-6372000D01*
X7640000Y-6321000D02*
X7742000Y-6321000D01*
X7691000Y-6524000D02*
X7691000Y-6626000D01*
X7640000Y-6575000D02*
X7742000Y-6575000D01*
X7691000Y-6778000D02*
X7691000Y-6880000D01*
X7640000Y-6829000D02*
X7742000Y-6829000D01*
X7691000Y-7032000D02*
X7691000Y-7134000D01*
X7640000Y-7083000D02*
X7742000Y-7083000D01*
X7691000Y-7286000D02*
X7691000Y-7388000D01*
X7640000Y-7337000D02*
X7742000Y-7337000D01*
X7691000Y-7540000D02*
X7691000Y-7642000D01*
X7640000Y-7591000D02*
X7742000Y-7591000D01*
X7691000Y-7794000D02*
X7691000Y-7896000D01*
X7640000Y-7845000D02*
X7742000Y-7845000D01*
X7691000Y-8048000D02*
X7691000Y-8150000D01*
X7640000Y-8099000D02*
X7742000Y-8099000D01*
X7691000Y-8302000D02*
X7691000Y-8404000D01*
X7640000Y-8353000D02*
X7742000Y-8353000D01*
X7691000Y-8556000D02*
X7691000Y-8658000D01*
X7640000Y-8607000D02*
X7742000Y-8607000D01*
X7691000Y-8810000D02*
X7691000Y-8912000D01*
X7640000Y-8861000D02*
X7742000Y-8861000D01*
X7691000Y-9064000D02*
X7691000Y-9166000D01*
X7640000Y-9115000D02*
X7742000Y-9115000D01*
X7691000Y-9318000D02*
X7691000Y-9420000D01*
X7640000Y-9369000D02*
X7742000Y-9369000D01*
X7691000Y-9572000D02*
X7691000Y-9674000D01*
X7640000Y-9623000D02*
X7742000Y-9623000D01*
X7691000Y-9826000D02*
X7691000Y-9928000D01*
X7640000Y-9877000D02*
X7742000Y-9877000D01*
X7691000Y-10080000D02*
X7691000Y-10182000D01*
X7640000Y-10131000D02*
X7742000Y-10131000D01*
X7691000Y-10334000D02*
X7691000Y-10436000D01*
X7640000Y-10385000D02*
X7742000Y-10385000D01*
X7691000Y-10588000D02*
X7691000Y-10690000D01*
X7640000Y-10639000D02*
X7742000Y-10639000D01*
X7691000Y-10842000D02*
X7691000Y-10944000D01*
X7640000Y-10893000D02*
X7742000Y-10893000D01*
X8326000Y-10819000D02*
X8326000Y-10921000D01*
X8275000Y-10870000D02*
X8377000Y-10870000D01*
X8580000Y-10819000D02*
X8580000Y-10921000D01*
X8529000Y-10870000D02*
X8631000Y-10870000D01*
X8834000Y-10819000D02*
X8834000Y-10921000D01*
X8783000Y-10870000D02*
X8885000Y-10870000D01*
X9469000Y-6016000D02*
X9469000Y-6118000D01*
X9418000Y-6067000D02*
X9520000Y-6067000D01*
X9469000Y-6270000D02*
X9469000Y-6372000D01*
X9418000Y-6321000D02*
X9520000Y-6321000D01*
X9469000Y-6524000D02*
X9469000Y-6626000D01*
X9418000Y-6575000D02*
X9520000Y-6575000D01*
X9469000Y-6778000D02*
X9469000Y-6880000D01*
X9418000Y-6829000D02*
X9520000Y-6829000D01*
X9469000Y-7032000D02*
X9469000Y-7134000D01*
X9418000Y-7083000D02*
X9520000Y-7083000D01*
X9469000Y-7286000D02*
X9469000Y-7388000D01*
X9418000Y-7337000D02*
X9520000Y-7337000D01*
X9469000Y-7540000D02*
X9469000Y-7642000D01*
X9418000Y-7591000D02*
X9520000Y-7591000D01*
X9469000Y-7794000D02*
X9469000Y-7896000D01*
X9418000Y-7845000D02*
X9520000Y-7845000D01*
X9469000Y-8048000D02*
X9469000Y-8150000D01*
X9418000Y-8099000D02*
X9520000Y-8099000D01*
X9469000Y-8302000D02*
X9469000Y-8404000D01*
X9418000Y-8353000D02*
X9520000Y-8353000D01*
X9469000Y-8556000D02*
X9469000Y-8658000D01*
X9418000Y-8607000D02*
X9520000Y-8607000D01*
X9469000Y-8810000D02*
X9469000Y-8912000D01*
X9418000Y-8861000D02*
X9520000Y-8861000D01*
X9469000Y-9064000D02*
X9469000Y-9166000D01*
X9418000Y-9115000D02*
X9520000Y-9115000D01*
X9469000Y-9318000D02*
X9469000Y-9420000D01*
X9418000Y-9369000D02*
X9520000Y-9369000D01*
X9469000Y-9572000D02*
X9469000Y-9674000D01*
X9418000Y-9623000D02*
X9520000Y-9623000D01*
X9469000Y-9826000D02*
X9469000Y-9928000D01*
X9418000Y-9877000D02*
X9520000Y-9877000D01*
X9469000Y-10080000D02*
X9469000Y-10182000D01*
X9418000Y-10131000D02*
X9520000Y-10131000D01*
X9469000Y-10334000D02*
X9469000Y-10436000D01*
X9418000Y-10385000D02*
X9520000Y-10385000D01*
X9469000Y-10588000D02*
X9469000Y-10690000D01*
X9418000Y-10639000D02*
X9520000Y-10639000D01*
X9469000Y-10842000D02*
X9469000Y-10944000D01*
X9418000Y-10893000D02*
X9520000Y-10893000D01*
X10720973Y-6597973D02*
X10720973Y-6494027D01*
X10617027Y-6494027D01*
X10617027Y-6597973D01*
X10720973Y-6597973D01*
X10720973Y-8497973D02*
X10720973Y-8394027D01*
X10617027Y-8394027D01*
X10617027Y-8497973D01*
X10720973Y-8497973D01*
X10720973Y-10397973D02*
X10720973Y-10294027D01*
X10617027Y-10294027D01*
X10617027Y-10397973D01*
X10720973Y-10397973D01*
X10720973Y-12297973D02*
X10720973Y-12194027D01*
X10617027Y-12194027D01*
X10617027Y-12297973D01*
X10720973Y-12297973D01*
X11355973Y-6343973D02*
X11355973Y-6240027D01*
X11252027Y-6240027D01*
X11252027Y-6343973D01*
X11355973Y-6343973D01*
X11355973Y-8243973D02*
X11355973Y-8140027D01*
X11252027Y-8140027D01*
X11252027Y-8243973D01*
X11355973Y-8243973D01*
X11355973Y-10143973D02*
X11355973Y-10040027D01*
X11252027Y-10040027D01*
X11252027Y-10143973D01*
X11355973Y-10143973D01*
X11355973Y-12043973D02*
X11355973Y-11940027D01*
X11252027Y-11940027D01*
X11252027Y-12043973D01*
X11355973Y-12043973D01*
X11670973Y-14197973D02*
X11670973Y-14094027D01*
X11567027Y-14094027D01*
X11567027Y-14197973D01*
X11670973Y-14197973D01*
X12305973Y-13943973D02*
X12305973Y-13840027D01*
X12202027Y-13840027D01*
X12202027Y-13943973D01*
X12305973Y-13943973D01*
X12620973Y-6597973D02*
X12620973Y-6494027D01*
X12517027Y-6494027D01*
X12517027Y-6597973D01*
X12620973Y-6597973D01*
X12620973Y-8497973D02*
X12620973Y-8394027D01*
X12517027Y-8394027D01*
X12517027Y-8497973D01*
X12620973Y-8497973D01*
X12620973Y-10397973D02*
X12620973Y-10294027D01*
X12517027Y-10294027D01*
X12517027Y-10397973D01*
X12620973Y-10397973D01*
X12620973Y-12297973D02*
X12620973Y-12194027D01*
X12517027Y-12194027D01*
X12517027Y-12297973D01*
X12620973Y-12297973D01*
X13255973Y-6343973D02*
X13255973Y-6240027D01*
X13152027Y-6240027D01*
X13152027Y-6343973D01*
X13255973Y-6343973D01*
X13255973Y-8243973D02*
X13255973Y-8140027D01*
X13152027Y-8140027D01*
X13152027Y-8243973D01*
X13255973Y-8243973D01*
X13255973Y-10143973D02*
X13255973Y-10040027D01*
X13152027Y-10040027D01*
X13152027Y-10143973D01*
X13255973Y-10143973D01*
X13255973Y-12043973D02*
X13255973Y-11940027D01*
X13152027Y-11940027D01*
X13152027Y-12043973D01*
X13255973Y-12043973D01*
X14520973Y-6597973D02*
X14520973Y-6494027D01*
X14417027Y-6494027D01*
X14417027Y-6597973D01*
X14520973Y-6597973D01*
X14520973Y-8497973D02*
X14520973Y-8394027D01*
X14417027Y-8394027D01*
X14417027Y-8497973D01*
X14520973Y-8497973D01*
X14520973Y-10397973D02*
X14520973Y-10294027D01*
X14417027Y-10294027D01*
X14417027Y-10397973D01*
X14520973Y-10397973D01*
X14520973Y-12297973D02*
X14520973Y-12194027D01*
X14417027Y-12194027D01*
X14417027Y-12297973D01*
X14520973Y-12297973D01*
X14520973Y-14197973D02*
X14520973Y-14094027D01*
X14417027Y-14094027D01*
X14417027Y-14197973D01*
X14520973Y-14197973D01*
X15155973Y-6343973D02*
X15155973Y-6240027D01*
X15052027Y-6240027D01*
X15052027Y-6343973D01*
X15155973Y-6343973D01*
X15155973Y-8243973D02*
X15155973Y-8140027D01*
X15052027Y-8140027D01*
X15052027Y-8243973D01*
X15155973Y-8243973D01*
X15155973Y-10143973D02*
X15155973Y-10040027D01*
X15052027Y-10040027D01*
X15052027Y-10143973D01*
X15155973Y-10143973D01*
X15155973Y-12043973D02*
X15155973Y-11940027D01*
X15052027Y-11940027D01*
X15052027Y-12043973D01*
X15155973Y-12043973D01*
X15155973Y-13943973D02*
X15155973Y-13840027D01*
X15052027Y-13840027D01*
X15052027Y-13943973D01*
X15155973Y-13943973D01*
X16293973Y-9447973D02*
X16293973Y-9344027D01*
X16190027Y-9344027D01*
X16190027Y-9447973D01*
X16293973Y-9447973D01*
X16293973Y-13247973D02*
X16293973Y-13144027D01*
X16190027Y-13144027D01*
X16190027Y-13247973D01*
X16293973Y-13247973D01*
X16420973Y-6597973D02*
X16420973Y-6494027D01*
X16317027Y-6494027D01*
X16317027Y-6597973D01*
X16420973Y-6597973D01*
X16547973Y-10082973D02*
X16547973Y-9979027D01*
X16444027Y-9979027D01*
X16444027Y-10082973D01*
X16547973Y-10082973D01*
X16547973Y-13882973D02*
X16547973Y-13779027D01*
X16444027Y-13779027D01*
X16444027Y-13882973D01*
X16547973Y-13882973D01*
X17055973Y-6343973D02*
X17055973Y-6240027D01*
X16952027Y-6240027D01*
X16952027Y-6343973D01*
X17055973Y-6343973D01*
D12*
X7061428Y-15955714D02*
X7061428Y-15655714D01*
X7132857Y-15655714D01*
X7175714Y-15670000D01*
X7204286Y-15698571D01*
X7218571Y-15727143D01*
X7232857Y-15784286D01*
X7232857Y-15827143D01*
X7218571Y-15884286D01*
X7204286Y-15912857D01*
X7175714Y-15941429D01*
X7132857Y-15955714D01*
X7061428Y-15955714D01*
X7361428Y-15955714D02*
X7361428Y-15755714D01*
X7361428Y-15812857D02*
X7375714Y-15784286D01*
X7390000Y-15770000D01*
X7418571Y-15755714D01*
X7447143Y-15755714D01*
X7547143Y-15955714D02*
X7547143Y-15755714D01*
X7547143Y-15655714D02*
X7532857Y-15670000D01*
X7547143Y-15684286D01*
X7561428Y-15670000D01*
X7547143Y-15655714D01*
X7547143Y-15684286D01*
X7732857Y-15955714D02*
X7704286Y-15941429D01*
X7690000Y-15912857D01*
X7690000Y-15655714D01*
X7890000Y-15955714D02*
X7861428Y-15941429D01*
X7847143Y-15912857D01*
X7847143Y-15655714D01*
X8232857Y-15955714D02*
X8232857Y-15655714D01*
X8332857Y-15870000D01*
X8432857Y-15655714D01*
X8432857Y-15955714D01*
X8704286Y-15955714D02*
X8704286Y-15798571D01*
X8690000Y-15770000D01*
X8661428Y-15755714D01*
X8604286Y-15755714D01*
X8575714Y-15770000D01*
X8704286Y-15941429D02*
X8675714Y-15955714D01*
X8604286Y-15955714D01*
X8575714Y-15941429D01*
X8561428Y-15912857D01*
X8561428Y-15884286D01*
X8575714Y-15855714D01*
X8604286Y-15841429D01*
X8675714Y-15841429D01*
X8704286Y-15827143D01*
X8847143Y-15755714D02*
X8847143Y-16055714D01*
X8847143Y-15770000D02*
X8875714Y-15755714D01*
X8932857Y-15755714D01*
X8961428Y-15770000D01*
X8975714Y-15784286D01*
X8990000Y-15812857D01*
X8990000Y-15898571D01*
X8975714Y-15927143D01*
X8961428Y-15941429D01*
X8932857Y-15955714D01*
X8875714Y-15955714D01*
X8847143Y-15941429D01*
X9118571Y-15927143D02*
X9132857Y-15941429D01*
X9118571Y-15955714D01*
X9104286Y-15941429D01*
X9118571Y-15927143D01*
X9118571Y-15955714D01*
X9118571Y-15770000D02*
X9132857Y-15784286D01*
X9118571Y-15798571D01*
X9104286Y-15784286D01*
X9118571Y-15770000D01*
X9118571Y-15798571D01*
X6735000Y-16430000D02*
X6775000Y-16470000D01*
X6775000Y-16430000D02*
X6735000Y-16470000D01*
X7118571Y-16285714D02*
X7147143Y-16285714D01*
X7175714Y-16300000D01*
X7190000Y-16314286D01*
X7204286Y-16342857D01*
X7218571Y-16400000D01*
X7218571Y-16471429D01*
X7204286Y-16528571D01*
X7190000Y-16557143D01*
X7175714Y-16571429D01*
X7147143Y-16585714D01*
X7118571Y-16585714D01*
X7090000Y-16571429D01*
X7075714Y-16557143D01*
X7061428Y-16528571D01*
X7047143Y-16471429D01*
X7047143Y-16400000D01*
X7061428Y-16342857D01*
X7075714Y-16314286D01*
X7090000Y-16300000D01*
X7118571Y-16285714D01*
X7347143Y-16557143D02*
X7361428Y-16571429D01*
X7347143Y-16585714D01*
X7332857Y-16571429D01*
X7347143Y-16557143D01*
X7347143Y-16585714D01*
X7618571Y-16385714D02*
X7618571Y-16585714D01*
X7547143Y-16271429D02*
X7475714Y-16485714D01*
X7661428Y-16485714D01*
X7832857Y-16285714D02*
X7861428Y-16285714D01*
X7890000Y-16300000D01*
X7904286Y-16314286D01*
X7918571Y-16342857D01*
X7932857Y-16400000D01*
X7932857Y-16471429D01*
X7918571Y-16528571D01*
X7904286Y-16557143D01*
X7890000Y-16571429D01*
X7861428Y-16585714D01*
X7832857Y-16585714D01*
X7804286Y-16571429D01*
X7790000Y-16557143D01*
X7775714Y-16528571D01*
X7761428Y-16471429D01*
X7761428Y-16400000D01*
X7775714Y-16342857D01*
X7790000Y-16314286D01*
X7804286Y-16300000D01*
X7832857Y-16285714D01*
X8118571Y-16285714D02*
X8147143Y-16285714D01*
X8175714Y-16300000D01*
X8190000Y-16314286D01*
X8204286Y-16342857D01*
X8218571Y-16400000D01*
X8218571Y-16471429D01*
X8204286Y-16528571D01*
X8190000Y-16557143D01*
X8175714Y-16571429D01*
X8147143Y-16585714D01*
X8118571Y-16585714D01*
X8090000Y-16571429D01*
X8075714Y-16557143D01*
X8061428Y-16528571D01*
X8047143Y-16471429D01*
X8047143Y-16400000D01*
X8061428Y-16342857D01*
X8075714Y-16314286D01*
X8090000Y-16300000D01*
X8118571Y-16285714D01*
X8347143Y-16585714D02*
X8347143Y-16385714D01*
X8347143Y-16414286D02*
X8361428Y-16400000D01*
X8390000Y-16385714D01*
X8432857Y-16385714D01*
X8461428Y-16400000D01*
X8475714Y-16428571D01*
X8475714Y-16585714D01*
X8475714Y-16428571D02*
X8490000Y-16400000D01*
X8518571Y-16385714D01*
X8561428Y-16385714D01*
X8590000Y-16400000D01*
X8604286Y-16428571D01*
X8604286Y-16585714D01*
X8747143Y-16585714D02*
X8747143Y-16385714D01*
X8747143Y-16414286D02*
X8761428Y-16400000D01*
X8790000Y-16385714D01*
X8832857Y-16385714D01*
X8861428Y-16400000D01*
X8875714Y-16428571D01*
X8875714Y-16585714D01*
X8875714Y-16428571D02*
X8890000Y-16400000D01*
X8918571Y-16385714D01*
X8961428Y-16385714D01*
X8990000Y-16400000D01*
X9004286Y-16428571D01*
X9004286Y-16585714D01*
X9590000Y-16271429D02*
X9332857Y-16657143D01*
X9975714Y-16285714D02*
X10004286Y-16285714D01*
X10032857Y-16300000D01*
X10047143Y-16314286D01*
X10061428Y-16342857D01*
X10075714Y-16400000D01*
X10075714Y-16471429D01*
X10061428Y-16528571D01*
X10047143Y-16557143D01*
X10032857Y-16571429D01*
X10004286Y-16585714D01*
X9975714Y-16585714D01*
X9947143Y-16571429D01*
X9932857Y-16557143D01*
X9918571Y-16528571D01*
X9904286Y-16471429D01*
X9904286Y-16400000D01*
X9918571Y-16342857D01*
X9932857Y-16314286D01*
X9947143Y-16300000D01*
X9975714Y-16285714D01*
X10204286Y-16557143D02*
X10218571Y-16571429D01*
X10204286Y-16585714D01*
X10190000Y-16571429D01*
X10204286Y-16557143D01*
X10204286Y-16585714D01*
X10404286Y-16285714D02*
X10432857Y-16285714D01*
X10461428Y-16300000D01*
X10475714Y-16314286D01*
X10490000Y-16342857D01*
X10504286Y-16400000D01*
X10504286Y-16471429D01*
X10490000Y-16528571D01*
X10475714Y-16557143D01*
X10461428Y-16571429D01*
X10432857Y-16585714D01*
X10404286Y-16585714D01*
X10375714Y-16571429D01*
X10361428Y-16557143D01*
X10347143Y-16528571D01*
X10332857Y-16471429D01*
X10332857Y-16400000D01*
X10347143Y-16342857D01*
X10361428Y-16314286D01*
X10375714Y-16300000D01*
X10404286Y-16285714D01*
X10790000Y-16585714D02*
X10618571Y-16585714D01*
X10704286Y-16585714D02*
X10704286Y-16285714D01*
X10675714Y-16328571D01*
X10647143Y-16357143D01*
X10618571Y-16371429D01*
X11061428Y-16285714D02*
X10918571Y-16285714D01*
X10904286Y-16428571D01*
X10918571Y-16414286D01*
X10947143Y-16400000D01*
X11018571Y-16400000D01*
X11047143Y-16414286D01*
X11061428Y-16428571D01*
X11075714Y-16457143D01*
X11075714Y-16528571D01*
X11061428Y-16557143D01*
X11047143Y-16571429D01*
X11018571Y-16585714D01*
X10947143Y-16585714D01*
X10918571Y-16571429D01*
X10904286Y-16557143D01*
X11175714Y-16285714D02*
X11375714Y-16285714D01*
X11247143Y-16585714D01*
X11475714Y-16285714D02*
X11475714Y-16342857D01*
X11590000Y-16285714D02*
X11590000Y-16342857D01*
X12032857Y-16700000D02*
X12018571Y-16685714D01*
X11990000Y-16642857D01*
X11975714Y-16614286D01*
X11961428Y-16571429D01*
X11947143Y-16500000D01*
X11947143Y-16442857D01*
X11961428Y-16371429D01*
X11975714Y-16328571D01*
X11990000Y-16300000D01*
X12018571Y-16257143D01*
X12032857Y-16242857D01*
X12132857Y-16314286D02*
X12147143Y-16300000D01*
X12175714Y-16285714D01*
X12247143Y-16285714D01*
X12275714Y-16300000D01*
X12290000Y-16314286D01*
X12304286Y-16342857D01*
X12304286Y-16371429D01*
X12290000Y-16414286D01*
X12118571Y-16585714D01*
X12304286Y-16585714D01*
X12661428Y-16585714D02*
X12661428Y-16285714D01*
X12790000Y-16585714D02*
X12790000Y-16428571D01*
X12775714Y-16400000D01*
X12747143Y-16385714D01*
X12704286Y-16385714D01*
X12675714Y-16400000D01*
X12661428Y-16414286D01*
X12975714Y-16585714D02*
X12947143Y-16571429D01*
X12932857Y-16557143D01*
X12918571Y-16528571D01*
X12918571Y-16442857D01*
X12932857Y-16414286D01*
X12947143Y-16400000D01*
X12975714Y-16385714D01*
X13018571Y-16385714D01*
X13047143Y-16400000D01*
X13061428Y-16414286D01*
X13075714Y-16442857D01*
X13075714Y-16528571D01*
X13061428Y-16557143D01*
X13047143Y-16571429D01*
X13018571Y-16585714D01*
X12975714Y-16585714D01*
X13247143Y-16585714D02*
X13218571Y-16571429D01*
X13204286Y-16542857D01*
X13204286Y-16285714D01*
X13475714Y-16571429D02*
X13447143Y-16585714D01*
X13390000Y-16585714D01*
X13361428Y-16571429D01*
X13347143Y-16542857D01*
X13347143Y-16428571D01*
X13361428Y-16400000D01*
X13390000Y-16385714D01*
X13447143Y-16385714D01*
X13475714Y-16400000D01*
X13490000Y-16428571D01*
X13490000Y-16457143D01*
X13347143Y-16485714D01*
X13604286Y-16571429D02*
X13632857Y-16585714D01*
X13690000Y-16585714D01*
X13718571Y-16571429D01*
X13732857Y-16542857D01*
X13732857Y-16528571D01*
X13718571Y-16500000D01*
X13690000Y-16485714D01*
X13647143Y-16485714D01*
X13618571Y-16471429D01*
X13604286Y-16442857D01*
X13604286Y-16428571D01*
X13618571Y-16400000D01*
X13647143Y-16385714D01*
X13690000Y-16385714D01*
X13718571Y-16400000D01*
X13832857Y-16700000D02*
X13847143Y-16685714D01*
X13875714Y-16642857D01*
X13890000Y-16614286D01*
X13904286Y-16571429D01*
X13918571Y-16500000D01*
X13918571Y-16442857D01*
X13904286Y-16371429D01*
X13890000Y-16328571D01*
X13875714Y-16300000D01*
X13847143Y-16257143D01*
X13832857Y-16242857D01*
X6775000Y-16846000D02*
G75*
G03*
X6775000Y-16846000I-40000J0D01*
G01*
X7118571Y-16681714D02*
X7147143Y-16681714D01*
X7175714Y-16696000D01*
X7190000Y-16710286D01*
X7204286Y-16738857D01*
X7218571Y-16796000D01*
X7218571Y-16867429D01*
X7204286Y-16924572D01*
X7190000Y-16953143D01*
X7175714Y-16967429D01*
X7147143Y-16981714D01*
X7118571Y-16981714D01*
X7090000Y-16967429D01*
X7075714Y-16953143D01*
X7061428Y-16924572D01*
X7047143Y-16867429D01*
X7047143Y-16796000D01*
X7061428Y-16738857D01*
X7075714Y-16710286D01*
X7090000Y-16696000D01*
X7118571Y-16681714D01*
X7347143Y-16953143D02*
X7361428Y-16967429D01*
X7347143Y-16981714D01*
X7332857Y-16967429D01*
X7347143Y-16953143D01*
X7347143Y-16981714D01*
X7532857Y-16810286D02*
X7504286Y-16796000D01*
X7490000Y-16781714D01*
X7475714Y-16753143D01*
X7475714Y-16738857D01*
X7490000Y-16710286D01*
X7504286Y-16696000D01*
X7532857Y-16681714D01*
X7590000Y-16681714D01*
X7618571Y-16696000D01*
X7632857Y-16710286D01*
X7647143Y-16738857D01*
X7647143Y-16753143D01*
X7632857Y-16781714D01*
X7618571Y-16796000D01*
X7590000Y-16810286D01*
X7532857Y-16810286D01*
X7504286Y-16824572D01*
X7490000Y-16838857D01*
X7475714Y-16867429D01*
X7475714Y-16924572D01*
X7490000Y-16953143D01*
X7504286Y-16967429D01*
X7532857Y-16981714D01*
X7590000Y-16981714D01*
X7618571Y-16967429D01*
X7632857Y-16953143D01*
X7647143Y-16924572D01*
X7647143Y-16867429D01*
X7632857Y-16838857D01*
X7618571Y-16824572D01*
X7590000Y-16810286D01*
X7832857Y-16681714D02*
X7861428Y-16681714D01*
X7890000Y-16696000D01*
X7904286Y-16710286D01*
X7918571Y-16738857D01*
X7932857Y-16796000D01*
X7932857Y-16867429D01*
X7918571Y-16924572D01*
X7904286Y-16953143D01*
X7890000Y-16967429D01*
X7861428Y-16981714D01*
X7832857Y-16981714D01*
X7804286Y-16967429D01*
X7790000Y-16953143D01*
X7775714Y-16924572D01*
X7761428Y-16867429D01*
X7761428Y-16796000D01*
X7775714Y-16738857D01*
X7790000Y-16710286D01*
X7804286Y-16696000D01*
X7832857Y-16681714D01*
X8118571Y-16681714D02*
X8147143Y-16681714D01*
X8175714Y-16696000D01*
X8190000Y-16710286D01*
X8204286Y-16738857D01*
X8218571Y-16796000D01*
X8218571Y-16867429D01*
X8204286Y-16924572D01*
X8190000Y-16953143D01*
X8175714Y-16967429D01*
X8147143Y-16981714D01*
X8118571Y-16981714D01*
X8090000Y-16967429D01*
X8075714Y-16953143D01*
X8061428Y-16924572D01*
X8047143Y-16867429D01*
X8047143Y-16796000D01*
X8061428Y-16738857D01*
X8075714Y-16710286D01*
X8090000Y-16696000D01*
X8118571Y-16681714D01*
X8347143Y-16981714D02*
X8347143Y-16781714D01*
X8347143Y-16810286D02*
X8361428Y-16796000D01*
X8390000Y-16781714D01*
X8432857Y-16781714D01*
X8461428Y-16796000D01*
X8475714Y-16824572D01*
X8475714Y-16981714D01*
X8475714Y-16824572D02*
X8490000Y-16796000D01*
X8518571Y-16781714D01*
X8561428Y-16781714D01*
X8590000Y-16796000D01*
X8604286Y-16824572D01*
X8604286Y-16981714D01*
X8747143Y-16981714D02*
X8747143Y-16781714D01*
X8747143Y-16810286D02*
X8761428Y-16796000D01*
X8790000Y-16781714D01*
X8832857Y-16781714D01*
X8861428Y-16796000D01*
X8875714Y-16824572D01*
X8875714Y-16981714D01*
X8875714Y-16824572D02*
X8890000Y-16796000D01*
X8918571Y-16781714D01*
X8961428Y-16781714D01*
X8990000Y-16796000D01*
X9004286Y-16824572D01*
X9004286Y-16981714D01*
X9590000Y-16667429D02*
X9332857Y-17053143D01*
X9975714Y-16681714D02*
X10004286Y-16681714D01*
X10032857Y-16696000D01*
X10047143Y-16710286D01*
X10061428Y-16738857D01*
X10075714Y-16796000D01*
X10075714Y-16867429D01*
X10061428Y-16924572D01*
X10047143Y-16953143D01*
X10032857Y-16967429D01*
X10004286Y-16981714D01*
X9975714Y-16981714D01*
X9947143Y-16967429D01*
X9932857Y-16953143D01*
X9918571Y-16924572D01*
X9904286Y-16867429D01*
X9904286Y-16796000D01*
X9918571Y-16738857D01*
X9932857Y-16710286D01*
X9947143Y-16696000D01*
X9975714Y-16681714D01*
X10204286Y-16953143D02*
X10218571Y-16967429D01*
X10204286Y-16981714D01*
X10190000Y-16967429D01*
X10204286Y-16953143D01*
X10204286Y-16981714D01*
X10404286Y-16681714D02*
X10432857Y-16681714D01*
X10461428Y-16696000D01*
X10475714Y-16710286D01*
X10490000Y-16738857D01*
X10504286Y-16796000D01*
X10504286Y-16867429D01*
X10490000Y-16924572D01*
X10475714Y-16953143D01*
X10461428Y-16967429D01*
X10432857Y-16981714D01*
X10404286Y-16981714D01*
X10375714Y-16967429D01*
X10361428Y-16953143D01*
X10347143Y-16924572D01*
X10332857Y-16867429D01*
X10332857Y-16796000D01*
X10347143Y-16738857D01*
X10361428Y-16710286D01*
X10375714Y-16696000D01*
X10404286Y-16681714D01*
X10604286Y-16681714D02*
X10790000Y-16681714D01*
X10690000Y-16796000D01*
X10732857Y-16796000D01*
X10761428Y-16810286D01*
X10775714Y-16824572D01*
X10790000Y-16853143D01*
X10790000Y-16924572D01*
X10775714Y-16953143D01*
X10761428Y-16967429D01*
X10732857Y-16981714D01*
X10647143Y-16981714D01*
X10618571Y-16967429D01*
X10604286Y-16953143D01*
X11075714Y-16981714D02*
X10904286Y-16981714D01*
X10990000Y-16981714D02*
X10990000Y-16681714D01*
X10961428Y-16724571D01*
X10932857Y-16753143D01*
X10904286Y-16767429D01*
X11347143Y-16681714D02*
X11204286Y-16681714D01*
X11190000Y-16824572D01*
X11204286Y-16810286D01*
X11232857Y-16796000D01*
X11304286Y-16796000D01*
X11332857Y-16810286D01*
X11347143Y-16824572D01*
X11361428Y-16853143D01*
X11361428Y-16924572D01*
X11347143Y-16953143D01*
X11332857Y-16967429D01*
X11304286Y-16981714D01*
X11232857Y-16981714D01*
X11204286Y-16967429D01*
X11190000Y-16953143D01*
X11475714Y-16681714D02*
X11475714Y-16738857D01*
X11590000Y-16681714D02*
X11590000Y-16738857D01*
X12032857Y-17096000D02*
X12018571Y-17081714D01*
X11990000Y-17038857D01*
X11975714Y-17010286D01*
X11961428Y-16967429D01*
X11947143Y-16896000D01*
X11947143Y-16838857D01*
X11961428Y-16767429D01*
X11975714Y-16724571D01*
X11990000Y-16696000D01*
X12018571Y-16653143D01*
X12032857Y-16638857D01*
X12118571Y-16681714D02*
X12304286Y-16681714D01*
X12204286Y-16796000D01*
X12247143Y-16796000D01*
X12275714Y-16810286D01*
X12290000Y-16824572D01*
X12304286Y-16853143D01*
X12304286Y-16924572D01*
X12290000Y-16953143D01*
X12275714Y-16967429D01*
X12247143Y-16981714D01*
X12161428Y-16981714D01*
X12132857Y-16967429D01*
X12118571Y-16953143D01*
X12561428Y-16781714D02*
X12561428Y-16981714D01*
X12490000Y-16667429D02*
X12418571Y-16881714D01*
X12604286Y-16881714D01*
X12947143Y-16981714D02*
X12947143Y-16681714D01*
X13075714Y-16981714D02*
X13075714Y-16824572D01*
X13061428Y-16796000D01*
X13032857Y-16781714D01*
X12990000Y-16781714D01*
X12961428Y-16796000D01*
X12947143Y-16810286D01*
X13261428Y-16981714D02*
X13232857Y-16967429D01*
X13218571Y-16953143D01*
X13204286Y-16924572D01*
X13204286Y-16838857D01*
X13218571Y-16810286D01*
X13232857Y-16796000D01*
X13261428Y-16781714D01*
X13304286Y-16781714D01*
X13332857Y-16796000D01*
X13347143Y-16810286D01*
X13361428Y-16838857D01*
X13361428Y-16924572D01*
X13347143Y-16953143D01*
X13332857Y-16967429D01*
X13304286Y-16981714D01*
X13261428Y-16981714D01*
X13532857Y-16981714D02*
X13504286Y-16967429D01*
X13490000Y-16938857D01*
X13490000Y-16681714D01*
X13761428Y-16967429D02*
X13732857Y-16981714D01*
X13675714Y-16981714D01*
X13647143Y-16967429D01*
X13632857Y-16938857D01*
X13632857Y-16824572D01*
X13647143Y-16796000D01*
X13675714Y-16781714D01*
X13732857Y-16781714D01*
X13761428Y-16796000D01*
X13775714Y-16824572D01*
X13775714Y-16853143D01*
X13632857Y-16881714D01*
X13890000Y-16967429D02*
X13918571Y-16981714D01*
X13975714Y-16981714D01*
X14004286Y-16967429D01*
X14018571Y-16938857D01*
X14018571Y-16924572D01*
X14004286Y-16896000D01*
X13975714Y-16881714D01*
X13932857Y-16881714D01*
X13904286Y-16867429D01*
X13890000Y-16838857D01*
X13890000Y-16824572D01*
X13904286Y-16796000D01*
X13932857Y-16781714D01*
X13975714Y-16781714D01*
X14004286Y-16796000D01*
X14118571Y-17096000D02*
X14132857Y-17081714D01*
X14161428Y-17038857D01*
X14175714Y-17010286D01*
X14190000Y-16967429D01*
X14204286Y-16896000D01*
X14204286Y-16838857D01*
X14190000Y-16767429D01*
X14175714Y-16724571D01*
X14161428Y-16696000D01*
X14132857Y-16653143D01*
X14118571Y-16638857D01*
X6724000Y-17191000D02*
X6724000Y-17293000D01*
X6673000Y-17242000D02*
X6775000Y-17242000D01*
X7218571Y-17377714D02*
X7047143Y-17377714D01*
X7132857Y-17377714D02*
X7132857Y-17077714D01*
X7104286Y-17120572D01*
X7075714Y-17149143D01*
X7047143Y-17163429D01*
X7347143Y-17349143D02*
X7361428Y-17363429D01*
X7347143Y-17377714D01*
X7332857Y-17363429D01*
X7347143Y-17349143D01*
X7347143Y-17377714D01*
X7547143Y-17077714D02*
X7575714Y-17077714D01*
X7604286Y-17092000D01*
X7618571Y-17106286D01*
X7632857Y-17134857D01*
X7647143Y-17192000D01*
X7647143Y-17263429D01*
X7632857Y-17320572D01*
X7618571Y-17349143D01*
X7604286Y-17363429D01*
X7575714Y-17377714D01*
X7547143Y-17377714D01*
X7518571Y-17363429D01*
X7504286Y-17349143D01*
X7490000Y-17320572D01*
X7475714Y-17263429D01*
X7475714Y-17192000D01*
X7490000Y-17134857D01*
X7504286Y-17106286D01*
X7518571Y-17092000D01*
X7547143Y-17077714D01*
X7761428Y-17106286D02*
X7775714Y-17092000D01*
X7804286Y-17077714D01*
X7875714Y-17077714D01*
X7904286Y-17092000D01*
X7918571Y-17106286D01*
X7932857Y-17134857D01*
X7932857Y-17163429D01*
X7918571Y-17206286D01*
X7747143Y-17377714D01*
X7932857Y-17377714D01*
X8118571Y-17077714D02*
X8147143Y-17077714D01*
X8175714Y-17092000D01*
X8190000Y-17106286D01*
X8204286Y-17134857D01*
X8218571Y-17192000D01*
X8218571Y-17263429D01*
X8204286Y-17320572D01*
X8190000Y-17349143D01*
X8175714Y-17363429D01*
X8147143Y-17377714D01*
X8118571Y-17377714D01*
X8090000Y-17363429D01*
X8075714Y-17349143D01*
X8061428Y-17320572D01*
X8047143Y-17263429D01*
X8047143Y-17192000D01*
X8061428Y-17134857D01*
X8075714Y-17106286D01*
X8090000Y-17092000D01*
X8118571Y-17077714D01*
X8347143Y-17377714D02*
X8347143Y-17177714D01*
X8347143Y-17206286D02*
X8361428Y-17192000D01*
X8390000Y-17177714D01*
X8432857Y-17177714D01*
X8461428Y-17192000D01*
X8475714Y-17220572D01*
X8475714Y-17377714D01*
X8475714Y-17220572D02*
X8490000Y-17192000D01*
X8518571Y-17177714D01*
X8561428Y-17177714D01*
X8590000Y-17192000D01*
X8604286Y-17220572D01*
X8604286Y-17377714D01*
X8747143Y-17377714D02*
X8747143Y-17177714D01*
X8747143Y-17206286D02*
X8761428Y-17192000D01*
X8790000Y-17177714D01*
X8832857Y-17177714D01*
X8861428Y-17192000D01*
X8875714Y-17220572D01*
X8875714Y-17377714D01*
X8875714Y-17220572D02*
X8890000Y-17192000D01*
X8918571Y-17177714D01*
X8961428Y-17177714D01*
X8990000Y-17192000D01*
X9004286Y-17220572D01*
X9004286Y-17377714D01*
X9590000Y-17063429D02*
X9332857Y-17449143D01*
X9975714Y-17077714D02*
X10004286Y-17077714D01*
X10032857Y-17092000D01*
X10047143Y-17106286D01*
X10061428Y-17134857D01*
X10075714Y-17192000D01*
X10075714Y-17263429D01*
X10061428Y-17320572D01*
X10047143Y-17349143D01*
X10032857Y-17363429D01*
X10004286Y-17377714D01*
X9975714Y-17377714D01*
X9947143Y-17363429D01*
X9932857Y-17349143D01*
X9918571Y-17320572D01*
X9904286Y-17263429D01*
X9904286Y-17192000D01*
X9918571Y-17134857D01*
X9932857Y-17106286D01*
X9947143Y-17092000D01*
X9975714Y-17077714D01*
X10204286Y-17349143D02*
X10218571Y-17363429D01*
X10204286Y-17377714D01*
X10190000Y-17363429D01*
X10204286Y-17349143D01*
X10204286Y-17377714D01*
X10404286Y-17077714D02*
X10432857Y-17077714D01*
X10461428Y-17092000D01*
X10475714Y-17106286D01*
X10490000Y-17134857D01*
X10504286Y-17192000D01*
X10504286Y-17263429D01*
X10490000Y-17320572D01*
X10475714Y-17349143D01*
X10461428Y-17363429D01*
X10432857Y-17377714D01*
X10404286Y-17377714D01*
X10375714Y-17363429D01*
X10361428Y-17349143D01*
X10347143Y-17320572D01*
X10332857Y-17263429D01*
X10332857Y-17192000D01*
X10347143Y-17134857D01*
X10361428Y-17106286D01*
X10375714Y-17092000D01*
X10404286Y-17077714D01*
X10761428Y-17177714D02*
X10761428Y-17377714D01*
X10690000Y-17063429D02*
X10618571Y-17277714D01*
X10804286Y-17277714D01*
X10975714Y-17077714D02*
X11004286Y-17077714D01*
X11032857Y-17092000D01*
X11047143Y-17106286D01*
X11061428Y-17134857D01*
X11075714Y-17192000D01*
X11075714Y-17263429D01*
X11061428Y-17320572D01*
X11047143Y-17349143D01*
X11032857Y-17363429D01*
X11004286Y-17377714D01*
X10975714Y-17377714D01*
X10947143Y-17363429D01*
X10932857Y-17349143D01*
X10918571Y-17320572D01*
X10904286Y-17263429D01*
X10904286Y-17192000D01*
X10918571Y-17134857D01*
X10932857Y-17106286D01*
X10947143Y-17092000D01*
X10975714Y-17077714D01*
X11190000Y-17106286D02*
X11204286Y-17092000D01*
X11232857Y-17077714D01*
X11304286Y-17077714D01*
X11332857Y-17092000D01*
X11347143Y-17106286D01*
X11361428Y-17134857D01*
X11361428Y-17163429D01*
X11347143Y-17206286D01*
X11175714Y-17377714D01*
X11361428Y-17377714D01*
X11475714Y-17077714D02*
X11475714Y-17134857D01*
X11590000Y-17077714D02*
X11590000Y-17134857D01*
X12032857Y-17492000D02*
X12018571Y-17477714D01*
X11990000Y-17434857D01*
X11975714Y-17406286D01*
X11961428Y-17363429D01*
X11947143Y-17292000D01*
X11947143Y-17234857D01*
X11961428Y-17163429D01*
X11975714Y-17120572D01*
X11990000Y-17092000D01*
X12018571Y-17049143D01*
X12032857Y-17034857D01*
X12275714Y-17177714D02*
X12275714Y-17377714D01*
X12204286Y-17063429D02*
X12132857Y-17277714D01*
X12318571Y-17277714D01*
X12404286Y-17077714D02*
X12590000Y-17077714D01*
X12490000Y-17192000D01*
X12532857Y-17192000D01*
X12561428Y-17206286D01*
X12575714Y-17220572D01*
X12590000Y-17249143D01*
X12590000Y-17320572D01*
X12575714Y-17349143D01*
X12561428Y-17363429D01*
X12532857Y-17377714D01*
X12447143Y-17377714D01*
X12418571Y-17363429D01*
X12404286Y-17349143D01*
X12947143Y-17377714D02*
X12947143Y-17077714D01*
X13075714Y-17377714D02*
X13075714Y-17220572D01*
X13061428Y-17192000D01*
X13032857Y-17177714D01*
X12990000Y-17177714D01*
X12961428Y-17192000D01*
X12947143Y-17206286D01*
X13261428Y-17377714D02*
X13232857Y-17363429D01*
X13218571Y-17349143D01*
X13204286Y-17320572D01*
X13204286Y-17234857D01*
X13218571Y-17206286D01*
X13232857Y-17192000D01*
X13261428Y-17177714D01*
X13304286Y-17177714D01*
X13332857Y-17192000D01*
X13347143Y-17206286D01*
X13361428Y-17234857D01*
X13361428Y-17320572D01*
X13347143Y-17349143D01*
X13332857Y-17363429D01*
X13304286Y-17377714D01*
X13261428Y-17377714D01*
X13532857Y-17377714D02*
X13504286Y-17363429D01*
X13490000Y-17334857D01*
X13490000Y-17077714D01*
X13761428Y-17363429D02*
X13732857Y-17377714D01*
X13675714Y-17377714D01*
X13647143Y-17363429D01*
X13632857Y-17334857D01*
X13632857Y-17220572D01*
X13647143Y-17192000D01*
X13675714Y-17177714D01*
X13732857Y-17177714D01*
X13761428Y-17192000D01*
X13775714Y-17220572D01*
X13775714Y-17249143D01*
X13632857Y-17277714D01*
X13890000Y-17363429D02*
X13918571Y-17377714D01*
X13975714Y-17377714D01*
X14004286Y-17363429D01*
X14018571Y-17334857D01*
X14018571Y-17320572D01*
X14004286Y-17292000D01*
X13975714Y-17277714D01*
X13932857Y-17277714D01*
X13904286Y-17263429D01*
X13890000Y-17234857D01*
X13890000Y-17220572D01*
X13904286Y-17192000D01*
X13932857Y-17177714D01*
X13975714Y-17177714D01*
X14004286Y-17192000D01*
X14118571Y-17492000D02*
X14132857Y-17477714D01*
X14161428Y-17434857D01*
X14175714Y-17406286D01*
X14190000Y-17363429D01*
X14204286Y-17292000D01*
X14204286Y-17234857D01*
X14190000Y-17163429D01*
X14175714Y-17120572D01*
X14161428Y-17092000D01*
X14132857Y-17049143D01*
X14118571Y-17034857D01*
X6753473Y-17689973D02*
X6753473Y-17586027D01*
X6649527Y-17586027D01*
X6649527Y-17689973D01*
X6753473Y-17689973D01*
X7218571Y-17773714D02*
X7047143Y-17773714D01*
X7132857Y-17773714D02*
X7132857Y-17473714D01*
X7104286Y-17516572D01*
X7075714Y-17545143D01*
X7047143Y-17559429D01*
X7347143Y-17745143D02*
X7361428Y-17759429D01*
X7347143Y-17773714D01*
X7332857Y-17759429D01*
X7347143Y-17745143D01*
X7347143Y-17773714D01*
X7618571Y-17573714D02*
X7618571Y-17773714D01*
X7547143Y-17459429D02*
X7475714Y-17673714D01*
X7661428Y-17673714D01*
X7747143Y-17473714D02*
X7947143Y-17473714D01*
X7818571Y-17773714D01*
X8118571Y-17473714D02*
X8147143Y-17473714D01*
X8175714Y-17488000D01*
X8190000Y-17502286D01*
X8204286Y-17530857D01*
X8218571Y-17588000D01*
X8218571Y-17659429D01*
X8204286Y-17716572D01*
X8190000Y-17745143D01*
X8175714Y-17759429D01*
X8147143Y-17773714D01*
X8118571Y-17773714D01*
X8090000Y-17759429D01*
X8075714Y-17745143D01*
X8061428Y-17716572D01*
X8047143Y-17659429D01*
X8047143Y-17588000D01*
X8061428Y-17530857D01*
X8075714Y-17502286D01*
X8090000Y-17488000D01*
X8118571Y-17473714D01*
X8347143Y-17773714D02*
X8347143Y-17573714D01*
X8347143Y-17602286D02*
X8361428Y-17588000D01*
X8390000Y-17573714D01*
X8432857Y-17573714D01*
X8461428Y-17588000D01*
X8475714Y-17616572D01*
X8475714Y-17773714D01*
X8475714Y-17616572D02*
X8490000Y-17588000D01*
X8518571Y-17573714D01*
X8561428Y-17573714D01*
X8590000Y-17588000D01*
X8604286Y-17616572D01*
X8604286Y-17773714D01*
X8747143Y-17773714D02*
X8747143Y-17573714D01*
X8747143Y-17602286D02*
X8761428Y-17588000D01*
X8790000Y-17573714D01*
X8832857Y-17573714D01*
X8861428Y-17588000D01*
X8875714Y-17616572D01*
X8875714Y-17773714D01*
X8875714Y-17616572D02*
X8890000Y-17588000D01*
X8918571Y-17573714D01*
X8961428Y-17573714D01*
X8990000Y-17588000D01*
X9004286Y-17616572D01*
X9004286Y-17773714D01*
X9590000Y-17459429D02*
X9332857Y-17845143D01*
X9975714Y-17473714D02*
X10004286Y-17473714D01*
X10032857Y-17488000D01*
X10047143Y-17502286D01*
X10061428Y-17530857D01*
X10075714Y-17588000D01*
X10075714Y-17659429D01*
X10061428Y-17716572D01*
X10047143Y-17745143D01*
X10032857Y-17759429D01*
X10004286Y-17773714D01*
X9975714Y-17773714D01*
X9947143Y-17759429D01*
X9932857Y-17745143D01*
X9918571Y-17716572D01*
X9904286Y-17659429D01*
X9904286Y-17588000D01*
X9918571Y-17530857D01*
X9932857Y-17502286D01*
X9947143Y-17488000D01*
X9975714Y-17473714D01*
X10204286Y-17745143D02*
X10218571Y-17759429D01*
X10204286Y-17773714D01*
X10190000Y-17759429D01*
X10204286Y-17745143D01*
X10204286Y-17773714D01*
X10404286Y-17473714D02*
X10432857Y-17473714D01*
X10461428Y-17488000D01*
X10475714Y-17502286D01*
X10490000Y-17530857D01*
X10504286Y-17588000D01*
X10504286Y-17659429D01*
X10490000Y-17716572D01*
X10475714Y-17745143D01*
X10461428Y-17759429D01*
X10432857Y-17773714D01*
X10404286Y-17773714D01*
X10375714Y-17759429D01*
X10361428Y-17745143D01*
X10347143Y-17716572D01*
X10332857Y-17659429D01*
X10332857Y-17588000D01*
X10347143Y-17530857D01*
X10361428Y-17502286D01*
X10375714Y-17488000D01*
X10404286Y-17473714D01*
X10775714Y-17473714D02*
X10632857Y-17473714D01*
X10618571Y-17616572D01*
X10632857Y-17602286D01*
X10661428Y-17588000D01*
X10732857Y-17588000D01*
X10761428Y-17602286D01*
X10775714Y-17616572D01*
X10790000Y-17645143D01*
X10790000Y-17716572D01*
X10775714Y-17745143D01*
X10761428Y-17759429D01*
X10732857Y-17773714D01*
X10661428Y-17773714D01*
X10632857Y-17759429D01*
X10618571Y-17745143D01*
X10890000Y-17473714D02*
X11090000Y-17473714D01*
X10961428Y-17773714D01*
X11218571Y-17773714D02*
X11275714Y-17773714D01*
X11304286Y-17759429D01*
X11318571Y-17745143D01*
X11347143Y-17702286D01*
X11361428Y-17645143D01*
X11361428Y-17530857D01*
X11347143Y-17502286D01*
X11332857Y-17488000D01*
X11304286Y-17473714D01*
X11247143Y-17473714D01*
X11218571Y-17488000D01*
X11204286Y-17502286D01*
X11190000Y-17530857D01*
X11190000Y-17602286D01*
X11204286Y-17630857D01*
X11218571Y-17645143D01*
X11247143Y-17659429D01*
X11304286Y-17659429D01*
X11332857Y-17645143D01*
X11347143Y-17630857D01*
X11361428Y-17602286D01*
X11475714Y-17473714D02*
X11475714Y-17530857D01*
X11590000Y-17473714D02*
X11590000Y-17530857D01*
X12032857Y-17888000D02*
X12018571Y-17873714D01*
X11990000Y-17830857D01*
X11975714Y-17802286D01*
X11961428Y-17759429D01*
X11947143Y-17688000D01*
X11947143Y-17630857D01*
X11961428Y-17559429D01*
X11975714Y-17516572D01*
X11990000Y-17488000D01*
X12018571Y-17445143D01*
X12032857Y-17430857D01*
X12118571Y-17473714D02*
X12304286Y-17473714D01*
X12204286Y-17588000D01*
X12247143Y-17588000D01*
X12275714Y-17602286D01*
X12290000Y-17616572D01*
X12304286Y-17645143D01*
X12304286Y-17716572D01*
X12290000Y-17745143D01*
X12275714Y-17759429D01*
X12247143Y-17773714D01*
X12161428Y-17773714D01*
X12132857Y-17759429D01*
X12118571Y-17745143D01*
X12561428Y-17573714D02*
X12561428Y-17773714D01*
X12490000Y-17459429D02*
X12418571Y-17673714D01*
X12604286Y-17673714D01*
X12947143Y-17773714D02*
X12947143Y-17473714D01*
X13075714Y-17773714D02*
X13075714Y-17616572D01*
X13061428Y-17588000D01*
X13032857Y-17573714D01*
X12990000Y-17573714D01*
X12961428Y-17588000D01*
X12947143Y-17602286D01*
X13261428Y-17773714D02*
X13232857Y-17759429D01*
X13218571Y-17745143D01*
X13204286Y-17716572D01*
X13204286Y-17630857D01*
X13218571Y-17602286D01*
X13232857Y-17588000D01*
X13261428Y-17573714D01*
X13304286Y-17573714D01*
X13332857Y-17588000D01*
X13347143Y-17602286D01*
X13361428Y-17630857D01*
X13361428Y-17716572D01*
X13347143Y-17745143D01*
X13332857Y-17759429D01*
X13304286Y-17773714D01*
X13261428Y-17773714D01*
X13532857Y-17773714D02*
X13504286Y-17759429D01*
X13490000Y-17730857D01*
X13490000Y-17473714D01*
X13761428Y-17759429D02*
X13732857Y-17773714D01*
X13675714Y-17773714D01*
X13647143Y-17759429D01*
X13632857Y-17730857D01*
X13632857Y-17616572D01*
X13647143Y-17588000D01*
X13675714Y-17573714D01*
X13732857Y-17573714D01*
X13761428Y-17588000D01*
X13775714Y-17616572D01*
X13775714Y-17645143D01*
X13632857Y-17673714D01*
X13890000Y-17759429D02*
X13918571Y-17773714D01*
X13975714Y-17773714D01*
X14004286Y-17759429D01*
X14018571Y-17730857D01*
X14018571Y-17716572D01*
X14004286Y-17688000D01*
X13975714Y-17673714D01*
X13932857Y-17673714D01*
X13904286Y-17659429D01*
X13890000Y-17630857D01*
X13890000Y-17616572D01*
X13904286Y-17588000D01*
X13932857Y-17573714D01*
X13975714Y-17573714D01*
X14004286Y-17588000D01*
X14118571Y-17888000D02*
X14132857Y-17873714D01*
X14161428Y-17830857D01*
X14175714Y-17802286D01*
X14190000Y-17759429D01*
X14204286Y-17688000D01*
X14204286Y-17630857D01*
X14190000Y-17559429D01*
X14175714Y-17516572D01*
X14161428Y-17488000D01*
X14132857Y-17445143D01*
X14118571Y-17430857D01*
M02*
