M48
; DRILL file {KiCad (5.1.10)-1} date 09/20/21 14:50:30
; FORMAT={-:-/ absolute / metric / decimal}
; #@! TF.CreationDate,2021-09-20T14:50:30+01:00
; #@! TF.GenerationSoftware,Kicad,Pcbnew,(5.1.10)-1
; #@! TF.FileFunction,NonPlated,1,2,NPTH
FMAT,2
METRIC
T1C1.750
T2C2.200
T3C3.048
T4C3.988
%
G90
G05
T1
X105.42Y-68.0
X105.42Y-87.0
X105.42Y-106.0
X105.42Y-125.0
X114.92Y-144.0
X115.58Y-68.0
X115.58Y-87.0
X115.58Y-106.0
X115.58Y-125.0
X124.42Y-68.0
X124.42Y-87.0
X124.42Y-106.0
X124.42Y-125.0
X125.08Y-144.0
X134.58Y-68.0
X134.58Y-87.0
X134.58Y-106.0
X134.58Y-125.0
X143.42Y-68.0
X143.42Y-87.0
X143.42Y-106.0
X143.42Y-125.0
X143.42Y-144.0
X153.58Y-68.0
X153.58Y-87.0
X153.58Y-106.0
X153.58Y-125.0
X153.58Y-144.0
X162.42Y-68.0
X167.5Y-91.42
X167.5Y-101.58
X167.5Y-129.42
X167.5Y-139.58
X172.58Y-68.0
T2
X70.8Y-61.4
X70.8Y-152.25
X177.4Y-61.4
X177.4Y-152.0
T3
X108.094Y-137.015
X131.906Y-137.015
X160.515Y-84.594
X160.515Y-108.406
X160.515Y-122.594
X160.515Y-146.406
T4
X108.094Y-152.255
X110.5Y-68.0
X110.5Y-87.0
X110.5Y-106.0
X110.5Y-125.0
X120.0Y-144.0
X129.5Y-68.0
X129.5Y-87.0
X129.5Y-106.0
X129.5Y-125.0
X131.906Y-152.255
X148.5Y-68.0
X148.5Y-87.0
X148.5Y-106.0
X148.5Y-125.0
X148.5Y-144.0
X167.5Y-68.0
X167.5Y-96.5
X167.5Y-134.5
X175.755Y-84.594
X175.755Y-108.406
X175.755Y-122.594
X175.755Y-146.406
T0
M30
