  0
SECTION
  2
HEADER
  9
$ANGBASE
  50
0.0
  9
$ANGDIR
  70
1
  9
$MEASUREMENT
  70
1
  0
ENDSEC
  0
SECTION
  2
TABLES
  0
TABLE
  2
LTYPE
  70
4
  0
LTYPE
  5
40F
  2
CONTINUOUS
  70
0
  3
Solid line
  72
65
  73
0
  40
0.0
  0
LTYPE
  5
410
  2
DASHDOT
 70
0
  3
Dash Dot ____ _ ____ _
 72
65
 73
4
 40
2.0
 49
1.25
 49
-0.25
 49
0.25
 49
-0.25
  0
LTYPE
  5
411
  2
DASHED
 70
0
  3
Dashed __ __ __ __ __
 72
65
 73
2
 40
0.75
 49
0.5
 49
-0.25
  0
LTYPE
  5
43B
  2
DOTTED
 70
0
  3
Dotted .  .  .  .
 72
65
 73
2
 40
0.2
 49
0.0
 49
-0.2
  0
ENDTAB
  0
TABLE
  2
STYLE
  70
4
  0
STYLE
  2
KICAD
  70
0
  40
0
  41
1
  42
1
  50
0
  71
0
  3
isocp.shx
  0
STYLE
  2
KICADB
  70
0
  40
0
  41
1
  42
1
  50
0
  71
0
  3
isocp.shx
  0
STYLE
  2
KICADI
  70
0
  40
0
  41
1
  42
1
  50
15
  71
0
  3
isocp.shx
  0
STYLE
  2
KICADBI
  70
0
  40
0
  41
1
  42
1
  50
15
  71
0
  3
isocp.shx
  0
ENDTAB
  0
TABLE
  2
LAYER
  70
1
  0
LAYER
  2
BLACK
  70
0
  62
7
  6
CONTINUOUS
  0
ENDTAB
  0
ENDSEC
  0
SECTION
  2
ENTITIES
0
LINE
8
BLACK
6
CONTINUOUS
10
97.2
20
-58.8
11
179.8
21
-58.8
0
LINE
8
BLACK
6
CONTINUOUS
10
97.2
20
-111.1
11
97.2
21
-58.8
0
LINE
8
BLACK
6
CONTINUOUS
10
74.59
20
-111.1
11
97.2
21
-111.1
0
LINE
8
BLACK
6
CONTINUOUS
10
74.59
20
-58.8
11
74.59
21
-111.1
0
CIRCLE
8
BLACK
10
177.4
20
-152.025
40
1.10027
0
CIRCLE
8
BLACK
10
70.8223
20
-152.225
40
1.10296
0
CIRCLE
8
BLACK
10
70.7985
20
-61.375
40
1.10149
0
CIRCLE
8
BLACK
10
177.4
20
-61.4
40
1.1
0
ARC
8
BLACK
10
68.2
20
-59.2
40
0.4
50
90
51
180
0
ARC
8
BLACK
10
179.8
20
-59.2
40
0.4
50
-0
51
90
0
LINE
8
BLACK
6
CONTINUOUS
10
68.2
20
-58.8
11
74.59
21
-58.8
0
LINE
8
BLACK
6
CONTINUOUS
10
180.2
20
-59.2
11
180.2
21
-154.45
0
LINE
8
BLACK
6
CONTINUOUS
10
179.8
20
-154.85
11
68.2
21
-154.85
0
LINE
8
BLACK
6
CONTINUOUS
10
67.8
20
-154.45
11
67.8
21
-59.2
0
ARC
8
BLACK
10
68.2
20
-154.45
40
0.4
50
180
51
270
0
ARC
8
BLACK
10
179.8
20
-154.45
40
0.4
50
-90
51
-0
0
LINE
8
BLACK
6
CONTINUOUS
10
136.5
20
-61.0007
11
136.5
21
-75
0
LINE
8
BLACK
6
CONTINUOUS
10
155.501
20
-61.0007
11
155.501
21
-75
0
LINE
8
BLACK
6
CONTINUOUS
10
141.501
20
-75
11
141.501
21
-61.0007
0
LINE
8
BLACK
6
CONTINUOUS
10
103.5
20
-61.0007
11
117.5
21
-61.0007
0
LINE
8
BLACK
6
CONTINUOUS
10
117.5
20
-75
11
103.5
21
-75
0
LINE
8
BLACK
6
CONTINUOUS
10
122.5
20
-61.0007
11
136.5
21
-61.0007
0
LINE
8
BLACK
6
CONTINUOUS
10
117.5
20
-61.0007
11
117.5
21
-75
0
LINE
8
BLACK
6
CONTINUOUS
10
103.5
20
-75
11
103.5
21
-61.0007
0
LINE
8
BLACK
6
CONTINUOUS
10
136.5
20
-75
11
122.5
21
-75
0
LINE
8
BLACK
6
CONTINUOUS
10
122.5
20
-75
11
122.5
21
-61.0007
0
LINE
8
BLACK
6
CONTINUOUS
10
155.501
20
-75
11
141.501
21
-75
0
LINE
8
BLACK
6
CONTINUOUS
10
136.5
20
-80.0007
11
136.5
21
-94
0
LINE
8
BLACK
6
CONTINUOUS
10
141.501
20
-61.0007
11
155.501
21
-61.0007
0
LINE
8
BLACK
6
CONTINUOUS
10
174.501
20
-75
11
160.501
21
-75
0
LINE
8
BLACK
6
CONTINUOUS
10
174.501
20
-61.0007
11
174.501
21
-75
0
LINE
8
BLACK
6
CONTINUOUS
10
173.03
20
-87.9753
11
173.03
21
-81.2256
0
LINE
8
BLACK
6
CONTINUOUS
10
155.5
20
-80.0007
11
155.5
21
-94
0
LINE
8
BLACK
6
CONTINUOUS
10
136.5
20
-94
11
122.5
21
-94
0
LINE
8
BLACK
6
CONTINUOUS
10
141.5
20
-80.0007
11
155.5
21
-80.0007
0
LINE
8
BLACK
6
CONTINUOUS
10
117.499
20
-80.0007
11
117.499
21
-94
0
LINE
8
BLACK
6
CONTINUOUS
10
103.499
20
-80.0007
11
117.499
21
-80.0007
0
LINE
8
BLACK
6
CONTINUOUS
10
122.5
20
-94
11
122.5
21
-80.0007
0
LINE
8
BLACK
6
CONTINUOUS
10
173.03
20
-81.2256
11
169.8
21
-81.2256
0
LINE
8
BLACK
6
CONTINUOUS
10
122.5
20
-80.0007
11
136.5
21
-80.0007
0
LINE
8
BLACK
6
CONTINUOUS
10
141.5
20
-94
11
141.5
21
-80.0007
0
LINE
8
BLACK
6
CONTINUOUS
10
155.5
20
-94
11
141.5
21
-94
0
LINE
8
BLACK
6
CONTINUOUS
10
169.8
20
-80.4001
11
167
21
-80.4001
0
LINE
8
BLACK
6
CONTINUOUS
10
169.8
20
-81.2256
11
169.8
21
-80.4001
0
LINE
8
BLACK
6
CONTINUOUS
10
169.8
20
-87.9753
11
173.03
21
-87.9753
0
LINE
8
BLACK
6
CONTINUOUS
10
169.8
20
-89.5007
11
169.8
21
-87.9753
0
LINE
8
BLACK
6
CONTINUOUS
10
160.501
20
-61.0007
11
174.501
21
-61.0007
0
LINE
8
BLACK
6
CONTINUOUS
10
160.501
20
-75
11
160.501
21
-61.0007
0
LINE
8
BLACK
6
CONTINUOUS
10
103.499
20
-94
11
103.499
21
-80.0007
0
LINE
8
BLACK
6
CONTINUOUS
10
117.499
20
-94
11
103.499
21
-94
0
LINE
8
BLACK
6
CONTINUOUS
10
160.73
20
-106.751
11
159.529
21
-106.751
0
LINE
8
BLACK
6
CONTINUOUS
10
160.499
20
-103.5
11
165.2
21
-103.5
0
LINE
8
BLACK
6
CONTINUOUS
10
160.73
20
-87.9753
11
165.2
21
-87.9753
0
LINE
8
BLACK
6
CONTINUOUS
10
165.2
20
-87.9753
11
165.2
21
-89.5007
0
LINE
8
BLACK
6
CONTINUOUS
10
159.529
20
-110.05
11
160.73
21
-110.05
0
LINE
8
BLACK
6
CONTINUOUS
10
165.2
20
-103.5
11
165.2
21
-105.026
0
LINE
8
BLACK
6
CONTINUOUS
10
159.529
20
-106.751
11
159.529
21
-110.05
0
LINE
8
BLACK
6
CONTINUOUS
10
160.499
20
-89.5007
11
160.499
21
-103.5
0
LINE
8
BLACK
6
CONTINUOUS
10
169.8
20
-105.026
11
169.8
21
-103.5
0
LINE
8
BLACK
6
CONTINUOUS
10
173.03
20
-105.026
11
169.8
21
-105.026
0
LINE
8
BLACK
6
CONTINUOUS
10
169.8
20
-112.601
11
169.8
21
-111.775
0
LINE
8
BLACK
6
CONTINUOUS
10
167
20
-111.775
11
167
21
-112.601
0
LINE
8
BLACK
6
CONTINUOUS
10
160.73
20
-111.775
11
167
21
-111.775
0
LINE
8
BLACK
6
CONTINUOUS
10
169.8
20
-111.775
11
173.03
21
-111.775
0
LINE
8
BLACK
6
CONTINUOUS
10
160.73
20
-110.05
11
160.73
21
-111.775
0
LINE
8
BLACK
6
CONTINUOUS
10
165.2
20
-105.026
11
160.73
21
-105.026
0
LINE
8
BLACK
6
CONTINUOUS
10
160.73
20
-105.026
11
160.73
21
-106.751
0
LINE
8
BLACK
6
CONTINUOUS
10
165.2
20
-89.5007
11
160.499
21
-89.5007
0
LINE
8
BLACK
6
CONTINUOUS
10
174.499
20
-89.5007
11
169.8
21
-89.5007
0
LINE
8
BLACK
6
CONTINUOUS
10
174.499
20
-103.5
11
174.499
21
-89.5007
0
LINE
8
BLACK
6
CONTINUOUS
10
169.8
20
-103.5
11
174.499
21
-103.5
0
LINE
8
BLACK
6
CONTINUOUS
10
167
20
-112.601
11
169.8
21
-112.601
0
LINE
8
BLACK
6
CONTINUOUS
10
173.03
20
-111.775
11
173.03
21
-105.026
0
LINE
8
BLACK
6
CONTINUOUS
10
160.73
20
-81.2256
11
160.73
21
-82.9507
0
LINE
8
BLACK
6
CONTINUOUS
10
167
20
-81.2256
11
160.73
21
-81.2256
0
LINE
8
BLACK
6
CONTINUOUS
10
117.5
20
-118.001
11
117.5
21
-132
0
LINE
8
BLACK
6
CONTINUOUS
10
160.73
20
-86.2499
11
160.73
21
-87.9753
0
LINE
8
BLACK
6
CONTINUOUS
10
103.5
20
-113
11
103.5
21
-99.0007
0
LINE
8
BLACK
6
CONTINUOUS
10
155.499
20
-99.0007
11
155.499
21
-113
0
LINE
8
BLACK
6
CONTINUOUS
10
136.5
20
-113
11
122.5
21
-113
0
LINE
8
BLACK
6
CONTINUOUS
10
103.5
20
-118.001
11
117.5
21
-118.001
0
LINE
8
BLACK
6
CONTINUOUS
10
117.5
20
-99.0007
11
117.5
21
-113
0
LINE
8
BLACK
6
CONTINUOUS
10
122.5
20
-113
11
122.5
21
-99.0007
0
LINE
8
BLACK
6
CONTINUOUS
10
117.5
20
-132
11
103.5
21
-132
0
LINE
8
BLACK
6
CONTINUOUS
10
136.5
20
-99.0007
11
136.5
21
-113
0
LINE
8
BLACK
6
CONTINUOUS
10
141.499
20
-99.0007
11
155.499
21
-99.0007
0
LINE
8
BLACK
6
CONTINUOUS
10
103.5
20
-132
11
103.5
21
-118.001
0
LINE
8
BLACK
6
CONTINUOUS
10
160.73
20
-82.9507
11
159.529
21
-82.9507
0
LINE
8
BLACK
6
CONTINUOUS
10
159.529
20
-86.2499
11
160.73
21
-86.2499
0
LINE
8
BLACK
6
CONTINUOUS
10
117.5
20
-113
11
103.5
21
-113
0
LINE
8
BLACK
6
CONTINUOUS
10
122.5
20
-99.0007
11
136.5
21
-99.0007
0
LINE
8
BLACK
6
CONTINUOUS
10
159.529
20
-82.9507
11
159.529
21
-86.2499
0
LINE
8
BLACK
6
CONTINUOUS
10
103.5
20
-99.0007
11
117.5
21
-99.0007
0
LINE
8
BLACK
6
CONTINUOUS
10
141.499
20
-113
11
141.499
21
-99.0007
0
LINE
8
BLACK
6
CONTINUOUS
10
155.499
20
-113
11
141.499
21
-113
0
LINE
8
BLACK
6
CONTINUOUS
10
167
20
-80.4001
11
167
21
-81.2256
0
LINE
8
BLACK
6
CONTINUOUS
10
173.031
20
-119.225
11
169.801
21
-119.225
0
LINE
8
BLACK
6
CONTINUOUS
10
122.5
20
-132
11
122.5
21
-118.001
0
LINE
8
BLACK
6
CONTINUOUS
10
169.801
20
-149.775
11
173.031
21
-149.775
0
LINE
8
BLACK
6
CONTINUOUS
10
136.5
20
-132
11
122.5
21
-132
0
LINE
8
BLACK
6
CONTINUOUS
10
173.031
20
-149.775
11
173.031
21
-143.026
0
LINE
8
BLACK
6
CONTINUOUS
10
174.5
20
-127.501
11
169.801
21
-127.501
0
LINE
8
BLACK
6
CONTINUOUS
10
169.801
20
-119.225
11
169.801
21
-118.4
0
LINE
8
BLACK
6
CONTINUOUS
10
174.5
20
-141.5
11
174.5
21
-127.501
0
LINE
8
BLACK
6
CONTINUOUS
10
155.5
20
-118
11
155.5
21
-131.999
0
LINE
8
BLACK
6
CONTINUOUS
10
141.5
20
-118
11
155.5
21
-118
0
LINE
8
BLACK
6
CONTINUOUS
10
169.801
20
-118.4
11
167.001
21
-118.4
0
LINE
8
BLACK
6
CONTINUOUS
10
173.031
20
-143.026
11
169.801
21
-143.026
0
LINE
8
BLACK
6
CONTINUOUS
10
173.031
20
-125.975
11
173.031
21
-119.225
0
LINE
8
BLACK
6
CONTINUOUS
10
169.801
20
-125.975
11
173.031
21
-125.975
0
LINE
8
BLACK
6
CONTINUOUS
10
169.801
20
-127.501
11
169.801
21
-125.975
0
LINE
8
BLACK
6
CONTINUOUS
10
169.801
20
-141.5
11
174.5
21
-141.5
0
LINE
8
BLACK
6
CONTINUOUS
10
167.001
20
-150.601
11
169.801
21
-150.601
0
LINE
8
BLACK
6
CONTINUOUS
10
169.801
20
-143.026
11
169.801
21
-141.5
0
LINE
8
BLACK
6
CONTINUOUS
10
169.801
20
-150.601
11
169.801
21
-149.775
0
LINE
8
BLACK
6
CONTINUOUS
10
122.5
20
-118.001
11
136.5
21
-118.001
0
LINE
8
BLACK
6
CONTINUOUS
10
136.5
20
-118.001
11
136.5
21
-132
0
LINE
8
BLACK
6
CONTINUOUS
10
141.5
20
-131.999
11
141.5
21
-118
0
LINE
8
BLACK
6
CONTINUOUS
10
155.5
20
-131.999
11
141.5
21
-131.999
0
LINE
8
BLACK
6
CONTINUOUS
10
160.731
20
-125.975
11
165.201
21
-125.975
0
LINE
8
BLACK
6
CONTINUOUS
10
160.731
20
-120.951
11
159.53
21
-120.951
0
LINE
8
BLACK
6
CONTINUOUS
10
159.53
20
-144.751
11
159.53
21
-148.05
0
LINE
8
BLACK
6
CONTINUOUS
10
141.5
20
-151
11
141.5
21
-137.001
0
LINE
8
BLACK
6
CONTINUOUS
10
165.201
20
-127.501
11
160.5
21
-127.501
0
LINE
8
BLACK
6
CONTINUOUS
10
159.53
20
-120.951
11
159.53
21
-124.25
0
LINE
8
BLACK
6
CONTINUOUS
10
165.201
20
-125.975
11
165.201
21
-127.501
0
LINE
8
BLACK
6
CONTINUOUS
10
160.731
20
-119.225
11
160.731
21
-120.951
0
LINE
8
BLACK
6
CONTINUOUS
10
160.731
20
-149.775
11
167.001
21
-149.775
0
LINE
8
BLACK
6
CONTINUOUS
10
160.731
20
-148.05
11
160.731
21
-149.775
0
LINE
8
BLACK
6
CONTINUOUS
10
160.731
20
-143.026
11
160.731
21
-144.751
0
LINE
8
BLACK
6
CONTINUOUS
10
165.201
20
-141.5
11
165.201
21
-143.026
0
LINE
8
BLACK
6
CONTINUOUS
10
160.5
20
-141.5
11
165.201
21
-141.5
0
LINE
8
BLACK
6
CONTINUOUS
10
160.731
20
-144.751
11
159.53
21
-144.751
0
LINE
8
BLACK
6
CONTINUOUS
10
160.5
20
-127.501
11
160.5
21
-141.5
0
LINE
8
BLACK
6
CONTINUOUS
10
159.53
20
-124.25
11
160.731
21
-124.25
0
LINE
8
BLACK
6
CONTINUOUS
10
155.5
20
-151
11
141.5
21
-151
0
LINE
8
BLACK
6
CONTINUOUS
10
160.731
20
-124.25
11
160.731
21
-125.975
0
LINE
8
BLACK
6
CONTINUOUS
10
159.53
20
-148.05
11
160.731
21
-148.05
0
LINE
8
BLACK
6
CONTINUOUS
10
165.201
20
-143.026
11
160.731
21
-143.026
0
LINE
8
BLACK
6
CONTINUOUS
10
167.001
20
-118.4
11
167.001
21
-119.225
0
LINE
8
BLACK
6
CONTINUOUS
10
167.001
20
-119.225
11
160.731
21
-119.225
0
LINE
8
BLACK
6
CONTINUOUS
10
167.001
20
-149.775
11
167.001
21
-150.601
0
LINE
8
BLACK
6
CONTINUOUS
10
126.999
20
-137
11
112.999
21
-137
0
LINE
8
BLACK
6
CONTINUOUS
10
126.999
20
-141.7
11
126.999
21
-137
0
LINE
8
BLACK
6
CONTINUOUS
10
128.524
20
-141.7
11
126.999
21
-141.7
0
LINE
8
BLACK
6
CONTINUOUS
10
135.274
20
-138.47
11
128.524
21
-138.47
0
LINE
8
BLACK
6
CONTINUOUS
10
128.524
20
-150.769
11
130.25
21
-150.769
0
LINE
8
BLACK
6
CONTINUOUS
10
111.474
20
-146.3
11
112.999
21
-146.3
0
LINE
8
BLACK
6
CONTINUOUS
10
136.1
20
-141.7
11
135.274
21
-141.7
0
LINE
8
BLACK
6
CONTINUOUS
10
135.274
20
-150.769
11
135.274
21
-144.499
0
LINE
8
BLACK
6
CONTINUOUS
10
135.274
20
-144.499
11
136.1
21
-144.499
0
LINE
8
BLACK
6
CONTINUOUS
10
126.999
20
-150.999
11
126.999
21
-146.3
0
LINE
8
BLACK
6
CONTINUOUS
10
112.999
20
-150.999
11
126.999
21
-150.999
0
LINE
8
BLACK
6
CONTINUOUS
10
133.549
20
-150.769
11
135.274
21
-150.769
0
LINE
8
BLACK
6
CONTINUOUS
10
128.524
20
-146.3
11
128.524
21
-150.769
0
LINE
8
BLACK
6
CONTINUOUS
10
126.999
20
-146.3
11
128.524
21
-146.3
0
LINE
8
BLACK
6
CONTINUOUS
10
112.999
20
-146.3
11
112.999
21
-150.999
0
LINE
8
BLACK
6
CONTINUOUS
10
155.5
20
-137.001
11
155.5
21
-151
0
LINE
8
BLACK
6
CONTINUOUS
10
135.274
20
-141.7
11
135.274
21
-138.47
0
LINE
8
BLACK
6
CONTINUOUS
10
133.549
20
-151.969
11
133.549
21
-150.769
0
LINE
8
BLACK
6
CONTINUOUS
10
141.5
20
-137.001
11
155.5
21
-137.001
0
LINE
8
BLACK
6
CONTINUOUS
10
136.1
20
-144.499
11
136.1
21
-141.7
0
LINE
8
BLACK
6
CONTINUOUS
10
130.25
20
-151.969
11
133.549
21
-151.969
0
LINE
8
BLACK
6
CONTINUOUS
10
130.25
20
-150.769
11
130.25
21
-151.969
0
LINE
8
BLACK
6
CONTINUOUS
10
128.524
20
-138.47
11
128.524
21
-141.7
0
LINE
8
BLACK
6
CONTINUOUS
10
106.45
20
-151.969
11
109.749
21
-151.969
0
LINE
8
BLACK
6
CONTINUOUS
10
104.724
20
-150.769
11
106.45
21
-150.769
0
LINE
8
BLACK
6
CONTINUOUS
10
111.474
20
-141.7
11
111.474
21
-138.47
0
LINE
8
BLACK
6
CONTINUOUS
10
103.899
20
-144.499
11
104.724
21
-144.499
0
LINE
8
BLACK
6
CONTINUOUS
10
103.899
20
-141.7
11
103.899
21
-144.499
0
LINE
8
BLACK
6
CONTINUOUS
10
104.724
20
-138.47
11
104.724
21
-141.7
0
LINE
8
BLACK
6
CONTINUOUS
10
112.999
20
-137
11
112.999
21
-141.7
0
LINE
8
BLACK
6
CONTINUOUS
10
111.474
20
-138.47
11
104.724
21
-138.47
0
LINE
8
BLACK
6
CONTINUOUS
10
112.999
20
-141.7
11
111.474
21
-141.7
0
LINE
8
BLACK
6
CONTINUOUS
10
104.724
20
-141.7
11
103.899
21
-141.7
0
LINE
8
BLACK
6
CONTINUOUS
10
109.749
20
-150.769
11
111.474
21
-150.769
0
LINE
8
BLACK
6
CONTINUOUS
10
109.749
20
-151.969
11
109.749
21
-150.769
0
LINE
8
BLACK
6
CONTINUOUS
10
106.45
20
-150.769
11
106.45
21
-151.969
0
LINE
8
BLACK
6
CONTINUOUS
10
104.724
20
-144.499
11
104.724
21
-150.769
0
LINE
8
BLACK
6
CONTINUOUS
10
111.474
20
-150.769
11
111.474
21
-146.3
  0
ENDSEC
  0
EOF
